<svg width="24.000000" height="24.000000" viewBox="0 0 24 24" fill="none" xmlns="http://www.w3.org/2000/svg" xmlns:xlink="http://www.w3.org/1999/xlink">
	<desc>
			Created with Pixso.
	</desc>
	<defs>
		<clipPath id="clip134_487">
			<rect id="fi-rr-shopping-cart" rx="-0.500000" width="23.000000" height="23.000000" transform="translate(0.500000 0.500000)" fill="white" fill-opacity="0"/>
		</clipPath>
	</defs>
	<rect id="fi-rr-shopping-cart" rx="-0.500000" width="23.000000" height="23.000000" transform="translate(0.500000 0.500000)" fill="#FFFFFF" fill-opacity="0"/>
	<g clip-path="url(#clip134_487)">
		<path id="Vector" d="M22.71 4.07C22.43 3.73 22.07 3.46 21.68 3.28C21.28 3.09 20.84 2.99 20.4 3L4.24 3L4.19 2.64C4.11 1.91 3.76 1.24 3.21 0.75C2.66 0.27 1.95 0 1.22 0L1 0C0.73 0 0.48 0.1 0.29 0.29C0.1 0.48 0 0.73 0 1C0 1.26 0.1 1.51 0.29 1.7C0.48 1.89 0.73 2 1 2L1.22 2C1.46 2 1.7 2.08 1.88 2.25C2.06 2.41 2.18 2.63 2.21 2.88L3.59 14.58C3.73 15.79 4.31 16.92 5.23 17.73C6.14 18.55 7.33 19 8.55 19L19 19C19.26 19 19.51 18.89 19.7 18.7C19.89 18.51 20 18.26 20 18C20 17.73 19.89 17.48 19.7 17.29C19.51 17.1 19.26 17 19 17L8.55 17C7.93 16.99 7.33 16.8 6.82 16.44C6.32 16.08 5.94 15.58 5.73 15L17.65 15C18.82 15 19.96 14.58 20.86 13.83C21.76 13.08 22.37 12.04 22.57 10.88L23.36 6.53C23.44 6.1 23.42 5.65 23.31 5.23C23.19 4.8 22.99 4.41 22.71 4.07ZM21.39 6.17L20.61 10.53C20.48 11.22 20.12 11.85 19.58 12.3C19.04 12.75 18.36 13 17.65 13L5.41 13L4.47 5L20.4 5C20.55 4.99 20.7 5.03 20.83 5.09C20.96 5.15 21.08 5.24 21.18 5.35C21.27 5.46 21.34 5.6 21.38 5.74C21.42 5.88 21.42 6.03 21.39 6.17Z" fill="#374957" fill-opacity="1.000000" fill-rule="nonzero"/>
		<path id="Vector" d="M9 22C9 23.1 8.1 24 7 24C5.89 24 5 23.1 5 22C5 20.89 5.89 20 7 20C8.1 20 9 20.89 9 22Z" fill="#374957" fill-opacity="1.000000" fill-rule="evenodd"/>
		<path id="Vector" d="M19 22C19 23.1 18.1 24 17 24C15.89 24 15 23.1 15 22C15 20.89 15.89 20 17 20C18.1 20 19 20.89 19 22Z" fill="#374957" fill-opacity="1.000000" fill-rule="evenodd"/>
	</g>
</svg>
