<svg width="256.000000" height="262.000000" viewBox="0 0 256 262" fill="none" xmlns="http://www.w3.org/2000/svg" xmlns:xlink="http://www.w3.org/1999/xlink">
	<desc>
			Created with Pixso.
	</desc>
	<defs>
		<clipPath id="clip173_4435">
			<rect id="Frame" rx="0.000000" width="50.385780" height="50.385780" transform="translate(198.151840 20.767075)" fill="white" fill-opacity="0"/>
		</clipPath>
		<clipPath id="clip173_4357">
			<rect id="call centreРесурс 1 1" rx="0.000000" width="255.368942" height="261.368958" transform="translate(0.315527 0.315527)" fill="white" fill-opacity="0"/>
		</clipPath>
	</defs>
	<rect id="call centreРесурс 1 1" rx="0.000000" width="255.368942" height="261.368958" transform="translate(0.315527 0.315527)" fill="#FFFFFF" fill-opacity="0"/>
	<g clip-path="url(#clip173_4357)">
		<path id="Vector" d="M202.36 255.22C202.36 258.93 163.37 261.95 115.27 261.95C67.17 261.95 28.18 258.93 28.18 255.22C28.18 251.5 67.17 248.48 115.27 248.48C163.37 248.48 202.36 251.5 202.36 255.22Z" fill="#F8B716" fill-opacity="1.000000" fill-rule="evenodd"/>
		<path id="Vector" d="M233.49 135.95C233.49 200.42 181.22 252.69 116.74 252.69C52.26 252.69 0 200.42 0 135.95C0 71.47 52.26 19.2 116.74 19.2C181.22 19.2 233.49 71.47 233.49 135.95Z" fill="#CCE3FF" fill-opacity="1.000000" fill-rule="evenodd"/>
		<path id="Vector" d="M99.75 137.57C89.3 132.44 80.9 122.55 76.44 110.16C76.16 116.62 77.13 123.67 79.77 131.04C85.42 135.81 90.83 139.49 96.09 142.15C97.05 141.47 98.15 140.84 99.36 140.27C99.5 139.37 99.63 138.47 99.75 137.57Z" fill="#391E17" fill-opacity="1.000000" fill-rule="nonzero"/>
		<path id="Vector" d="M157.03 106.62C152.76 121.39 143.07 133.13 130.79 138.41C130.83 138.52 130.86 138.63 130.9 138.75C133.07 139.65 134.94 140.84 136.37 142.36C141.91 139.64 147.54 135.86 153.4 131.05C156.48 122.76 157.43 114.49 157.03 106.62L157.03 106.62Z" fill="#391E17" fill-opacity="1.000000" fill-rule="nonzero"/>
		<path id="Vector" d="M99.36 140.27C98.15 140.84 97.04 141.47 96.09 142.15C95.66 142.46 95.25 142.77 94.87 143.1L98.28 146.16C98.69 144.37 99.05 142.35 99.36 140.27Z" fill="#910028" fill-opacity="1.000000" fill-rule="nonzero"/>
		<path id="Vector" d="M130.9 138.75C131.85 141.47 132.89 143.99 133.78 146L137.02 143.1C136.81 142.84 136.59 142.6 136.36 142.35C134.93 140.84 133.07 139.64 130.89 138.74L130.9 138.75Z" fill="#910028" fill-opacity="1.000000" fill-rule="nonzero"/>
		<path id="Vector" d="M133.78 146C132.89 143.99 131.85 141.47 130.9 138.75C130.86 138.63 130.83 138.52 130.79 138.41C126.22 140.37 121.3 141.45 116.17 141.45C110.35 141.45 104.81 140.07 99.75 137.58C99.63 138.48 99.5 139.38 99.36 140.28C99.05 142.35 98.69 144.38 98.28 146.16L111.66 158.18L113.77 170.17L118.28 170.17L120.22 158.18L133.78 146L133.78 146Z" fill="#FDCE9F" fill-opacity="1.000000" fill-rule="nonzero"/>
		<path id="Vector" d="M137.31 170.17L171.45 170.17C173.09 170.17 174.6 170.65 175.89 171.46C173.36 162.44 171.11 156.03 169.91 155.43C166.61 153.79 148.31 149.92 141.21 148.47C141.38 149.03 141.47 149.64 141.47 150.29C141.47 152.54 139.29 164.4 137.31 170.16L137.31 170.17Z" fill="#EB1C4E" fill-opacity="1.000000" fill-rule="nonzero"/>
		<path id="Vector" d="M179.59 185.69L174.5 245.41C181.25 242.87 187.31 239.91 188.05 237.23C189.49 232.01 184.72 206.78 179.59 185.69Z" fill="#EB1C4E" fill-opacity="1.000000" fill-rule="nonzero"/>
		<path id="Vector" d="M40.7 236.28C41.56 238.56 47.37 242.1 53.26 245.2L49.18 197.39C43.62 214.87 39.09 232.04 40.7 236.28Z" fill="#EB1C4E" fill-opacity="1.000000" fill-rule="nonzero"/>
		<path id="Vector" d="M90.42 150.3C90.42 150.1 90.43 149.91 90.44 149.73C82.93 150.69 66.56 152.99 64.72 155.1C64.05 155.86 61.62 161.81 58.53 170.17L94.58 170.17C92.6 164.41 90.42 152.54 90.42 150.3L90.42 150.3Z" fill="#EB1C4E" fill-opacity="1.000000" fill-rule="nonzero"/>
		<path id="Vector" d="M120.23 158.17L118.29 170.16L131.93 170.16C127.39 165.71 120.23 158.17 120.23 158.17Z" fill="#EB1C4E" fill-opacity="1.000000" fill-rule="nonzero"/>
		<path id="Vector" d="M99.96 170.17L113.77 170.17L111.66 158.18C111.66 158.18 104.5 165.72 99.96 170.17Z" fill="#EB1C4E" fill-opacity="1.000000" fill-rule="nonzero"/>
		<path id="Vector" d="M94.58 170.17L99.96 170.17C104.5 165.71 111.66 158.18 111.66 158.18L98.28 146.16L94.87 143.1C92.63 145.03 90.68 146.96 90.44 149.73C90.43 149.92 90.42 150.11 90.42 150.3C90.42 152.54 92.6 164.41 94.58 170.17Z" fill="#BB0C3C" fill-opacity="1.000000" fill-rule="nonzero"/>
		<path id="Vector" d="M120.23 158.17C120.23 158.17 127.39 165.71 131.93 170.16L137.31 170.16C139.29 164.4 141.47 152.53 141.47 150.29C141.47 149.64 141.38 149.03 141.21 148.47C140.58 146.34 138.91 144.72 137.02 143.1L133.78 146L120.23 158.17Z" fill="#BB0C3C" fill-opacity="1.000000" fill-rule="nonzero"/>
		<path id="Vector" d="M145.83 29.01C145.83 29.01 149.55 29.08 154.06 32.29C154.26 31.61 154.43 30.93 154.56 30.23C157.1 17.04 147.89 4.16 133.98 1.48C121.23 -0.97 108.97 5.99 105.05 17.32C117.16 15.52 131.12 19.13 145.82 29.01L145.83 29.01Z" fill="#462822" fill-opacity="1.000000" fill-rule="nonzero"/>
		<path id="Vector" d="M61.46 253.77L61.46 253.95C61.46 255.08 62.38 256 63.51 256L74.48 256C75.61 256 76.54 255.08 76.54 253.95L76.54 253.78L61.65 253.78C61.59 253.78 61.52 253.77 61.46 253.77Z" fill="#ABC7D5" fill-opacity="1.000000" fill-rule="nonzero"/>
		<path id="Vector" d="M152.44 253.78L152.44 253.95C152.44 255.08 153.36 256 154.49 256L165.46 256C166.59 256 167.52 255.08 167.52 253.95L167.52 253.66C167.06 253.73 166.6 253.78 166.13 253.78L152.44 253.78Z" fill="#ABC7D5" fill-opacity="1.000000" fill-rule="nonzero"/>
		<path id="Vector" d="M56.33 174.62L171.45 174.62C175.48 174.62 178.79 177.46 179.6 181.18L179.76 179.22C180.04 175.99 178.43 173.07 175.89 171.46C174.61 170.65 173.09 170.17 171.45 170.17L56.33 170.17C51.44 170.17 47.6 174.36 48.02 179.23L48.18 181.19C49 177.47 52.3 174.63 56.33 174.63L56.33 174.62Z" fill="#C3D8E3" fill-opacity="1.000000" fill-rule="nonzero"/>
		<path id="Vector" d="M179.76 183.67C179.84 182.81 179.77 181.98 179.6 181.18C178.79 177.46 175.48 174.62 171.45 174.62L56.33 174.62C52.3 174.62 49 177.46 48.18 181.18C48.01 181.98 47.94 182.81 48.02 183.67L49.19 197.39L53.26 245.2L53.34 246.14C53.7 250.39 57.22 253.67 61.47 253.76C61.53 253.76 61.59 253.77 61.66 253.77L166.13 253.77C166.6 253.77 167.07 253.73 167.52 253.65C171.21 253.03 174.11 249.98 174.44 246.14L174.5 245.41L179.59 185.69L179.76 183.67ZM113.89 203.75C119.66 203.75 124.34 208.42 124.34 214.2C124.34 219.97 119.66 224.65 113.89 224.65C108.11 224.65 103.44 219.97 103.44 214.2C103.44 208.42 108.11 203.75 113.89 203.75Z" fill="#FFFFFF" fill-opacity="1.000000" fill-rule="nonzero"/>
		<path id="Vector" d="M124.34 214.2C124.34 219.98 119.66 224.65 113.89 224.65C108.12 224.65 103.44 219.98 103.44 214.2C103.44 208.43 108.12 203.75 113.89 203.75C119.66 203.75 124.34 208.43 124.34 214.2Z" fill="#C3D8E3" fill-opacity="1.000000" fill-rule="evenodd"/>
		<path id="Vector" d="M116.17 141.45C121.3 141.45 126.22 140.38 130.79 138.41C143.07 133.13 152.76 121.39 157.03 106.62C155.55 78 136.15 54.63 136.15 54.63C136.15 54.63 120.17 70.74 103.34 73.22C90.57 75.1 77.32 89.82 76.45 110.16C80.91 122.56 89.3 132.44 99.75 137.58C104.81 140.07 110.36 141.45 116.17 141.45L116.17 141.45Z" fill="#FDCE9F" fill-opacity="1.000000" fill-rule="nonzero"/>
		<path id="Vector" d="M76.44 110.16C77.32 89.82 90.56 75.09 103.33 73.21C120.16 70.73 136.14 54.62 136.14 54.62C136.14 54.62 155.55 78 157.02 106.61C157.42 114.48 156.48 122.75 153.39 131.04C153.39 131.04 169.79 118.23 169.8 80.64C169.8 49.6 161 37.22 154.05 32.28C149.54 29.07 145.82 29.01 145.82 29.01C131.12 19.13 117.16 15.52 105.05 17.32C84.23 20.41 68.87 39.5 64.62 70.32C57.89 119.06 79.77 131.04 79.77 131.04C77.13 123.66 76.16 116.62 76.43 110.15L76.44 110.16Z" fill="#59372F" fill-opacity="1.000000" fill-rule="nonzero"/>
		<path id="Vector" d="M151.2 54.86C150.94 57.54 150.03 60.15 148.59 62.42C147.14 54.6 143.97 47.11 139.38 40.62C129.55 48.92 118.12 55.3 105.9 59.31C106.32 57.28 106.74 55.25 107.16 53.21C96.77 58.12 87.87 66.11 81.86 75.9C82.71 71.72 83.13 67.45 83.11 63.18C74.04 73.65 68.39 87.03 67.2 100.83C67.1 102.01 66.62 103.56 65.45 103.45C65.11 103.42 64.82 103.23 64.56 102.99C68.37 124.8 79.77 131.05 79.77 131.05C77.13 123.67 76.16 116.63 76.43 110.16C77.31 89.82 90.56 75.1 103.32 73.22C120.15 70.74 136.14 54.63 136.14 54.63C136.14 54.63 155.54 78 157.01 106.62C157.42 114.48 156.47 122.76 153.39 131.04C153.39 131.04 162.75 123.73 167.33 103.95C160.29 88.59 161.8 68.5 151.18 54.86L151.2 54.86Z" fill="#4F2E26" fill-opacity="1.000000" fill-rule="nonzero"/>
		<path id="Vector" d="M120.51 21.58C107.33 17.03 88.57 24 82.5 36.91C82.22 37.51 82.93 38.13 83.45 37.64C88.43 32.9 93.44 28.67 99.94 26.14C106.4 23.62 113.35 23.33 120.21 23.81C121.56 23.9 121.66 21.98 120.51 21.58Z" fill="#69423A" fill-opacity="1.000000" fill-rule="nonzero"/>
		<path id="Vector" d="M155.18 37.35C154.67 37.13 154.13 37.59 154.41 38.13C155.46 40.17 157.05 41.9 158.17 43.93C159.53 46.4 160.35 49.08 161.37 51.69C161.83 52.87 163.77 52.82 163.72 51.38C163.51 46.31 160.05 39.46 155.18 37.35L155.18 37.35Z" fill="#69423A" fill-opacity="1.000000" fill-rule="nonzero"/>
		<path id="Vector" d="M136.14 54.63C136.14 54.63 120.16 70.74 103.33 73.22C90.56 75.1 77.32 89.82 76.44 110.16C76.92 111.49 77.45 112.78 78.01 114.05C77.45 102.22 83.73 90.23 93.9 84.12C103.05 78.62 114.42 77.8 123.56 72.29C127.27 70.06 130.5 67.11 133.7 64.19C140.42 69.5 144.37 77.55 147.16 85.66C149.93 93.76 151.78 102.21 155.38 109.98C155.49 110.21 155.6 110.43 155.7 110.66C156.19 109.34 156.64 108 157.03 106.62C155.56 78 136.16 54.63 136.16 54.63L136.14 54.63Z" fill="#FBBC89" fill-opacity="1.000000" fill-rule="nonzero"/>
		<path id="Vector" d="M108.64 85.11C108.11 81.43 103.29 80.52 100.23 80.79C97.16 81.06 93.46 82.88 92.44 86C92.22 86.7 92.96 87.47 93.68 87.23C95.91 86.45 97.78 85.56 100.23 85.89C102.51 86.2 104.27 87.85 106.59 87.8C108.1 87.76 108.83 86.48 108.64 85.11Z" fill="#4F2E26" fill-opacity="1.000000" fill-rule="nonzero"/>
		<path id="Vector" d="M101.32 90.89C100.92 90.71 100.46 90.63 99.96 90.66C93.61 91.05 96.78 104.55 102.26 100.42C104.92 98.42 104.42 92.22 101.33 90.89L101.32 90.89Z" fill="#4F2E26" fill-opacity="1.000000" fill-rule="nonzero"/>
		<path id="Vector" d="M99.75 92.52C99.08 92.13 98.14 92.35 97.76 93.04C97.75 93.07 97.73 93.11 97.71 93.14C97.33 93.84 97.53 94.72 98.23 95.12C98.86 95.5 99.88 95.32 100.21 94.61C100.23 94.57 100.24 94.54 100.26 94.5C100.59 93.78 100.47 92.95 99.74 92.52L99.75 92.52Z" fill="#FFFFFF" fill-opacity="1.000000" fill-rule="nonzero"/>
		<path id="Vector" d="M124.62 85.11C125.14 81.43 129.96 80.52 133.02 80.79C136.1 81.06 139.79 82.88 140.81 86C141.04 86.7 140.29 87.47 139.58 87.23C137.34 86.45 135.48 85.56 133.02 85.89C130.74 86.2 128.99 87.85 126.66 87.8C125.15 87.76 124.42 86.48 124.62 85.11Z" fill="#4F2E26" fill-opacity="1.000000" fill-rule="nonzero"/>
		<path id="Vector" d="M133.51 90.89C133.1 90.71 132.64 90.63 132.14 90.66C125.79 91.05 128.96 104.55 134.45 100.42C137.1 98.42 136.61 92.22 133.51 90.89L133.51 90.89Z" fill="#4F2E26" fill-opacity="1.000000" fill-rule="nonzero"/>
		<path id="Vector" d="M131.93 92.52C131.27 92.13 130.33 92.35 129.95 93.04C129.93 93.07 129.91 93.11 129.89 93.14C129.51 93.84 129.72 94.72 130.41 95.12C131.04 95.5 132.06 95.32 132.39 94.61C132.41 94.57 132.42 94.54 132.44 94.5C132.77 93.78 132.65 92.95 131.92 92.52L131.93 92.52Z" fill="#FFFFFF" fill-opacity="1.000000" fill-rule="nonzero"/>
		<path id="Vector" d="M116.76 105.28C116.25 105.21 115.95 105.99 116.33 106.31C117.24 107.04 118.11 107.59 118.46 108.79C118.85 110.1 117.61 110.83 116.61 111.25C115.94 111.53 115.52 112.63 116.38 113.03C118.48 114 120.55 111.97 120.62 109.85C120.69 107.67 118.94 105.55 116.76 105.27L116.76 105.28Z" fill="#F9A96E" fill-opacity="1.000000" fill-rule="nonzero"/>
		<path id="Vector" d="M108.54 120.33C109.91 118.71 125.26 118.59 126.68 120.64C128.1 122.69 124 129.32 117.53 129.32C111.06 129.32 106.8 122.38 108.54 120.33Z" fill="#F05C59" fill-opacity="1.000000" fill-rule="nonzero"/>
		<path id="Vector" d="M126.68 120.64C125.26 118.59 109.91 118.71 108.54 120.33C107.67 121.36 108.31 123.63 109.99 125.64C112.27 123.08 115.98 121.9 119.43 122.21C121.77 122.43 124 123.23 126.07 124.37C126.96 122.88 127.22 121.43 126.68 120.65L126.68 120.64Z" fill="#ED2743" fill-opacity="1.000000" fill-rule="nonzero"/>
		<path id="Vector" d="M146.09 106.13C146.09 108.39 143.4 110.23 140.09 110.23C136.78 110.23 134.1 108.39 134.1 106.13C134.1 103.86 136.78 102.03 140.09 102.03C143.4 102.03 146.09 103.86 146.09 106.13Z" fill="#F48A75" fill-opacity="1.000000" fill-rule="evenodd"/>
		<path id="Vector" d="M97.81 106.13C97.81 108.39 95.12 110.23 91.81 110.23C88.5 110.23 85.82 108.39 85.82 106.13C85.82 103.86 88.5 102.03 91.81 102.03C95.12 102.03 97.81 103.86 97.81 106.13Z" fill="#F48A75" fill-opacity="1.000000" fill-rule="evenodd"/>
		<path id="Vector" d="M131.07 148.44L133.78 146C132.89 143.99 131.85 141.47 130.9 138.75C130.86 138.63 130.83 138.52 130.79 138.41C126.22 140.37 121.3 141.45 116.17 141.45C110.35 141.45 104.81 140.07 99.75 137.58C101.13 139.43 103.1 140.84 105.15 141.94C108.72 143.86 112.65 145.02 116.58 146.02C121.3 147.22 126.21 148.19 131.08 148.44L131.07 148.44Z" fill="#FBBC89" fill-opacity="1.000000" fill-rule="nonzero"/>
		<path id="Vector" d="M113.77 170.17L118.28 170.17L118.74 167.39C116.48 164.38 114.14 161.42 111.72 158.54L113.77 170.17Z" fill="#FBBC89" fill-opacity="1.000000" fill-rule="nonzero"/>
		<path id="Vector" d="M133.78 146L120.23 158.17C120.23 158.17 121.34 159.34 122.96 161.02C128.31 155.75 132.98 149.78 136.78 143.31L133.78 146Z" fill="#CF1244" fill-opacity="1.000000" fill-rule="nonzero"/>
		<path id="Vector" d="M94.96 143.18C98.57 148.78 102.62 154.09 107.1 159.02C107.7 159.69 108.32 160.36 108.98 160.98C110.58 159.32 111.66 158.18 111.66 158.18L98.28 146.16L94.96 143.18L94.96 143.18Z" fill="#CF1244" fill-opacity="1.000000" fill-rule="nonzero"/>
		<path id="Vector" d="M62.27 160.41C71.51 156.59 80.91 153.14 90.43 150.09C90.43 149.97 90.43 149.84 90.44 149.72C82.92 150.68 66.55 152.99 64.72 155.09C64.36 155.5 63.48 157.43 62.27 160.41L62.27 160.41Z" fill="#ED3F5C" fill-opacity="1.000000" fill-rule="nonzero"/>
		<path id="Vector" d="M169.91 155.43C166.61 153.79 148.31 149.92 141.21 148.47C141.23 148.55 141.25 148.64 141.28 148.73C148.06 151.7 154.93 154.5 161.88 157.09C165.39 158.4 168.95 159.66 172.55 160.7C171.46 157.67 170.54 155.75 169.91 155.43Z" fill="#ED3F5C" fill-opacity="1.000000" fill-rule="nonzero"/>
		<path id="Vector" d="M135.2 6.18C131.99 4.17 128.02 4.63 124.45 5.24C121.73 5.71 116.51 7.27 115.74 10.3C115.69 10.51 115.81 10.72 116.02 10.78C118.28 11.42 121.15 9.85 123.42 9.41C127.12 8.71 130.74 9.57 134.4 9.1C135.88 8.91 136.63 7.07 135.19 6.18L135.2 6.18Z" fill="#59372F" fill-opacity="1.000000" fill-rule="nonzero"/>
		<path id="Vector" d="M146.41 11.6C145.94 10.08 144.42 9.6 143.07 9.07C142.01 8.64 140.52 7.92 139.43 8.52C139.24 8.63 139.07 8.88 139.1 9.11C139.22 10.36 140.54 11.12 141.48 11.79C142.63 12.61 144.01 13.67 145.49 13.22C146.16 13.02 146.63 12.3 146.41 11.6L146.41 11.6Z" fill="#59372F" fill-opacity="1.000000" fill-rule="nonzero"/>
		<path id="Vector" d="M130.19 234.2C106.74 246.31 79.17 250.2 53.26 245.24L53.34 246.14C53.7 250.39 57.21 253.67 61.46 253.76C61.52 253.76 61.59 253.77 61.65 253.77L166.12 253.77C166.59 253.77 167.06 253.73 167.51 253.65C171.2 253.03 174.1 249.98 174.43 246.14L174.5 245.41L179.55 186.15C168.23 206.5 150.89 223.5 130.19 234.19L130.19 234.2Z" fill="#DAE6ED" fill-opacity="1.000000" fill-rule="nonzero"/>
		<path id="Vector" d="M109.13 209.84C107.22 209.86 106.2 211.45 105.72 213.11C105.32 214.49 105.31 216.84 106.78 217.61C107.16 217.8 107.74 217.81 108.04 217.44C108.66 216.66 108.76 215.62 109.06 214.68C109.41 213.59 110.37 212.89 110.56 211.7C110.7 210.78 110.17 209.81 109.13 209.82L109.13 209.84Z" fill="#DAE6ED" fill-opacity="1.000000" fill-rule="nonzero"/>
		<path id="Vector" d="M116.74 207.98C116.08 207.02 114.93 206.97 113.88 207.26C113.06 207.48 112.01 207.92 111.66 208.75C111.49 209.15 111.58 209.77 112.11 209.86C112.75 209.96 113.36 209.79 114 209.77C114.78 209.74 115.66 209.99 116.34 209.48C116.8 209.14 117.1 208.52 116.73 207.98L116.74 207.98Z" fill="#DAE6ED" fill-opacity="1.000000" fill-rule="nonzero"/>
		<path id="Vector" d="M165.46 82.8C165.64 83.1 165.81 83.51 165.97 84C166.55 84.03 167.43 84.1 168.48 84.31C168.57 74.35 165.66 36.98 117.25 36.98C68.84 36.98 65.33 74.51 65.27 84.38C66.45 84.12 67.44 84.04 68.07 84C68.23 83.52 68.4 83.11 68.58 82.8C69.26 81.66 70 80.91 70.76 80.47C72.98 69.85 81.98 44.84 117.45 44.84C152.92 44.84 160.59 68.92 162.76 80.22C163.7 80.56 164.64 81.4 165.47 82.8L165.46 82.8Z" fill="#31667A" fill-opacity="1.000000" fill-rule="nonzero"/>
		<path id="Vector" d="M68.07 84C67.44 84.03 66.45 84.12 65.27 84.38C60.95 85.3 54.22 88.37 54.22 98.59C54.22 110.17 63.39 112.14 67.61 112.43C65.81 107.85 66.14 89.87 68.07 84L68.07 84Z" fill="#426677" fill-opacity="1.000000" fill-rule="nonzero"/>
		<path id="Vector" d="M68.58 82.8C68.4 83.1 68.24 83.51 68.07 84C66.14 89.87 65.81 107.84 67.62 112.42C67.75 112.74 67.88 113 68.04 113.18C70.46 116.13 75.53 116.72 76.52 112.89C77.51 109.05 78.61 88.99 76.74 84.27C75.34 80.76 72.96 79.21 70.76 80.46C69.99 80.89 69.25 81.66 68.58 82.79L68.58 82.8Z" fill="#6D8D9D" fill-opacity="1.000000" fill-rule="nonzero"/>
		<path id="Vector" d="M159.4 115.23C155.59 123.34 145.13 127.54 138.9 129.38C138.97 129.55 139.03 129.73 139.08 129.92C139.39 131.13 139.31 132.17 138.95 133.07C153.16 130.76 160.03 120.95 162.86 115.29C161.65 115.68 160.41 115.68 159.41 115.23L159.4 115.23Z" fill="#31667A" fill-opacity="1.000000" fill-rule="nonzero"/>
		<path id="Vector" d="M179.83 98.58C179.83 88.13 172.78 85.15 168.48 84.31C167.43 84.1 166.55 84.03 165.97 84C167.91 89.87 168.23 107.84 166.42 112.42C170.65 112.13 179.82 110.17 179.82 98.58L179.83 98.58Z" fill="#426677" fill-opacity="1.000000" fill-rule="nonzero"/>
		<path id="Vector" d="M165.97 84C165.81 83.52 165.64 83.11 165.46 82.8C164.63 81.4 163.7 80.56 162.74 80.22C160.7 79.48 158.58 81.04 157.3 84.27C155.43 88.99 156.53 109.05 157.53 112.89C157.83 114.07 158.52 114.82 159.4 115.22C160.4 115.68 161.65 115.67 162.86 115.29C164.04 114.91 165.18 114.19 166.01 113.18C166.16 112.99 166.29 112.74 166.42 112.41C168.22 107.83 167.9 89.86 165.97 83.99L165.97 84Z" fill="#6D8D9D" fill-opacity="1.000000" fill-rule="nonzero"/>
		<path id="Vector" d="M139.08 129.92C139.03 129.73 138.97 129.55 138.9 129.38C136.86 124.44 125.85 126.1 123.96 128.63C122.01 131.25 121.69 134.3 124.63 136.6C127.1 138.54 137.02 137.85 138.95 133.07C139.31 132.17 139.39 131.12 139.08 129.92Z" fill="#6D8D9D" fill-opacity="1.000000" fill-rule="nonzero"/>
		<path id="Vector" d="M76.07 113.93C69.52 105.52 66.62 94.38 68.13 83.83C68.11 83.88 68.09 83.94 68.07 84C66.14 89.87 65.81 107.84 67.62 112.42C67.75 112.74 67.88 113 68.04 113.18C70.21 115.83 74.5 116.57 76.08 113.92L76.07 113.93Z" fill="#457285" fill-opacity="1.000000" fill-rule="nonzero"/>
		<path id="Vector" d="M165.46 82.8C165.28 82.49 165.09 82.22 164.9 81.97C165.24 88.65 165.33 95.42 163.95 101.98C163 106.51 161.27 110.96 158.66 114.77C158.89 114.96 159.13 115.12 159.39 115.24C160.4 115.7 161.65 115.68 162.85 115.3C164.03 114.93 165.17 114.2 166 113.19C166.15 113.01 166.28 112.75 166.42 112.43C168.22 107.85 167.89 89.87 165.96 84C165.81 83.52 165.63 83.11 165.45 82.8L165.46 82.8Z" fill="#457285" fill-opacity="1.000000" fill-rule="nonzero"/>
		<path id="Vector" d="M172.18 102.54C170.81 103.6 169.18 104.58 167.52 104.71C167.36 108.1 167 110.95 166.42 112.43C170.64 112.14 179.82 110.17 179.82 98.59C179.82 97.27 179.71 96.08 179.51 94.98C177.44 97.84 174.97 100.4 172.18 102.54Z" fill="#2F5464" fill-opacity="1.000000" fill-rule="nonzero"/>
		<path id="Vector" d="M54.8 93.82C54.44 95.2 54.22 96.78 54.22 98.58C54.22 110.17 63.4 112.13 67.62 112.42C66.99 110.83 66.63 107.63 66.49 103.89C64.1 103.13 61.86 101.93 59.93 100.34C57.77 98.57 56.03 96.32 54.8 93.82L54.8 93.82Z" fill="#2F5464" fill-opacity="1.000000" fill-rule="nonzero"/>
		<path id="Vector" d="M132.43 133.43C129.15 134.33 125.55 134 122.47 132.56C122.46 134 123.1 135.4 124.63 136.6C127.1 138.54 137.02 137.85 138.95 133.07C139.31 132.17 139.39 131.12 139.08 129.92C139.04 129.78 139 129.65 138.95 129.52C137.16 131.36 134.9 132.75 132.43 133.43Z" fill="#457285" fill-opacity="1.000000" fill-rule="nonzero"/>
		<path id="Vector" d="M158.67 116.59C159.19 117.59 159.75 118.57 160.38 119.49C161.42 117.98 162.24 116.54 162.86 115.3C161.65 115.68 160.4 115.69 159.4 115.24C159.18 115.7 158.93 116.16 158.67 116.6L158.67 116.59Z" fill="#275669" fill-opacity="1.000000" fill-rule="nonzero"/>
		<path id="Vector" d="M144.37 131.72C143.25 130.68 142.08 129.69 140.85 128.77C140.17 129 139.51 129.21 138.9 129.38C138.97 129.55 139.03 129.73 139.08 129.92C139.39 131.13 139.31 132.17 138.95 133.07C140.89 132.75 142.7 132.29 144.37 131.72Z" fill="#275669" fill-opacity="1.000000" fill-rule="nonzero"/>
		<path id="Vector" d="M162.75 80.22C163.7 80.56 164.63 81.4 165.46 82.8C165.65 83.11 165.81 83.52 165.98 84C166.56 84.04 167.44 84.11 168.49 84.32C168.51 81.9 168.35 77.86 167.41 73.14C165.57 74.42 163.79 75.79 162.09 77.25C162.36 78.31 162.58 79.31 162.75 80.22Z" fill="#275669" fill-opacity="1.000000" fill-rule="nonzero"/>
		<path id="Vector" d="M66.19 74.81C65.45 78.84 65.28 82.25 65.27 84.38C66.45 84.12 67.44 84.04 68.07 84C68.23 83.52 68.4 83.11 68.58 82.8C69.26 81.66 70 80.91 70.76 80.47C70.89 79.87 71.04 79.22 71.21 78.53C69.54 77.29 67.87 76.05 66.2 74.8L66.19 74.81Z" fill="#275669" fill-opacity="1.000000" fill-rule="nonzero"/>
		<path id="Vector" d="M244.01 13.21L193.1 13.21C186.5 13.21 181.11 18.6 181.11 25.2L181.11 71.69C181.11 78.28 186.5 83.68 193.1 83.68L195.04 83.68L190.17 91.43C188.57 93.97 191.34 97 194.02 95.64L215.1 84.89C215.68 84.59 216.09 84.16 216.35 83.68L244.01 83.68C250.6 83.68 256 78.29 256 71.69L256 25.2C256 18.6 250.6 13.21 244.01 13.21Z" fill="#F1FBFF" fill-opacity="1.000000" fill-rule="nonzero"/>
		<rect id="Frame" rx="0.000000" width="50.385780" height="50.385780" transform="translate(198.151840 20.767075)" fill="#FFFFFF" fill-opacity="0"/>
		<g clip-path="url(#clip173_4435)">
			<path id="Vector" d="M199.36 64.94L199.36 31.02C199.36 30.71 199.42 30.39 199.54 30.1C199.66 29.81 199.84 29.55 200.06 29.32C200.28 29.1 200.55 28.93 200.84 28.81C201.13 28.69 201.44 28.63 201.75 28.63L231.85 28.63L227.06 33.41L204.15 33.41L204.15 62.55L233.28 62.55L233.28 50.16L238.07 45.38L238.07 64.89C238.07 65.2 238.01 65.52 237.89 65.81C237.77 66.1 237.59 66.36 237.37 66.58C237.15 66.81 236.88 66.98 236.59 67.1C236.3 67.22 235.99 67.28 235.68 67.28L201.75 67.28C200.42 67.34 199.36 66.27 199.36 64.94ZM220.15 46.6L215.05 41.49C213.61 40.06 211.27 40.06 209.84 41.49C209.14 42.19 208.77 43.09 208.77 44.1C208.77 45.06 209.14 46.01 209.84 46.7L217.55 54.42C218.98 55.85 221.32 55.85 222.76 54.42L246.26 30.91C246.95 30.22 247.32 29.32 247.32 28.31C247.32 27.35 246.95 26.39 246.26 25.7C244.82 24.27 242.48 24.27 241.05 25.7L220.15 46.6Z" fill="#2D4972" fill-opacity="1.000000" fill-rule="nonzero"/>
		</g>
	</g>
</svg>
