<svg width="256" height="262" viewBox="0 0 256 262" fill="none" xmlns="http://www.w3.org/2000/svg">
<g clip-path="url(#clip0_173_4357)">
<path d="M115.275 261.954C163.371 261.954 202.36 258.939 202.36 255.22C202.36 251.502 163.371 248.487 115.275 248.487C67.1787 248.487 28.1892 251.502 28.1892 255.22C28.1892 258.939 67.1787 261.954 115.275 261.954Z" fill="#F8B716"/>
<path d="M116.745 252.696C181.222 252.696 233.49 200.428 233.49 135.951C233.49 71.4745 181.222 19.2059 116.745 19.2059C52.2686 19.2059 0 71.4745 0 135.951C0 200.428 52.2686 252.696 116.745 252.696Z" fill="#CCE3FF"/>
<path d="M99.7509 137.579C89.3007 132.442 80.9076 122.554 76.4461 110.16C76.1684 116.628 77.1339 123.671 79.778 131.048C85.426 135.819 90.8341 139.498 96.0971 142.154C97.0563 141.473 98.1544 140.848 99.366 140.274C99.5048 139.378 99.631 138.475 99.7509 137.579Z" fill="#391E17"/>
<path d="M157.032 106.62C152.766 121.393 143.073 133.13 130.792 138.412C130.83 138.526 130.868 138.639 130.906 138.753C133.077 139.655 134.945 140.848 136.371 142.363C141.912 139.649 147.547 135.869 153.403 131.054C156.489 122.768 157.436 114.495 157.032 106.626V106.62Z" fill="#391E17"/>
<path d="M99.366 140.274C98.1543 140.848 97.05 141.473 96.0971 142.154C95.6617 142.464 95.2515 142.773 94.8792 143.101L98.2868 146.162C98.6907 144.376 99.0504 142.35 99.366 140.274Z" fill="#0E2649"/>
<path d="M130.906 138.753C131.853 141.479 132.9 143.991 133.79 146.004L137.021 143.101C136.819 142.842 136.592 142.603 136.365 142.356C134.938 140.842 133.07 139.649 130.9 138.747L130.906 138.753Z" fill="#0E2649"/>
<path d="M133.79 146.004C132.894 143.991 131.853 141.473 130.906 138.753C130.868 138.639 130.83 138.526 130.792 138.412C126.224 140.375 121.301 141.454 116.171 141.454C110.359 141.454 104.812 140.072 99.7509 137.586C99.631 138.482 99.5048 139.384 99.366 140.28C99.0504 142.356 98.6907 144.382 98.2869 146.168L111.665 158.183L113.773 170.173H118.285L120.229 158.183L133.784 146.01L133.79 146.004Z" fill="#FDCE9F"/>
<path d="M137.318 170.173H171.451C173.092 170.173 174.607 170.653 175.894 171.461C173.363 162.449 171.117 156.038 169.918 155.438C166.618 153.791 148.317 149.929 141.211 148.471C141.382 149.039 141.476 149.645 141.476 150.295C141.476 152.541 139.299 164.405 137.318 170.167V170.173Z" fill="#3D79D0"/>
<path d="M179.598 185.697L174.506 245.414C181.258 242.877 187.316 239.911 188.054 237.235C189.493 232.017 184.722 206.781 179.598 185.697Z" fill="#3D79D0"/>
<path d="M40.7031 236.289C41.5677 238.567 47.3797 242.107 53.2611 245.206L49.1845 197.397C43.6249 214.871 39.0939 232.048 40.7031 236.289Z" fill="#3D79D0"/>
<path d="M90.4238 150.301C90.4238 150.106 90.4301 149.916 90.4491 149.733C82.9332 150.693 66.5636 152.996 64.7273 155.104C64.0583 155.867 61.6225 161.812 58.5366 170.18H94.5825C92.601 164.418 90.4238 152.548 90.4238 150.308V150.301Z" fill="#3D79D0"/>
<path d="M120.235 158.177L118.291 170.167H131.935C127.397 165.712 120.235 158.177 120.235 158.177Z" fill="#3D79D0"/>
<path d="M99.9656 170.173H113.773L111.665 158.183C111.665 158.183 104.503 165.724 99.9656 170.173Z" fill="#3D79D0"/>
<path d="M94.5825 170.173H99.9654C104.503 165.718 111.665 158.183 111.665 158.183L98.2868 146.168L94.8791 143.107C92.6325 145.032 90.6826 146.963 90.4491 149.733C90.4301 149.923 90.4238 150.112 90.4238 150.301C90.4238 152.548 92.601 164.412 94.5825 170.173Z" fill="#27579F"/>
<path d="M120.235 158.177C120.235 158.177 127.397 165.718 131.935 170.167H137.318C139.299 164.405 141.476 152.535 141.476 150.295C141.476 149.645 141.382 149.039 141.211 148.471C140.586 146.345 138.914 144.723 137.021 143.101L133.79 146.004L120.235 158.177Z" fill="#27579F"/>
<path d="M145.831 29.0189C145.831 29.0189 149.554 29.0883 154.066 32.2941C154.261 31.6188 154.432 30.9373 154.564 30.2368C157.108 17.0415 147.894 4.16794 133.986 1.48596C121.238 -0.968843 108.977 5.99169 105.058 17.3254C117.168 15.5269 131.127 19.1366 145.824 29.0126L145.831 29.0189Z" fill="#462822"/>
<path d="M61.4648 253.775V253.958C61.4648 255.088 62.3862 256.009 63.5158 256.009H74.4898C75.6194 256.009 76.5407 255.088 76.5407 253.958V253.782H61.6542C61.5911 253.782 61.5279 253.775 61.4648 253.775Z" fill="#ABC7D5"/>
<path d="M152.444 253.782V253.958C152.444 255.088 153.365 256.009 154.495 256.009H165.469C166.599 256.009 167.52 255.088 167.52 253.958V253.662C167.066 253.737 166.605 253.782 166.132 253.782H152.444Z" fill="#ABC7D5"/>
<path d="M56.3344 174.629H171.458C175.484 174.629 178.791 177.468 179.605 181.185L179.769 179.229C180.046 175.992 178.437 173.07 175.894 171.467C174.613 170.659 173.092 170.18 171.451 170.18H56.3344C51.4437 170.18 47.6069 174.363 48.0234 179.235L48.1875 181.191C49.0015 177.475 52.3083 174.635 56.3344 174.635V174.629Z" fill="#C3D8E3"/>
<path d="M179.769 183.678C179.844 182.82 179.775 181.98 179.605 181.185C178.791 177.468 175.484 174.628 171.458 174.628H56.3344C52.3083 174.628 49.0016 177.468 48.1875 181.185C48.0108 181.98 47.9477 182.82 48.0235 183.678L49.1909 197.397L53.2675 245.206L53.3496 246.146C53.7093 250.399 57.2242 253.674 61.4712 253.769C61.5343 253.769 61.5974 253.775 61.6605 253.775H166.132C166.605 253.775 167.072 253.731 167.52 253.655C171.212 253.031 174.115 249.989 174.443 246.146L174.506 245.414L179.598 185.697L179.769 183.678ZM113.893 203.752C119.667 203.752 124.343 208.428 124.343 214.202C124.343 219.976 119.667 224.652 113.893 224.652C108.119 224.652 103.443 219.976 103.443 214.202C103.443 208.428 108.119 203.752 113.893 203.752Z" fill="white"/>
<path d="M113.893 224.659C119.664 224.659 124.343 219.98 124.343 214.208C124.343 208.437 119.664 203.758 113.893 203.758C108.121 203.758 103.443 208.437 103.443 214.208C103.443 219.98 108.121 224.659 113.893 224.659Z" fill="#C3D8E3"/>
<path d="M116.171 141.454C121.301 141.454 126.224 140.381 130.793 138.412C143.073 133.13 152.766 121.393 157.032 106.62C155.555 78.0014 136.156 54.6334 136.156 54.6334C136.156 54.6334 120.172 70.7442 103.342 73.2243C90.5754 75.1048 77.3296 89.8274 76.4524 110.166C80.914 122.56 89.307 132.449 99.7572 137.586C104.818 140.078 110.365 141.454 116.177 141.454H116.171Z" fill="#FDCE9F"/>
<path d="M76.4461 110.16C77.3232 89.821 90.5691 75.0985 103.335 73.218C120.166 70.7379 136.15 54.6271 136.15 54.6271C136.15 54.6271 155.555 78.0014 157.025 106.613C157.429 114.483 156.483 122.756 153.397 131.042C153.397 131.042 169.798 118.237 169.804 80.6455C169.804 49.6039 161.001 37.2289 154.059 32.2878C149.547 29.0757 145.824 29.0126 145.824 29.0126C131.127 19.1366 117.168 15.5269 105.058 17.3254C84.2396 20.4176 68.8797 39.5007 64.6264 70.3214C57.8931 119.064 79.7717 131.042 79.7717 131.042C77.1339 123.664 76.1621 116.622 76.4397 110.154L76.4461 110.16Z" fill="#59372F"/>
<path d="M151.201 54.8669C150.942 57.5426 150.04 60.1552 148.594 62.4207C147.143 54.6082 143.975 47.1113 139.381 40.624C129.556 48.9224 118.121 55.3087 105.904 59.3159C106.32 57.2839 106.743 55.2519 107.159 53.2199C96.7786 58.1295 87.8744 66.1186 81.8668 75.9063C82.7187 71.7224 83.1352 67.4502 83.1162 63.1842C74.048 73.6534 68.3937 87.0381 67.2074 100.839C67.1064 102.013 66.6205 103.565 65.453 103.452C65.1123 103.42 64.822 103.231 64.5632 102.997C68.3748 124.807 79.7717 131.054 79.7717 131.054C77.1338 123.677 76.162 116.635 76.4397 110.166C77.3168 89.8274 90.5627 75.1049 103.329 73.2243C120.159 70.7443 136.144 54.6334 136.144 54.6334C136.144 54.6334 155.549 78.0077 157.019 106.62C157.423 114.489 156.476 122.762 153.391 131.048C153.391 131.048 162.755 123.734 167.331 103.95C160.294 88.5905 161.802 68.504 151.188 54.8606L151.201 54.8669Z" fill="#4F2E26"/>
<path d="M120.519 21.5851C107.336 17.0351 88.5748 24.002 82.5041 36.9134C82.2201 37.5192 82.9332 38.1376 83.4507 37.6454C88.436 32.9062 93.4466 28.6718 99.9401 26.1413C106.408 23.6234 113.356 23.3394 120.216 23.8127C121.56 23.9073 121.667 21.9826 120.519 21.5851Z" fill="#69423A"/>
<path d="M155.189 37.3552C154.678 37.1343 154.135 37.595 154.413 38.1314C155.467 40.176 157.057 41.9051 158.174 43.9371C159.531 46.4045 160.357 49.0865 161.373 51.699C161.834 52.8791 163.778 52.8223 163.721 51.3835C163.513 46.3161 160.055 39.4629 155.183 37.3552H155.189Z" fill="#69423A"/>
<path d="M136.15 54.6334C136.15 54.6334 120.166 70.7443 103.335 73.2243C90.5691 75.1048 77.3232 89.8274 76.446 110.166C76.9256 111.491 77.4557 112.785 78.0174 114.054C77.4557 102.228 83.7347 90.2375 93.9073 84.1226C103.051 78.6261 114.429 77.8058 123.567 72.2966C127.278 70.0627 130.502 67.1157 133.702 64.1939C140.429 69.5011 144.379 77.5596 147.162 85.6624C149.939 93.7651 151.781 102.215 155.385 109.99C155.492 110.217 155.599 110.438 155.707 110.665C156.192 109.346 156.64 108.002 157.038 106.626C155.561 78.0077 136.163 54.6397 136.163 54.6397L136.15 54.6334Z" fill="#FBBC89"/>
<path d="M108.642 85.1134C108.119 81.4343 103.297 80.5256 100.237 80.7969C97.1635 81.0683 93.4656 82.8857 92.4496 86.0031C92.2224 86.7036 92.967 87.4798 93.6801 87.2337C95.914 86.4575 97.782 85.5614 100.237 85.8959C102.515 86.2051 104.269 87.8585 106.598 87.8017C108.106 87.7638 108.838 86.4827 108.642 85.1134Z" fill="#4F2E26"/>
<path d="M101.329 90.8935C100.925 90.7168 100.464 90.6347 99.9657 90.6663C93.611 91.0575 96.7852 104.55 102.269 100.422C104.926 98.4283 104.427 92.225 101.335 90.8935H101.329Z" fill="#4F2E26"/>
<path d="M99.7511 92.5279C99.0885 92.1367 98.1482 92.3575 97.7696 93.0454C97.7507 93.0769 97.7317 93.1148 97.7128 93.1464C97.3342 93.8405 97.5361 94.724 98.2303 95.1279C98.8613 95.5002 99.8836 95.3235 100.212 94.6104C100.231 94.5725 100.243 94.541 100.262 94.5031C100.59 93.7837 100.471 92.9507 99.7448 92.5216L99.7511 92.5279Z" fill="white"/>
<path d="M124.621 85.1134C125.144 81.4343 129.966 80.5256 133.026 80.7969C136.1 81.0683 139.798 82.8857 140.814 86.0031C141.041 86.7036 140.296 87.4798 139.583 87.2337C137.349 86.4575 135.481 85.5614 133.026 85.8959C130.748 86.2051 128.994 87.8585 126.665 87.8017C125.157 87.7638 124.425 86.4827 124.621 85.1134Z" fill="#4F2E26"/>
<path d="M133.512 90.8935C133.109 90.7168 132.648 90.6347 132.149 90.6663C125.795 91.0575 128.969 104.55 134.453 100.422C137.109 98.4283 136.611 92.225 133.519 90.8935H133.512Z" fill="#4F2E26"/>
<path d="M131.935 92.5279C131.272 92.1367 130.332 92.3575 129.953 93.0454C129.934 93.0769 129.915 93.1148 129.896 93.1464C129.518 93.8405 129.72 94.724 130.414 95.1279C131.045 95.5002 132.067 95.3235 132.395 94.6104C132.414 94.5725 132.427 94.541 132.446 94.5031C132.774 93.7837 132.654 92.9507 131.928 92.5216L131.935 92.5279Z" fill="white"/>
<path d="M116.764 105.282C116.253 105.219 115.95 105.995 116.335 106.31C117.244 107.049 118.115 107.598 118.468 108.79C118.853 110.103 117.616 110.835 116.619 111.252C115.944 111.536 115.521 112.634 116.385 113.031C118.481 114.003 120.557 111.971 120.626 109.857C120.696 107.674 118.948 105.559 116.764 105.276V105.282Z" fill="#F9A96E"/>
<path d="M108.541 120.332C109.911 118.711 125.264 118.597 126.684 120.648C128.104 122.699 124.002 129.325 117.534 129.325C111.066 129.325 106.806 122.383 108.541 120.332Z" fill="#F05C59"/>
<path d="M126.684 120.648C125.264 118.597 109.911 118.711 108.541 120.332C107.671 121.367 108.314 123.639 109.999 125.64C112.271 123.084 115.982 121.904 119.433 122.219C121.775 122.434 124.002 123.235 126.072 124.378C126.962 122.882 127.227 121.437 126.684 120.654V120.648Z" fill="#ED2743"/>
<path d="M140.094 110.236C143.405 110.236 146.089 108.399 146.089 106.134C146.089 103.868 143.405 102.032 140.094 102.032C136.783 102.032 134.099 103.868 134.099 106.134C134.099 108.399 136.783 110.236 140.094 110.236Z" fill="#F48A75"/>
<path d="M91.8185 110.236C95.1295 110.236 97.8135 108.399 97.8135 106.134C97.8135 103.868 95.1295 102.032 91.8185 102.032C88.5075 102.032 85.8235 103.868 85.8235 106.134C85.8235 108.399 88.5075 110.236 91.8185 110.236Z" fill="#F48A75"/>
<path d="M131.077 148.44L133.79 146.004C132.894 143.991 131.853 141.473 130.906 138.753C130.868 138.639 130.83 138.526 130.793 138.412C126.224 140.375 121.301 141.454 116.171 141.454C110.359 141.454 104.812 140.072 99.751 137.586C101.139 139.435 103.102 140.842 105.153 141.946C108.725 143.865 112.65 145.026 116.581 146.023C121.308 147.222 126.211 148.194 131.083 148.446L131.077 148.44Z" fill="#FBBC89"/>
<path d="M113.773 170.173H118.285L118.739 167.39C116.48 164.38 114.145 161.427 111.728 158.543L113.773 170.173Z" fill="#FBBC89"/>
<path d="M133.79 146.004L120.235 158.177C120.235 158.177 121.346 159.344 122.961 161.029C128.319 155.76 132.982 149.79 136.787 143.316L133.79 146.004Z" fill="#1D488A"/>
<path d="M94.9675 143.183C98.5709 148.787 102.629 154.094 107.103 159.029C107.709 159.698 108.327 160.36 108.983 160.985C110.58 159.325 111.665 158.183 111.665 158.183L98.2869 146.168L94.9675 143.189V143.183Z" fill="#1D488A"/>
<path d="M62.2788 160.411C71.5175 156.593 80.9139 153.147 90.4302 150.093C90.4302 149.973 90.4302 149.847 90.4428 149.727C82.9269 150.686 66.5574 152.99 64.721 155.097C64.3613 155.508 63.4841 157.432 62.2788 160.417V160.411Z" fill="#3D79D0"/>
<path d="M169.918 155.438C166.617 153.791 148.317 149.929 141.211 148.471C141.236 148.553 141.255 148.642 141.281 148.73C148.064 151.709 154.937 154.504 161.885 157.091C165.4 158.404 168.952 159.66 172.556 160.707C171.464 157.672 170.543 155.754 169.918 155.438Z" fill="#3D79D0"/>
<path d="M135.204 6.18106C131.998 4.17431 128.022 4.63498 124.457 5.2471C121.737 5.71408 116.512 7.27279 115.748 10.3018C115.698 10.5101 115.811 10.7247 116.026 10.7878C118.285 11.4251 121.15 9.8538 123.422 9.41837C127.12 8.71159 130.748 9.57614 134.409 9.10284C135.885 8.91353 136.63 7.07716 135.197 6.18737L135.204 6.18106Z" fill="#59372F"/>
<path d="M146.417 11.6018C145.944 10.0809 144.423 9.60764 143.073 9.07124C142.019 8.64843 140.53 7.92903 139.438 8.52853C139.249 8.63581 139.078 8.88823 139.104 9.11541C139.23 10.3649 140.542 11.1222 141.489 11.7974C142.637 12.6115 144.013 13.6779 145.496 13.2299C146.165 13.028 146.638 12.3086 146.417 11.6081V11.6018Z" fill="#59372F"/>
<path d="M130.199 234.2C106.743 246.31 79.1784 250.204 53.2673 245.243L53.3431 246.146C53.7028 250.399 57.2177 253.674 61.4647 253.769C61.5278 253.769 61.5909 253.775 61.654 253.775H166.125C166.598 253.775 167.065 253.731 167.514 253.655C171.205 253.031 174.108 249.989 174.436 246.146L174.499 245.414L179.554 186.158C168.233 206.503 150.892 223.504 130.193 234.194L130.199 234.2Z" fill="#DAE6ED"/>
<path d="M109.135 209.841C107.223 209.867 106.207 211.451 105.721 213.117C105.323 214.499 105.317 216.84 106.787 217.61C107.166 217.805 107.746 217.818 108.043 217.446C108.668 216.663 108.762 215.628 109.065 214.688C109.419 213.596 110.371 212.896 110.561 211.703C110.706 210.782 110.176 209.816 109.135 209.829V209.841Z" fill="#DAE6ED"/>
<path d="M116.745 207.986C116.089 207.02 114.934 206.976 113.887 207.26C113.066 207.481 112.019 207.923 111.665 208.756C111.495 209.153 111.583 209.772 112.113 209.86C112.757 209.968 113.363 209.791 114 209.772C114.783 209.747 115.666 209.999 116.348 209.488C116.802 209.147 117.105 208.522 116.739 207.986H116.745Z" fill="#DAE6ED"/>
<path d="M165.463 82.8034C165.646 83.1063 165.81 83.5165 165.974 84.0024C166.554 84.034 167.438 84.1097 168.485 84.318C168.574 74.3599 165.665 36.9825 117.256 36.9825C68.8481 36.9825 65.3332 74.5114 65.2764 84.3811C66.4501 84.1286 67.4472 84.0403 68.0782 84.0024C68.236 83.5228 68.4064 83.1126 68.5894 82.8034C69.2646 81.6675 70.003 80.9103 70.7665 80.4748C72.9879 69.8542 81.9867 44.8455 117.458 44.8455C152.93 44.8455 160.591 68.9265 162.762 80.2224C163.708 80.5632 164.642 81.4025 165.475 82.8034H165.463Z" fill="#31667A"/>
<path d="M68.0782 84.0024C67.4408 84.034 66.4501 84.1287 65.2763 84.3811C60.9536 85.3024 54.2202 88.3756 54.2202 98.5924C54.2202 110.179 63.3958 112.141 67.6175 112.431C65.819 107.85 66.1408 89.8776 68.0719 84.0087L68.0782 84.0024Z" fill="#426677"/>
<path d="M68.5893 82.8035C68.4063 83.1064 68.2422 83.5166 68.0781 84.0025C66.1408 89.8713 65.819 107.844 67.6238 112.425C67.75 112.747 67.8888 113.006 68.0403 113.189C70.4635 116.136 75.5309 116.729 76.5216 112.892C77.5124 109.055 78.6167 88.9941 76.7425 84.2738C75.3479 80.7652 72.9688 79.2191 70.7601 80.4686C69.9965 80.8977 69.2582 81.6612 68.583 82.7971L68.5893 82.8035Z" fill="#6D8D9D"/>
<path d="M159.404 115.233C155.593 123.349 145.136 127.545 138.901 129.388C138.971 129.558 139.034 129.735 139.084 129.924C139.394 131.13 139.312 132.171 138.952 133.073C153.17 130.764 160.035 120.957 162.869 115.296C161.657 115.681 160.414 115.688 159.411 115.233H159.404Z" fill="#31667A"/>
<path d="M179.832 98.5861C179.832 88.1359 172.789 85.1573 168.485 84.318C167.438 84.1097 166.554 84.034 165.974 84.0024C167.911 89.8713 168.233 107.844 166.428 112.425C170.65 112.135 179.825 110.172 179.825 98.5861H179.832Z" fill="#426677"/>
<path d="M165.974 84.0024C165.816 83.5228 165.646 83.1126 165.463 82.8034C164.636 81.4024 163.702 80.5694 162.749 80.2224C160.704 79.484 158.584 81.049 157.309 84.2737C155.435 88.994 156.539 109.055 157.53 112.892C157.833 114.072 158.527 114.823 159.404 115.227C160.408 115.688 161.657 115.675 162.863 115.29C164.043 114.918 165.185 114.192 166.012 113.182C166.163 112.999 166.296 112.741 166.428 112.419C168.227 107.837 167.905 89.8649 165.974 83.9961V84.0024Z" fill="#6D8D9D"/>
<path d="M139.084 129.924C139.034 129.735 138.977 129.558 138.901 129.388C136.863 124.447 125.851 126.106 123.964 128.637C122.014 131.256 121.699 134.304 124.633 136.607C127.101 138.544 137.027 137.857 138.952 133.073C139.318 132.171 139.394 131.123 139.084 129.924Z" fill="#6D8D9D"/>
<path d="M76.0799 113.933C69.5232 105.521 66.6267 94.3833 68.1349 83.832C68.116 83.8888 68.0971 83.9456 68.0781 84.0024C66.1408 89.8712 65.819 107.844 67.6238 112.425C67.75 112.747 67.8888 113.006 68.0403 113.189C70.2174 115.833 74.5086 116.571 76.0862 113.927L76.0799 113.933Z" fill="#457285"/>
<path d="M165.462 82.8035C165.279 82.4942 165.09 82.2229 164.901 81.9705C165.242 88.6596 165.336 95.4246 163.954 101.981C163.001 106.518 161.279 110.967 158.666 114.773C158.893 114.962 159.133 115.12 159.398 115.24C160.401 115.7 161.651 115.688 162.856 115.303C164.036 114.93 165.179 114.205 166.005 113.195C166.157 113.012 166.289 112.753 166.422 112.431C168.22 107.85 167.898 89.8776 165.967 84.0088C165.81 83.5292 165.639 83.119 165.456 82.8098L165.462 82.8035Z" fill="#457285"/>
<path d="M172.183 102.549C170.814 103.603 169.186 104.581 167.52 104.714C167.362 108.102 167.002 110.955 166.428 112.431C170.65 112.141 179.825 110.179 179.825 98.5925C179.825 97.2799 179.712 96.0809 179.51 94.9891C177.446 97.8415 174.972 100.404 172.183 102.549Z" fill="#2F5464"/>
<path d="M54.8071 93.8217C54.4411 95.2037 54.2266 96.7813 54.2266 98.5861C54.2266 110.172 63.4021 112.135 67.6239 112.425C66.9991 110.835 66.6331 107.635 66.4943 103.893C64.1089 103.136 61.8623 101.937 59.9313 100.347C57.7794 98.5735 56.0314 96.3269 54.8008 93.8217H54.8071Z" fill="#2F5464"/>
<path d="M132.433 133.433C129.152 134.335 125.555 134.007 122.475 132.568C122.469 134.007 123.106 135.408 124.633 136.607C127.101 138.545 137.027 137.857 138.952 133.073C139.318 132.171 139.394 131.123 139.085 129.924C139.047 129.785 139.002 129.659 138.952 129.527C137.166 131.369 134.907 132.751 132.433 133.433Z" fill="#457285"/>
<path d="M158.679 116.596C159.196 117.593 159.752 118.572 160.383 119.499C161.43 117.985 162.244 116.54 162.863 115.303C161.651 115.688 160.408 115.694 159.404 115.24C159.184 115.707 158.937 116.161 158.679 116.603V116.596Z" fill="#275669"/>
<path d="M144.379 131.729C143.256 130.682 142.082 129.691 140.851 128.776C140.17 129.003 139.513 129.211 138.901 129.388C138.971 129.558 139.034 129.735 139.084 129.924C139.394 131.13 139.312 132.171 138.952 133.073C140.896 132.758 142.7 132.297 144.379 131.729Z" fill="#275669"/>
<path d="M162.755 80.2288C163.702 80.5695 164.636 81.4088 165.469 82.8098C165.652 83.1127 165.816 83.5229 165.98 84.0088C166.561 84.0403 167.444 84.116 168.492 84.3243C168.511 81.9074 168.353 77.8686 167.413 73.1483C165.576 74.4294 163.797 75.7987 162.093 77.2565C162.364 78.3167 162.585 79.3137 162.755 80.2288Z" fill="#275669"/>
<path d="M66.1977 74.8143C65.4594 78.8467 65.289 82.2544 65.2764 84.3811C66.4501 84.1287 67.4472 84.0403 68.0782 84.0025C68.236 83.5229 68.4064 83.1127 68.5894 82.8035C69.2646 81.6676 70.003 80.9103 70.7665 80.4749C70.8928 79.8754 71.0442 79.2254 71.2146 78.5375C69.5423 77.2943 67.87 76.0512 66.204 74.808L66.1977 74.8143Z" fill="#275669"/>
<path d="M244.01 13.2109H193.103C186.508 13.2109 181.113 18.6065 181.113 25.201V71.6908C181.113 78.2853 186.508 83.6808 193.103 83.6808H195.04L190.175 91.4365C188.578 93.9796 191.348 97.0087 194.024 95.6456L215.101 84.8925C215.688 84.5959 216.092 84.1667 216.357 83.6871H244.01C250.605 83.6871 256 78.2916 256 71.6971V25.201C256 18.6065 250.605 13.2109 244.01 13.2109Z" fill="#F1FBFF"/>
<path d="M199.365 64.9477V31.0247C199.363 30.7101 199.424 30.3983 199.544 30.1074C199.664 29.8164 199.84 29.5521 200.063 29.3296C200.285 29.1072 200.549 28.9309 200.84 28.8112C201.131 28.6914 201.443 28.6304 201.758 28.6317H231.851L227.067 33.4176H204.15V62.5552H233.288V50.1663L238.073 45.3804V64.8942C238.075 65.2088 238.014 65.5205 237.894 65.8115C237.774 66.1024 237.598 66.3667 237.375 66.5892C237.153 66.8117 236.888 66.9879 236.598 67.1077C236.307 67.2275 235.995 67.2885 235.68 67.2871H201.758C200.428 67.3406 199.365 66.2774 199.365 64.9477ZM220.154 46.6037L215.05 41.4997C213.614 40.0639 211.275 40.0639 209.839 41.4997C209.148 42.1903 208.776 43.0945 208.776 44.1047C208.776 45.0619 209.148 46.0191 209.839 46.7097L217.549 54.4202C218.985 55.8559 221.324 55.8559 222.76 54.4202L246.262 30.9187C246.953 30.2275 247.325 29.3234 247.325 28.3137C247.325 27.3565 246.953 26.3993 246.262 25.7082C244.826 24.2724 242.487 24.2724 241.051 25.7082L220.154 46.6037Z" fill="#2D4972"/>
</g>
<defs>
<clipPath id="clip0_173_4357">
<rect width="256" height="262" fill="white"/>
</clipPath>
</defs>
</svg>
