<svg width="682.479980" height="454.580078" viewBox="0 0 682.48 454.58" fill="none" xmlns="http://www.w3.org/2000/svg" xmlns:xlink="http://www.w3.org/1999/xlink">
	<desc>
			Created with Pixso.
	</desc>
	<defs>
		<clipPath id="clip136_588">
			<rect id="empty Ресурс 12 1" rx="0.000000" width="681.479980" height="453.579987" transform="translate(0.500000 0.500000)" fill="white" fill-opacity="0"/>
		</clipPath>
	</defs>
	<g opacity="0.850000">
		<rect id="empty Ресурс 12 1" rx="0.000000" width="681.479980" height="453.579987" transform="translate(0.500000 0.500000)" fill="#FFFFFF" fill-opacity="0"/>
		<g clip-path="url(#clip136_588)">
			<path id="Vector" d="M469.9 414.62C516.68 404.5 562.9 387.67 600.59 358.17C638.3 328.67 666.77 285.28 670.96 237.6C676.99 168.9 631.53 103.65 572.89 67.35C514.25 31.04 444.33 18.43 375.99 9.23C311.19 0.51 244.75 -5.74 180.85 8.14C53.16 35.9 -13.82 142.28 19.43 268.76C44.58 364.39 167.75 399.46 253.45 416.18C324.74 430.09 398.85 430 469.9 414.62Z" fill="#EBF7FC" fill-opacity="1.000000" fill-rule="nonzero"/>
			<path id="Vector" d="M38.08 392.15L38.08 413.21L19.79 413.21L19.79 392.06L38.08 392.15Z" fill="#21255C" fill-opacity="1.000000" fill-rule="nonzero"/>
			<path id="Vector" d="M229.86 392.15L229.86 413.21L178.37 413.21L178.37 392.06L229.86 392.15Z" fill="#21255C" fill-opacity="1.000000" fill-rule="nonzero"/>
			<path id="Vector" d="M192.48 341.12C185.28 341.12 179.33 363.28 178.37 392.06L206.59 392.06C205.63 363.28 199.68 341.12 192.48 341.12Z" fill="#21255C" fill-opacity="1.000000" fill-rule="nonzero"/>
			<path id="Vector" d="M236.65 349.83L194.53 349.83L194.53 450.68L236.65 450.68C243.36 450.68 248.8 428.1 248.8 400.25C248.8 372.4 243.36 349.82 236.65 349.82L236.65 349.83Z" fill="#21255C" fill-opacity="1.000000" fill-rule="nonzero"/>
			<path id="Vector" d="M206.68 400.25C206.68 428.1 201.24 450.68 194.53 450.68C187.82 450.68 182.38 428.1 182.38 400.25C182.38 372.39 187.82 349.82 194.53 349.82C201.24 349.82 206.68 372.39 206.68 400.25Z" fill="#495375" fill-opacity="1.000000" fill-rule="evenodd"/>
			<path id="Vector" d="M197.34 372.2C196.47 370.71 195.53 369.88 194.53 369.88C190.49 369.88 187.21 383.48 187.21 400.26C187.21 417.04 190.49 430.64 194.53 430.64C195.53 430.64 196.47 429.81 197.34 428.32C194.69 423.75 192.83 412.91 192.83 400.27C192.83 387.63 194.69 376.79 197.34 372.22L197.34 372.2Z" fill="#C7D2D7" fill-opacity="1.000000" fill-rule="nonzero"/>
			<path id="Vector" d="M197.34 372.2C194.69 376.77 192.83 387.61 192.83 400.25C192.83 412.89 194.69 423.73 197.34 428.3C199.99 423.73 201.85 412.89 201.85 400.25C201.85 387.61 199.99 376.77 197.34 372.2Z" fill="#99A3B0" fill-opacity="1.000000" fill-rule="nonzero"/>
			<path id="Vector" d="M465.05 349.83L422.93 349.83L422.93 450.68L465.05 450.68C471.76 450.68 477.2 428.1 477.2 400.25C477.2 372.4 471.76 349.82 465.05 349.82L465.05 349.83Z" fill="#21255C" fill-opacity="1.000000" fill-rule="nonzero"/>
			<path id="Vector" d="M435.07 400.25C435.07 428.1 429.63 450.68 422.92 450.68C416.21 450.68 410.77 428.1 410.77 400.25C410.77 372.4 416.21 349.82 422.92 349.82C429.63 349.82 435.07 372.4 435.07 400.25Z" fill="#495375" fill-opacity="1.000000" fill-rule="nonzero"/>
			<path id="Vector" d="M425.73 372.2C424.86 370.71 423.92 369.88 422.92 369.88C418.88 369.88 415.6 383.48 415.6 400.26C415.6 417.04 418.88 430.64 422.92 430.64C423.92 430.64 424.86 429.81 425.73 428.32C423.08 423.75 421.22 412.91 421.22 400.27C421.22 387.63 423.08 376.79 425.73 372.22L425.73 372.2Z" fill="#C7D2D7" fill-opacity="1.000000" fill-rule="nonzero"/>
			<path id="Vector" d="M425.72 372.2C423.08 376.77 421.22 387.61 421.22 400.25C421.22 412.89 423.08 423.73 425.72 428.3C428.38 423.73 430.24 412.89 430.24 400.25C430.24 387.61 428.38 376.77 425.72 372.2Z" fill="#99A3B0" fill-opacity="1.000000" fill-rule="nonzero"/>
			<path id="Vector" d="M33.9 341.12C26.71 341.12 20.75 363.28 19.79 392.06L48.02 392.06C47.05 363.28 41.1 341.12 33.9 341.12Z" fill="#21255C" fill-opacity="1.000000" fill-rule="nonzero"/>
			<path id="Vector" d="M229.86 80.37L519.94 80.37L519.94 392.05L229.86 392.05L229.86 80.37Z" fill="#DF4268" fill-opacity="1.000000" fill-rule="evenodd"/>
			<path id="Vector" d="M507.79 92.52L507.79 379.9L242.01 379.9L242.01 92.52L507.79 92.52Z" fill="#21255C" fill-opacity="1.000000" fill-rule="evenodd"/>
			<path id="Vector" d="M76.03 349.83L33.91 349.83L33.91 450.68L76.03 450.68C82.74 450.68 88.18 428.1 88.18 400.25C88.18 372.4 82.74 349.82 76.03 349.82L76.03 349.83Z" fill="#21255C" fill-opacity="1.000000" fill-rule="nonzero"/>
			<path id="Vector" d="M46.05 400.25C46.05 428.1 40.62 450.68 33.9 450.68C27.19 450.68 21.75 428.1 21.75 400.25C21.75 372.39 27.19 349.82 33.9 349.82C40.62 349.82 46.05 372.39 46.05 400.25Z" fill="#495375" fill-opacity="1.000000" fill-rule="evenodd"/>
			<path id="Vector" d="M36.71 372.2C35.84 370.71 34.9 369.88 33.9 369.88C29.86 369.88 26.58 383.48 26.58 400.26C26.58 417.04 29.86 430.64 33.9 430.64C34.9 430.64 35.84 429.81 36.71 428.32C34.06 423.75 32.21 412.91 32.21 400.27C32.21 387.63 34.06 376.79 36.71 372.22L36.71 372.2Z" fill="#C7D2D7" fill-opacity="1.000000" fill-rule="nonzero"/>
			<path id="Vector" d="M36.71 372.2C34.06 376.77 32.21 387.61 32.21 400.25C32.21 412.89 34.06 423.73 36.71 428.3C39.37 423.73 41.23 412.89 41.23 400.25C41.23 387.61 39.37 376.77 36.71 372.2Z" fill="#99A3B0" fill-opacity="1.000000" fill-rule="nonzero"/>
			<path id="Vector" d="M114.61 80.37L114.61 392.05L178.37 392.05C179.33 363.27 185.28 341.11 192.48 341.11C199.68 341.11 205.63 363.27 206.59 392.05L229.86 392.05L229.86 80.37L114.61 80.37Z" fill="#95CBEE" fill-opacity="1.000000" fill-rule="nonzero"/>
			<path id="Vector" d="M114.61 153.59L62.73 153.59C53.64 153.59 45.93 160.3 44.68 169.3L31.48 264.16L14.93 281.25C9.43 286.92 6.37 294.5 6.37 302.39L6.37 392.06L19.8 392.06C20.76 363.28 26.71 341.12 33.91 341.12C41.11 341.12 47.06 363.28 48.02 392.06L114.61 392.06L114.61 153.59Z" fill="#DF4268" fill-opacity="1.000000" fill-rule="nonzero"/>
			<path id="Vector" d="M229.86 392.06L529.58 392.06L529.58 413.12L229.86 413.12L229.86 392.06Z" fill="#C7D2D7" fill-opacity="1.000000" fill-rule="evenodd"/>
			<path id="Vector" d="M206.68 392.06L229.86 392.06L229.86 413.22L206.68 413.22L206.68 392.06Z" fill="#99A3B0" fill-opacity="1.000000" fill-rule="evenodd"/>
			<path id="Vector" d="M114.61 392.06L114.61 392.15L48.02 392.06L48.02 413.21L114.61 413.21L178.37 413.21L178.37 392.15L114.61 392.06Z" fill="#99A3B0" fill-opacity="1.000000" fill-rule="nonzero"/>
			<path id="Vector" d="M19.79 392.15L19.79 413.21L1.5 413.21L1.5 392.06L19.79 392.15Z" fill="#99A3B0" fill-opacity="1.000000" fill-rule="nonzero"/>
			<path id="Vector" d="M92.64 166.96L62.73 166.96C60.33 166.96 58.25 168.76 57.93 171.15L44.98 264.17L92.64 264.17L92.64 166.96Z" fill="#7DD3E9" fill-opacity="1.000000" fill-rule="nonzero"/>
			<path id="Vector" d="M90.81 252.82C86.14 248.15 79.81 245.53 73.22 245.53L55.58 245.53L64.43 174.75C64.58 173.53 65.62 172.62 66.83 172.62L92.64 172.62L92.64 166.95L62.73 166.95C60.33 166.95 58.25 168.75 57.93 171.14L44.98 264.16L92.64 264.16L92.64 252.82L90.81 252.82Z" fill="#5FA5CC" fill-opacity="1.000000" fill-rule="nonzero"/>
			<path id="Vector" d="M88.17 264.16L88.17 378.88C88.17 380.11 89.17 381.11 90.4 381.11C91.63 381.11 92.63 380.11 92.63 378.88L92.63 264.16L88.17 264.16Z" fill="#A34262" fill-opacity="1.000000" fill-rule="nonzero"/>
			<path id="Vector" d="M13.52 342.94C12.52 342.94 11.71 342.12 11.71 341.12L11.71 303.75C11.71 296.29 14.56 289.24 19.75 283.88C20.45 283.16 21.62 283.14 22.33 283.84C23.06 284.54 23.08 285.69 22.37 286.42C17.85 291.09 15.35 297.25 15.35 303.75L15.35 341.12C15.35 342.13 14.54 342.94 13.54 342.94L13.52 342.94Z" fill="#E36E90" fill-opacity="1.000000" fill-rule="nonzero"/>
			<path id="Vector" d="M25.69 282.18C25.23 282.18 24.78 282.01 24.42 281.67C23.7 280.97 23.68 279.82 24.38 279.09L27.9 275.45C28.6 274.73 29.75 274.71 30.48 275.41C31.2 276.1 31.22 277.26 30.52 277.99L27 281.63C26.64 282 26.17 282.18 25.69 282.18Z" fill="#E36E90" fill-opacity="1.000000" fill-rule="nonzero"/>
			<path id="Vector" d="M250.65 406.34L229.84 406.34L229.84 392.06L264.93 392.06C264.93 399.95 258.54 406.34 250.65 406.34Z" fill="#E8916A" fill-opacity="1.000000" fill-rule="nonzero"/>
			<path id="Vector" d="M508.79 406.34L529.59 406.34L529.59 392.06L494.51 392.06C494.51 399.95 500.9 406.34 508.79 406.34Z" fill="#E8916A" fill-opacity="1.000000" fill-rule="nonzero"/>
			<path id="Vector" d="M229.86 406.34C222.86 406.34 217.18 400.66 217.18 393.66L217.18 392.06L229.86 392.06L229.86 406.34Z" fill="#A34262" fill-opacity="1.000000" fill-rule="nonzero"/>
			<path id="Vector" d="M111.07 161.49L208.88 161.49L208.88 169.69L111.07 169.69L111.07 161.49Z" fill="#FFFFFF" fill-opacity="1.000000" fill-rule="evenodd"/>
			<path id="Vector" d="M111.07 169.69L208.88 169.69L208.88 177.89L111.07 177.89L111.07 169.69Z" fill="#C7D2D7" fill-opacity="1.000000" fill-rule="evenodd"/>
			<path id="Vector" d="M208.88 161.49L208.88 169.69L208.88 177.89L215.67 177.89L215.67 169.69L215.67 161.49L208.88 161.49Z" fill="#99A3B0" fill-opacity="1.000000" fill-rule="nonzero"/>
			<path id="Vector" d="M111.07 249.73L208.88 249.73L208.88 257.93L111.07 257.93L111.07 249.73Z" fill="#FFFFFF" fill-opacity="1.000000" fill-rule="evenodd"/>
			<path id="Vector" d="M111.07 257.94L208.88 257.94L208.88 266.14L111.07 266.14L111.07 257.94Z" fill="#C7D2D7" fill-opacity="1.000000" fill-rule="evenodd"/>
			<path id="Vector" d="M208.88 249.73L208.88 257.94L208.88 266.14L215.67 266.14L215.67 257.94L215.67 249.73L208.88 249.73Z" fill="#99A3B0" fill-opacity="1.000000" fill-rule="nonzero"/>
			<path id="Vector" d="M242.01 92L508.33 92L508.33 138.14L242.01 138.14L242.01 92Z" fill="#F4D071" fill-opacity="1.000000" fill-rule="evenodd"/>
			<path id="Vector" d="M242.01 97.88L508.33 97.88L508.33 103.31L242.01 103.31L242.01 97.88Z" fill="#FBEED1" fill-opacity="1.000000" fill-rule="evenodd"/>
			<path id="Vector" d="M242.01 108.91L508.33 108.91L508.33 114.34L242.01 114.34L242.01 108.91Z" fill="#FBEED1" fill-opacity="1.000000" fill-rule="evenodd"/>
			<path id="Vector" d="M242.01 119.94L508.33 119.94L508.33 125.37L242.01 125.37L242.01 119.94Z" fill="#FBEED1" fill-opacity="1.000000" fill-rule="evenodd"/>
			<path id="Vector" d="M242.01 130.97L508.33 130.97L508.33 136.39L242.01 136.39L242.01 130.97Z" fill="#FBEED1" fill-opacity="1.000000" fill-rule="evenodd"/>
			<path id="Vector" d="M32.2 241.72L42.15 241.72C42.59 241.72 42.93 241.37 42.93 240.93C42.93 240.49 42.59 240.14 42.15 240.14L32.99 240.14L32.99 189.94L45.8 189.94C46.24 189.94 46.59 189.59 46.59 189.15C46.59 188.71 46.24 188.36 45.8 188.36L32.2 188.36C31.76 188.36 31.41 188.71 31.41 189.15L31.41 240.94C31.41 241.38 31.76 241.73 32.2 241.73L32.2 241.72Z" fill="#21255C" fill-opacity="1.000000" fill-rule="nonzero"/>
			<path id="Vector" d="M37.03 234.64L27.37 234.64C25.12 234.64 23.3 232.82 23.3 230.57L23.3 199.5C23.3 197.26 25.12 195.43 27.37 195.43L37.03 195.43C39.27 195.43 41.1 197.25 41.1 199.5L41.1 230.57C41.1 232.81 39.28 234.64 37.03 234.64Z" fill="#21255C" fill-opacity="1.000000" fill-rule="nonzero"/>
			<path id="Vector" d="M35.84 232.34L28.56 232.34C26.68 232.34 25.16 230.81 25.16 228.94L25.16 201.14C25.16 199.26 26.68 197.74 28.56 197.74L35.84 197.74C37.71 197.74 39.24 199.26 39.24 201.14L39.24 228.94C39.24 230.81 37.71 232.34 35.84 232.34Z" fill="#7DD3E9" fill-opacity="1.000000" fill-rule="evenodd"/>
			<path id="Vector" d="M2 452.58L680.48 452.58" stroke="#59595B" stroke-opacity="1.000000" stroke-width="4.000000" stroke-linecap="round"/>
		</g>
	</g>
</svg>
