<svg width="48.000122" height="45.000000" viewBox="0 0 48.0001 45" fill="none" xmlns="http://www.w3.org/2000/svg" xmlns:xlink="http://www.w3.org/1999/xlink">
	<desc>
			Created with Pixso.
	</desc>
	<defs/>
	<path id="Vector" d="M28.49 21.44C28.3 21.44 28.12 21.36 27.98 21.23C27.85 21.09 27.77 20.91 27.77 20.72L27.77 15.27C27.77 15.08 27.85 14.9 27.98 14.76C28.12 14.63 28.3 14.55 28.49 14.55C28.69 14.55 28.87 14.63 29.01 14.76C29.14 14.9 29.22 15.08 29.22 15.27L29.22 20.72C29.22 20.91 29.14 21.09 29.01 21.23C28.87 21.36 28.69 21.44 28.49 21.44Z" fill="#2D4972" fill-opacity="1.000000" fill-rule="nonzero"/>
	<path id="Vector" d="M23.99 23.22C23.8 23.22 23.62 23.14 23.48 23.01C23.35 22.87 23.27 22.69 23.27 22.5L23.27 11.5C23.27 10.66 23.6 9.87 24.19 9.28L25.55 7.91C26.01 7.45 26.27 6.83 26.27 6.18C26.27 4.82 25.17 3.72 23.81 3.72L20.94 3.72C20.75 3.72 20.56 3.64 20.43 3.51C20.29 3.37 20.22 3.19 20.22 3C20.22 2.8 20.29 2.62 20.43 2.48C20.56 2.35 20.75 2.27 20.94 2.27L23.81 2.27C25.97 2.27 27.72 4.02 27.72 6.18C27.72 7.22 27.31 8.2 26.58 8.94L25.21 10.3C25.06 10.46 24.93 10.64 24.85 10.85C24.76 11.05 24.72 11.27 24.72 11.5L24.72 22.5C24.72 22.69 24.64 22.87 24.51 23.01C24.37 23.14 24.19 23.22 23.99 23.22Z" fill="#CBE5E8" fill-opacity="1.000000" fill-rule="nonzero"/>
	<path id="Vector" d="M9 13.5L7.5 12L4.5 13.5L4.5 19.5L6 21L9 19.5L9 13.5Z" fill="#2D4972" fill-opacity="1.000000" fill-rule="nonzero"/>
	<path id="Vector" d="M4.5 13.5L4.5 15.43L9 15.43L9 13.5L7.5 12L4.5 13.5Z" fill="#17263D" fill-opacity="1.000000" fill-rule="nonzero"/>
	<path id="Vector" d="M43.5 19.5L39 21L34.5 19.5L34.5 13.5L43.5 13.5L43.5 19.5Z" fill="#2D4972" fill-opacity="1.000000" fill-rule="nonzero"/>
	<path id="Vector" d="M34.5 16.15C35.75 17.1 37.31 17.65 39 17.65C40.68 17.65 42.24 17.1 43.5 16.15L43.5 13.5L34.5 13.5L34.5 16.15Z" fill="#17263D" fill-opacity="1.000000" fill-rule="nonzero"/>
	<path id="Vector" d="M19.5 4.5L18 3L15 4.5L15 13.5L16.5 15L19.5 13.5L19.5 4.5Z" fill="#A8D3D8" fill-opacity="1.000000" fill-rule="nonzero"/>
	<path id="Vector" d="M15 4.49L15 5.75L19.5 5.75L19.5 4.49L18.23 3.23L17.52 3.23L15 4.49Z" fill="#8EBAC5" fill-opacity="1.000000" fill-rule="nonzero"/>
	<path id="Vector" d="M12 42L9 42L7.5 37.5L10.5 36L13.5 37.5L12 42Z" fill="#17263D" fill-opacity="1.000000" fill-rule="nonzero"/>
	<path id="Vector" d="M9.53 13.5L3.96 13.5C3.43 13.5 3 13.06 3 12.53L3 9.96C3 9.43 3.43 9 3.96 9L9.53 9C10.06 9 10.5 9.43 10.5 9.96L10.5 12.53C10.5 13.06 10.06 13.5 9.53 13.5Z" fill="#FEA95C" fill-opacity="1.000000" fill-rule="nonzero"/>
	<path id="Vector" d="M21 19.5L16.5 21L13.5 19.5L13.5 14.46C13.5 13.93 13.93 13.5 14.46 13.5L20.03 13.5C20.56 13.5 21 13.93 21 14.46L21 19.5ZM22.01 4.5L12 4.5L10.5 3L12 1.5L22.01 1.5C22.08 1.5 22.14 1.51 22.2 1.53C22.26 1.56 22.31 1.59 22.35 1.64C22.4 1.68 22.43 1.73 22.46 1.79C22.48 1.85 22.5 1.91 22.5 1.98L22.5 4.01C22.5 4.08 22.48 4.14 22.46 4.2C22.43 4.26 22.4 4.31 22.35 4.35C22.31 4.4 22.26 4.43 22.2 4.46C22.14 4.48 22.08 4.5 22.01 4.5Z" fill="#678D98" fill-opacity="1.000000" fill-rule="nonzero"/>
	<path id="Vector" d="M30 15C30 15.82 29.32 16.5 28.5 16.5C27.67 16.5 27 15.82 27 15C27 14.17 27.67 13.5 28.5 13.5C29.32 13.5 30 14.17 30 15Z" fill="#CBE5E8" fill-opacity="1.000000" fill-rule="evenodd"/>
	<path id="Vector" d="M46.5 9C46.5 13.14 43.14 16.5 39 16.5C34.85 16.5 31.5 13.14 31.5 9C31.5 4.85 34.85 1.5 39 1.5C43.14 1.5 46.5 4.85 46.5 9Z" fill="#678D98" fill-opacity="1.000000" fill-rule="evenodd"/>
	<path id="Vector" d="M43.52 3.02C44.48 4.28 45.05 5.84 45.05 7.55C45.05 11.69 41.69 15.05 37.55 15.05C35.84 15.05 34.28 14.48 33.02 13.52C34.39 15.33 36.55 16.5 38.99 16.5C43.14 16.5 46.49 13.14 46.49 9C46.49 6.55 45.33 4.39 43.52 3.02Z" fill="#537983" fill-opacity="1.000000" fill-rule="nonzero"/>
	<path id="Vector" d="M43.5 9C43.5 11.48 41.48 13.5 39 13.5C36.51 13.5 34.5 11.48 34.5 9C34.5 6.51 36.51 4.5 39 4.5C41.48 4.5 43.5 6.51 43.5 9Z" fill="#3E5959" fill-opacity="1.000000" fill-rule="evenodd"/>
	<path id="Vector" d="M11.51 6L9.48 6C9.41 6 9.35 5.98 9.29 5.96C9.23 5.93 9.18 5.9 9.14 5.85C9.09 5.81 9.06 5.76 9.03 5.7C9.01 5.64 9 5.58 9 5.51L9 0.48C9 0.41 9.01 0.35 9.03 0.29C9.06 0.23 9.09 0.18 9.14 0.14C9.18 0.09 9.23 0.06 9.29 0.03C9.35 0.01 9.41 0 9.48 0L11.51 0C11.58 0 11.64 0.01 11.7 0.03C11.76 0.06 11.81 0.09 11.85 0.14C11.9 0.18 11.93 0.23 11.96 0.29C11.98 0.35 12 0.41 12 0.48L12 5.51C12 5.58 11.98 5.64 11.96 5.7C11.93 5.76 11.9 5.81 11.85 5.85C11.81 5.9 11.76 5.93 11.7 5.96C11.64 5.98 11.58 6 11.51 6Z" fill="#A8D3D8" fill-opacity="1.000000" fill-rule="nonzero"/>
	<path id="Vector" d="M12.75 42.75C12.75 43.99 11.74 45 10.5 45C9.25 45 8.25 43.99 8.25 42.75C8.25 41.5 9.25 40.5 10.5 40.5C11.74 40.5 12.75 41.5 12.75 42.75Z" fill="#678D98" fill-opacity="1.000000" fill-rule="evenodd"/>
	<path id="Vector" d="M36 42L39 42L40.5 37.5L37.5 36L34.5 37.5L36 42Z" fill="#17263D" fill-opacity="1.000000" fill-rule="nonzero"/>
	<path id="Vector" d="M39.75 42.75C39.75 43.99 38.74 45 37.5 45C36.25 45 35.25 43.99 35.25 42.75C35.25 41.5 36.25 40.5 37.5 40.5C38.74 40.5 39.75 41.5 39.75 42.75Z" fill="#678D98" fill-opacity="1.000000" fill-rule="evenodd"/>
	<path id="Vector" d="M45.06 37.5L2.93 37.5C2.75 37.5 2.57 37.45 2.42 37.35C2.27 37.26 2.14 37.12 2.06 36.96L1.93 36.7C0.66 34.15 0 31.34 0 28.5C0 25.65 0.66 22.84 1.93 20.29L2.06 20.03C2.14 19.87 2.27 19.73 2.42 19.64C2.57 19.54 2.75 19.5 2.93 19.5L45.06 19.5C45.43 19.5 45.76 19.7 45.93 20.03L46.06 20.29C47.33 22.84 47.99 25.65 47.99 28.5C47.99 31.34 47.33 34.15 46.06 36.7L45.93 36.96C45.85 37.12 45.72 37.26 45.57 37.35C45.42 37.45 45.24 37.5 45.06 37.5Z" fill="#2D4972" fill-opacity="1.000000" fill-rule="nonzero"/>
	<path id="Vector" d="M46.06 20.29L45.93 20.03C45.85 19.88 45.74 19.75 45.6 19.66C45.46 19.56 45.3 19.51 45.13 19.5C46.15 21.93 46.63 24.56 46.54 27.19C46.45 29.83 45.79 32.41 44.61 34.77L44.48 35.03C44.4 35.19 44.28 35.32 44.12 35.42C43.97 35.51 43.79 35.56 43.62 35.56L1.41 35.56C1.57 35.95 1.75 36.33 1.93 36.7L2.06 36.96C2.14 37.12 2.27 37.26 2.42 37.35C2.57 37.45 2.75 37.5 2.93 37.5L45.06 37.5C45.43 37.5 45.76 37.29 45.93 36.96L46.06 36.7C47.33 34.15 48 31.34 48 28.5C48 25.65 47.33 22.84 46.06 20.29Z" fill="#17263D" fill-opacity="1.000000" fill-rule="nonzero"/>
	<path id="Vector" d="M20.22 8.22L14.27 8.22C14.08 8.22 13.9 8.14 13.76 8.01C13.63 7.87 13.55 7.69 13.55 7.5C13.55 7.3 13.63 7.12 13.76 6.98C13.9 6.85 14.08 6.77 14.27 6.77L20.22 6.77C20.41 6.77 20.59 6.85 20.73 6.98C20.86 7.12 20.94 7.3 20.94 7.5C20.94 7.69 20.86 7.87 20.73 8.01C20.59 8.14 20.41 8.22 20.22 8.22ZM20.22 11.22L14.27 11.22C14.08 11.22 13.9 11.14 13.76 11.01C13.63 10.87 13.55 10.69 13.55 10.5C13.55 10.3 13.63 10.12 13.76 9.98C13.9 9.85 14.08 9.77 14.27 9.77L20.22 9.77C20.41 9.77 20.59 9.85 20.73 9.98C20.86 10.12 20.94 10.3 20.94 10.5C20.94 10.69 20.86 10.87 20.73 11.01C20.59 11.14 20.41 11.22 20.22 11.22Z" fill="#CBE5E8" fill-opacity="1.000000" fill-rule="nonzero"/>
	<path id="Vector" d="M18.02 1.5L19.47 1.5L19.47 4.5L18.02 4.5L18.02 1.5ZM15.02 1.5L16.47 1.5L16.47 4.5L15.02 4.5L15.02 1.5Z" fill="#537983" fill-opacity="1.000000" fill-rule="nonzero"/>
	<path id="Vector" d="M43.24 8.22L34.75 8.22C34.56 8.22 34.38 8.14 34.24 8.01C34.1 7.87 34.03 7.69 34.03 7.5C34.03 7.3 34.1 7.12 34.24 6.98C34.38 6.85 34.56 6.77 34.75 6.77L43.24 6.77C43.43 6.77 43.61 6.85 43.75 6.98C43.89 7.12 43.96 7.3 43.96 7.5C43.96 7.69 43.89 7.87 43.75 8.01C43.61 8.14 43.43 8.22 43.24 8.22ZM43.24 11.22L34.75 11.22C34.56 11.22 34.38 11.14 34.24 11.01C34.1 10.87 34.03 10.69 34.03 10.5C34.03 10.3 34.1 10.12 34.24 9.98C34.38 9.85 34.56 9.77 34.75 9.77L43.24 9.77C43.43 9.77 43.61 9.85 43.75 9.98C43.89 10.12 43.96 10.3 43.96 10.5C43.96 10.69 43.89 10.87 43.75 11.01C43.61 11.14 43.43 11.22 43.24 11.22Z" fill="#7CA1B1" fill-opacity="1.000000" fill-rule="nonzero"/>
	<path id="Vector" d="M4.49 33.72C4.3 33.72 4.12 33.64 3.98 33.51C3.85 33.37 3.77 33.19 3.77 33L3.77 24C3.77 23.8 3.85 23.62 3.98 23.48C4.12 23.35 4.3 23.27 4.49 23.27C4.69 23.27 4.87 23.35 5.01 23.48C5.14 23.62 5.22 23.8 5.22 24L5.22 33C5.22 33.19 5.14 33.37 5.01 33.51C4.87 33.64 4.69 33.72 4.49 33.72ZM43.49 33.72C43.3 33.72 43.12 33.64 42.98 33.51C42.85 33.37 42.77 33.19 42.77 33L42.77 24C42.77 23.8 42.85 23.62 42.98 23.48C43.12 23.35 43.3 23.27 43.49 23.27C43.69 23.27 43.87 23.35 44.01 23.48C44.14 23.62 44.22 23.8 44.22 24L44.22 33C44.22 33.19 44.14 33.37 44.01 33.51C43.87 33.64 43.69 33.72 43.49 33.72Z" fill="#17263D" fill-opacity="1.000000" fill-rule="nonzero"/>
	<path id="Vector" d="M17.22 16.5C17.22 16.89 16.89 17.22 16.49 17.22C16.09 17.22 15.77 16.89 15.77 16.5C15.77 16.09 16.09 15.77 16.49 15.77C16.89 15.77 17.22 16.09 17.22 16.5Z" fill="#FEA95C" fill-opacity="1.000000" fill-rule="evenodd"/>
	<path id="Vector" d="M11.22 42.75C11.22 43.14 10.89 43.47 10.49 43.47C10.09 43.47 9.77 43.14 9.77 42.75C9.77 42.34 10.09 42.02 10.49 42.02C10.89 42.02 11.22 42.34 11.22 42.75Z" fill="#2D4972" fill-opacity="1.000000" fill-rule="evenodd"/>
	<path id="Vector" d="M38.22 42.75C38.22 43.14 37.89 43.47 37.49 43.47C37.09 43.47 36.77 43.14 36.77 42.75C36.77 42.34 37.09 42.02 37.49 42.02C37.89 42.02 38.22 42.34 38.22 42.75Z" fill="#2D4972" fill-opacity="1.000000" fill-rule="evenodd"/>
</svg>
