<svg width="48.000000" height="47.998535" viewBox="0 0 48 47.9985" fill="none" xmlns="http://www.w3.org/2000/svg" xmlns:xlink="http://www.w3.org/1999/xlink">
	<desc>
			Created with Pixso.
	</desc>
	<defs/>
	<path id="Vector" d="M48 27.3L48 42.2L45.72 42.41C44.84 42.41 44 42.76 43.38 43.38C42.76 44 42.41 44.84 42.41 45.72L42.2 47.99L5.79 47.99L5.58 45.72C5.58 44.84 5.23 44 4.61 43.38C3.99 42.76 3.15 42.41 2.27 42.41L0 42.2L0 27.3L2.27 27.1C3.15 27.1 3.99 26.75 4.61 26.13C5.23 25.51 5.58 24.66 5.58 23.79L5.79 21.51L42.2 21.51L42.41 23.79C42.41 24.66 42.76 25.51 43.38 26.13C44 26.75 44.84 27.1 45.72 27.1L48 27.3Z" fill="#2D4972" fill-opacity="1.000000" fill-rule="nonzero"/>
	<path id="Vector" d="M22.34 34.75C22.34 34.94 22.33 35.12 22.32 35.31C22.22 36.99 21.66 38.6 20.69 39.97C20.28 40.56 19.8 41.1 19.27 41.57C17.6 43.04 15.46 43.85 13.24 43.86C13.05 43.86 12.86 43.85 12.67 43.84C10.36 43.69 8.19 42.67 6.61 40.98C5.02 39.3 4.14 37.07 4.13 34.75C4.13 34.57 4.14 34.39 4.15 34.21C4.3 31.8 5.4 29.55 7.19 27.94C9 26.34 11.37 25.52 13.78 25.67C16.1 25.81 18.27 26.83 19.86 28.52C21.45 30.2 22.34 32.43 22.34 34.75Z" fill="#285680" fill-opacity="1.000000" fill-rule="nonzero"/>
	<path id="Vector" d="M22.32 35.31C22.33 35.12 22.34 34.94 22.34 34.75C22.34 34.22 22.29 33.69 22.2 33.16L21.72 33.68C21.62 33.78 19.35 36.1 15.5 33.79C16.66 33.45 17.69 32.8 18.5 31.9C19.3 31 19.84 29.9 20.05 28.72C19.58 28.18 19.04 27.71 18.46 27.3L18.48 27.99C18.48 28.13 18.46 31.38 14.16 32.47C14.73 31.41 14.99 30.21 14.93 29.01C14.86 27.81 14.47 26.65 13.78 25.67C13.07 25.62 12.35 25.66 11.65 25.79L12.15 26.26C12.26 26.37 14.54 28.67 12.27 32.48C11.92 31.33 11.27 30.3 10.37 29.5C9.48 28.7 8.38 28.16 7.2 27.94C6.66 28.42 6.19 28.95 5.78 29.54L6.47 29.51C6.62 29.51 9.87 29.53 10.95 33.84C9.9 33.27 8.7 33 7.5 33.06C6.3 33.13 5.14 33.52 4.15 34.21C4.11 34.92 4.15 35.63 4.27 36.33L4.75 35.84C4.84 35.73 7.15 33.45 10.96 35.72C9.81 36.06 8.78 36.72 7.97 37.61C7.17 38.51 6.63 39.6 6.42 40.79C6.89 41.32 7.43 41.8 8.01 42.21L7.99 41.52C7.99 41.37 7.96 38.14 12.31 37.04C11.74 38.1 11.47 39.29 11.54 40.49C11.6 41.69 11.99 42.85 12.67 43.84C12.86 43.85 13.05 43.86 13.24 43.86C13.77 43.86 14.3 43.81 14.82 43.72L14.31 43.24C14.2 43.14 11.94 40.84 14.2 37.04C14.54 38.19 15.2 39.22 16.09 40.02C16.99 40.82 18.09 41.36 19.27 41.57C19.8 41.1 20.28 40.56 20.69 39.97L20 40C19.86 40 16.6 39.98 15.52 35.68C16.51 36.17 17.61 36.44 18.72 36.46C20.01 36.46 21.27 36.06 22.32 35.31ZM13.95 34.85L13.79 34.72C13.58 34.99 13.39 35.25 13.2 35.51L13.16 35.18C12.73 35.25 12.33 35.33 11.95 35.42L12.44 34.7L12.8 34.64C12.77 34.48 12.73 34.34 12.71 34.17L12.99 34.39C13.08 34.26 13.15 34.15 13.23 34.02L13.28 34.33C13.48 34.3 13.65 34.26 13.84 34.22L13.62 34.52C13.77 34.64 13.92 34.73 14.06 34.83L13.95 34.85Z" fill="#17263D" fill-opacity="1.000000" fill-rule="nonzero"/>
	<path id="Vector" d="M15.72 34.76C15.72 36.13 14.6 37.24 13.23 37.24C11.86 37.24 10.75 36.13 10.75 34.76C10.75 33.38 11.86 32.27 13.23 32.27C14.6 32.27 15.72 33.38 15.72 34.76Z" fill="#9FC9D3" fill-opacity="1.000000" fill-rule="evenodd"/>
	<path id="Vector" d="M45.51 42.2C44.63 42.2 43.79 42.55 43.17 43.17C42.55 43.79 42.2 44.63 42.2 45.51L42.2 47.99L46.34 47.99C46.78 47.99 47.2 47.82 47.51 47.51C47.82 47.2 47.99 46.78 48 46.34L48 42.2L45.51 42.2ZM45.51 46.34C45.29 46.34 45.08 46.25 44.93 46.1C44.77 45.94 44.68 45.73 44.68 45.51C44.68 45.29 44.77 45.08 44.93 44.93C45.08 44.77 45.29 44.68 45.51 44.68C45.73 44.68 45.94 44.77 46.1 44.93C46.25 45.08 46.34 45.29 46.34 45.51C46.34 45.73 46.25 45.94 46.1 46.1C45.94 46.25 45.73 46.34 45.51 46.34ZM1.65 21.51C1.21 21.51 0.79 21.69 0.48 22C0.17 22.31 0 22.73 0 23.17L0 27.3L2.48 27.3C3.36 27.3 4.2 26.96 4.82 26.33C5.44 25.71 5.79 24.87 5.79 23.99L5.79 21.51L1.65 21.51ZM2.48 24.82C2.26 24.82 2.05 24.73 1.89 24.58C1.74 24.42 1.65 24.21 1.65 23.99C1.65 23.77 1.74 23.56 1.89 23.41C2.05 23.25 2.26 23.17 2.48 23.17C2.7 23.17 2.91 23.25 3.06 23.41C3.22 23.56 3.31 23.77 3.31 23.99C3.31 24.21 3.22 24.42 3.06 24.58C2.91 24.73 2.7 24.82 2.48 24.82ZM2.48 42.2L0 42.2L0 46.34C0 46.78 0.17 47.2 0.48 47.51C0.79 47.82 1.21 47.99 1.65 47.99L5.79 47.99L5.79 45.51C5.79 44.63 5.44 43.79 4.82 43.17C4.2 42.55 3.36 42.2 2.48 42.2ZM2.48 46.34C2.26 46.34 2.05 46.25 1.89 46.1C1.74 45.94 1.65 45.73 1.65 45.51C1.65 45.29 1.74 45.08 1.89 44.93C2.05 44.77 2.26 44.68 2.48 44.68C2.7 44.68 2.91 44.77 3.06 44.93C3.22 45.08 3.31 45.29 3.31 45.51C3.31 45.73 3.22 45.94 3.06 46.1C2.91 46.25 2.7 46.34 2.48 46.34ZM46.34 21.51L42.2 21.51L42.2 23.99C42.2 24.87 42.55 25.71 43.17 26.33C43.79 26.96 44.63 27.3 45.51 27.3L48 27.3L48 23.17C47.99 22.73 47.82 22.31 47.51 22C47.2 21.69 46.78 21.51 46.34 21.51ZM45.51 24.82C45.29 24.82 45.08 24.73 44.93 24.58C44.77 24.42 44.68 24.21 44.68 23.99C44.68 23.77 44.77 23.56 44.93 23.41C45.08 23.25 45.29 23.17 45.51 23.17C45.73 23.17 45.94 23.25 46.1 23.41C46.25 23.56 46.34 23.77 46.34 23.99C46.34 24.21 46.25 24.42 46.1 24.58C45.94 24.73 45.73 24.82 45.51 24.82Z" fill="#BDC3C7" fill-opacity="1.000000" fill-rule="nonzero"/>
	<path id="Vector" d="M43.86 34.75C43.86 34.94 43.85 35.12 43.84 35.31C43.74 36.99 43.17 38.6 42.21 39.97C41.8 40.56 41.32 41.1 40.79 41.57C39.12 43.04 36.98 43.85 34.75 43.86C34.56 43.86 34.38 43.85 34.19 43.84C31.88 43.69 29.71 42.67 28.13 40.98C26.54 39.3 25.65 37.07 25.65 34.75C25.65 34.57 25.66 34.39 25.67 34.21C25.82 31.8 26.91 29.55 28.71 27.94C30.52 26.34 32.89 25.52 35.3 25.67C37.61 25.81 39.79 26.83 41.38 28.52C42.97 30.2 43.85 32.43 43.86 34.75Z" fill="#285680" fill-opacity="1.000000" fill-rule="nonzero"/>
	<path id="Vector" d="M43.84 35.31C43.85 35.12 43.86 34.94 43.86 34.75C43.86 34.22 43.81 33.69 43.72 33.16L43.24 33.68C43.14 33.78 40.87 36.1 37.02 33.79C38.17 33.45 39.21 32.8 40.01 31.9C40.81 31 41.35 29.9 41.56 28.72C41.09 28.18 40.56 27.71 39.98 27.3L39.99 27.99C39.99 28.13 39.98 31.38 35.67 32.47C36.24 31.41 36.51 30.21 36.45 29.01C36.38 27.81 35.98 26.65 35.3 25.67C34.59 25.62 33.87 25.66 33.16 25.79L33.67 26.26C33.78 26.37 36.06 28.67 33.79 32.48C33.44 31.33 32.78 30.3 31.89 29.5C30.99 28.7 29.89 28.16 28.71 27.94C28.18 28.42 27.7 28.95 27.3 29.54L27.98 29.51C28.14 29.51 31.39 29.53 32.47 33.84C31.41 33.27 30.22 33 29.02 33.06C27.82 33.13 26.66 33.52 25.67 34.21C25.62 34.92 25.67 35.63 25.79 36.33L26.26 35.84C26.36 35.73 28.66 33.45 32.48 35.72C31.33 36.06 30.29 36.72 29.49 37.61C28.69 38.51 28.15 39.6 27.93 40.79C28.41 41.32 28.94 41.8 29.53 42.21L29.51 41.52C29.51 41.37 29.47 38.14 33.83 37.04C33.26 38.1 32.99 39.29 33.05 40.49C33.12 41.69 33.51 42.85 34.19 43.84C34.38 43.85 34.56 43.86 34.75 43.86C35.28 43.86 35.81 43.81 36.33 43.72L35.83 43.24C35.72 43.14 33.45 40.84 35.71 37.04C36.06 38.19 36.72 39.22 37.61 40.02C38.51 40.82 39.61 41.36 40.79 41.57C41.32 41.1 41.8 40.56 42.21 39.97L41.51 40C41.37 40 38.12 39.98 37.04 35.68C38.03 36.17 39.12 36.44 40.23 36.46C41.52 36.46 42.78 36.06 43.84 35.31ZM35.47 34.85L35.31 34.72C35.09 34.99 34.9 35.25 34.72 35.51L34.68 35.18C34.25 35.25 33.84 35.33 33.46 35.42L33.96 34.7L34.31 34.64C34.29 34.48 34.25 34.34 34.22 34.17L34.5 34.39C34.6 34.26 34.66 34.15 34.75 34.02L34.79 34.33C34.99 34.3 35.17 34.26 35.36 34.22L35.13 34.52C35.28 34.64 35.43 34.73 35.58 34.83L35.47 34.85Z" fill="#17263D" fill-opacity="1.000000" fill-rule="nonzero"/>
	<path id="Vector" d="M37.23 34.76C37.23 36.13 36.12 37.24 34.75 37.24C33.38 37.24 32.27 36.13 32.27 34.76C32.27 33.38 33.38 32.27 34.75 32.27C36.12 32.27 37.23 33.38 37.23 34.76Z" fill="#9FC9D3" fill-opacity="1.000000" fill-rule="evenodd"/>
	<path id="Vector" d="M36.41 20.68C36.41 22.29 36.07 23.89 35.42 25.36C34.77 26.83 33.82 28.15 32.64 29.24C31.45 30.33 30.04 31.15 28.52 31.67C26.99 32.18 25.38 32.37 23.77 32.22C17.67 31.61 13.08 26.39 13.24 20.26C13.5 11.05 21.98 2.33 24.26 0.22C24.41 0.07 24.61 0 24.82 0C25.03 0 25.23 0.07 25.38 0.22C27.7 2.35 36.41 11.31 36.41 20.68Z" fill="#A4D3F5" fill-opacity="1.000000" fill-rule="nonzero"/>
	<path id="Vector" d="M32.15 21.51L29.87 22.64L26.48 20.68L29.87 18.73L32.15 19.86C32.24 19.9 32.35 19.93 32.46 19.94C32.57 19.95 32.67 19.93 32.78 19.9C32.88 19.86 32.98 19.81 33.06 19.74C33.14 19.67 33.21 19.58 33.25 19.48C33.3 19.38 33.33 19.28 33.34 19.17C33.35 19.06 33.33 18.95 33.3 18.85C33.26 18.75 33.21 18.65 33.14 18.57C33.06 18.49 32.98 18.42 32.88 18.37L31.59 17.73L32.4 17.27C32.59 17.16 32.73 16.98 32.78 16.76C32.84 16.55 32.81 16.33 32.7 16.14C32.59 15.95 32.41 15.81 32.2 15.75C31.99 15.7 31.76 15.72 31.57 15.83L30.76 16.3L30.86 14.87C30.87 14.65 30.8 14.43 30.65 14.27C30.51 14.1 30.3 14 30.08 13.99C29.86 13.97 29.65 14.04 29.48 14.19C29.32 14.33 29.22 14.54 29.2 14.76L29.04 17.29L25.65 19.25L25.65 15.33L27.76 13.93C27.85 13.87 27.93 13.79 27.99 13.7C28.05 13.61 28.1 13.51 28.12 13.4C28.14 13.29 28.14 13.18 28.12 13.08C28.1 12.97 28.05 12.87 27.99 12.78C27.93 12.69 27.86 12.61 27.77 12.55C27.68 12.49 27.57 12.45 27.47 12.43C27.36 12.4 27.25 12.4 27.14 12.43C27.04 12.45 26.94 12.49 26.85 12.55L25.65 13.34L25.65 12.41C25.65 12.19 25.56 11.98 25.41 11.82C25.25 11.67 25.04 11.58 24.82 11.58C24.6 11.58 24.39 11.67 24.24 11.82C24.08 11.98 23.99 12.19 23.99 12.41L23.99 13.34L22.8 12.55C22.62 12.42 22.39 12.38 22.18 12.42C21.96 12.47 21.77 12.59 21.65 12.78C21.53 12.96 21.49 13.18 21.53 13.4C21.57 13.61 21.7 13.8 21.88 13.92L23.99 15.33L23.99 19.25L20.6 17.29L20.44 14.75C20.42 14.53 20.32 14.33 20.16 14.18C19.99 14.04 19.77 13.97 19.56 13.98C19.34 13.99 19.13 14.1 18.99 14.26C18.84 14.43 18.77 14.64 18.78 14.86L18.87 16.3L18.06 15.83C17.87 15.72 17.65 15.69 17.44 15.75C17.23 15.81 17.05 15.94 16.94 16.13C16.83 16.32 16.8 16.55 16.85 16.76C16.91 16.97 17.05 17.15 17.24 17.26L18.05 17.73L16.76 18.37C16.56 18.46 16.41 18.64 16.34 18.85C16.27 19.05 16.28 19.28 16.38 19.48C16.48 19.68 16.65 19.83 16.86 19.9C17.07 19.97 17.3 19.95 17.5 19.86L19.77 18.73L23.17 20.68L19.77 22.64L17.5 21.51C17.3 21.42 17.07 21.41 16.87 21.48C16.66 21.55 16.49 21.7 16.39 21.89C16.3 22.09 16.28 22.31 16.35 22.52C16.42 22.73 16.57 22.9 16.76 23L18.05 23.64L17.24 24.1C17.15 24.16 17.06 24.23 17 24.32C16.93 24.4 16.88 24.5 16.85 24.61C16.82 24.71 16.82 24.82 16.83 24.93C16.84 25.04 16.88 25.14 16.93 25.24C16.99 25.33 17.06 25.41 17.15 25.48C17.23 25.55 17.33 25.6 17.44 25.62C17.54 25.65 17.65 25.66 17.76 25.64C17.87 25.63 17.97 25.59 18.07 25.54L18.88 25.07L18.79 26.5C18.78 26.61 18.79 26.72 18.83 26.83C18.86 26.93 18.92 27.02 18.99 27.11C19.06 27.19 19.15 27.25 19.25 27.3C19.34 27.35 19.45 27.38 19.56 27.39L19.61 27.39C19.82 27.39 20.03 27.31 20.18 27.16C20.33 27.02 20.43 26.82 20.44 26.61L20.61 24.08L23.99 22.12L23.99 26.03L21.88 27.44C21.79 27.5 21.71 27.58 21.65 27.67C21.59 27.76 21.55 27.86 21.53 27.97C21.51 28.07 21.51 28.18 21.53 28.29C21.55 28.4 21.59 28.5 21.65 28.59C21.71 28.68 21.79 28.76 21.88 28.82C21.97 28.88 22.07 28.92 22.18 28.94C22.28 28.96 22.39 28.96 22.5 28.94C22.61 28.92 22.71 28.88 22.8 28.82L23.99 28.02L23.99 28.96C23.99 29.18 24.08 29.39 24.24 29.54C24.39 29.7 24.6 29.79 24.82 29.79C25.04 29.79 25.25 29.7 25.41 29.54C25.56 29.39 25.65 29.18 25.65 28.96L25.65 28.02L26.85 28.82C27.03 28.94 27.25 28.99 27.47 28.94C27.68 28.9 27.87 28.77 27.99 28.59C28.12 28.41 28.16 28.18 28.12 27.97C28.07 27.75 27.95 27.56 27.76 27.44L25.65 26.03L25.65 22.12L29.04 24.08L29.21 26.61C29.22 26.82 29.32 27.02 29.47 27.16C29.62 27.31 29.83 27.39 30.04 27.39L30.09 27.39C30.2 27.38 30.3 27.35 30.4 27.3C30.5 27.25 30.59 27.19 30.66 27.11C30.73 27.02 30.79 26.93 30.82 26.83C30.86 26.72 30.87 26.62 30.86 26.51L30.76 25.07L31.57 25.54C31.67 25.59 31.77 25.63 31.88 25.64C31.99 25.66 32.1 25.65 32.2 25.62C32.31 25.6 32.41 25.55 32.5 25.48C32.58 25.41 32.66 25.33 32.71 25.24C32.76 25.14 32.8 25.04 32.81 24.93C32.83 24.82 32.82 24.71 32.79 24.61C32.76 24.5 32.71 24.4 32.65 24.32C32.58 24.23 32.5 24.16 32.4 24.1L31.59 23.64L32.88 23C33.08 22.9 33.23 22.73 33.3 22.52C33.37 22.31 33.35 22.09 33.25 21.89C33.16 21.69 32.99 21.54 32.78 21.47C32.57 21.4 32.34 21.42 32.15 21.51Z" fill="#2D4972" fill-opacity="1.000000" fill-rule="nonzero"/>
</svg>
