<svg width="44.777954" height="44.250000" viewBox="0 0 44.778 44.25" fill="none" xmlns="http://www.w3.org/2000/svg" xmlns:xlink="http://www.w3.org/1999/xlink">
	<desc>
			Created with Pixso.
	</desc>
	<defs/>
	<path id="Vector" d="M18.07 7.97L26.7 7.97L26.7 13.17L18.07 13.17L18.07 7.97Z" fill="#17263D" fill-opacity="1.000000" fill-rule="nonzero"/>
	<path id="Vector" d="M14.95 12.07L29.82 12.07L29.82 17.61L14.95 17.61L14.95 12.07Z" fill="#17263D" fill-opacity="1.000000" fill-rule="nonzero"/>
	<path id="Vector" d="M22.2 4.5L16.89 4.5L16.89 1.5C16.89 1.1 17.05 0.72 17.33 0.43C17.61 0.15 17.99 0 18.39 0L20.7 0C21.1 0 21.48 0.15 21.76 0.43C22.04 0.72 22.2 1.1 22.2 1.5L22.2 4.5Z" fill="#17263D" fill-opacity="1.000000" fill-rule="nonzero"/>
	<path id="Vector" d="M27.79 9.07L16.98 9.07C16.69 9.07 16.4 8.97 16.17 8.8C15.93 8.62 15.76 8.37 15.68 8.09L14.7 4.74C14.64 4.54 14.62 4.32 14.66 4.11C14.7 3.91 14.79 3.71 14.91 3.54C15.04 3.37 15.2 3.23 15.39 3.14C15.58 3.04 15.79 3 16 3L28.77 3C28.98 3 29.19 3.04 29.38 3.14C29.57 3.23 29.74 3.37 29.86 3.54C29.99 3.71 30.07 3.91 30.11 4.11C30.15 4.32 30.14 4.54 30.08 4.74L29.1 8.09C29.01 8.37 28.84 8.62 28.61 8.8C28.37 8.97 28.08 9.07 27.79 9.07L27.79 9.07ZM15.92 26.85L4.27 28.9C3.88 28.97 3.48 28.88 3.15 28.65C2.83 28.42 2.6 28.08 2.54 27.68C2.5 27.49 2.51 27.29 2.55 27.1C2.59 26.91 2.67 26.72 2.78 26.56C2.9 26.4 3.04 26.26 3.21 26.16C3.37 26.05 3.56 25.98 3.75 25.95L15.4 23.89L15.92 26.85ZM17.92 29.54L6.27 31.59C5.88 31.66 5.53 31.88 5.3 32.21C5.08 32.54 4.99 32.94 5.05 33.33C5.12 33.72 5.35 34.07 5.67 34.3C6 34.53 6.4 34.62 6.79 34.55L18.44 32.49L17.92 29.54ZM28.86 26.85L40.5 28.9C40.89 28.97 41.3 28.88 41.62 28.65C41.95 28.42 42.17 28.07 42.24 27.68C42.31 27.29 42.22 26.89 41.99 26.56C41.76 26.24 41.41 26.01 41.02 25.95L29.38 23.89L28.86 26.85ZM26.34 32.49L37.98 34.55C38.37 34.62 38.78 34.53 39.1 34.3C39.43 34.07 39.65 33.72 39.72 33.33C39.79 32.94 39.7 32.54 39.47 32.21C39.24 31.88 38.9 31.66 38.5 31.59L26.86 29.54L26.34 32.49ZM17.92 35.26L6.27 37.31C5.88 37.38 5.53 37.6 5.3 37.93C5.08 38.25 4.99 38.66 5.05 39.05C5.12 39.44 5.35 39.79 5.67 40.02C6 40.25 6.4 40.34 6.79 40.27L18.44 38.21L17.92 35.26ZM26.34 38.21L37.98 40.27C38.37 40.34 38.78 40.25 39.1 40.02C39.43 39.79 39.65 39.44 39.72 39.05C39.79 38.66 39.7 38.25 39.47 37.93C39.24 37.6 38.9 37.38 38.5 37.31L26.86 35.26L26.34 38.21Z" fill="#2D4972" fill-opacity="1.000000" fill-rule="nonzero"/>
	<path id="Vector" d="M42.96 14.3L35.86 21.39L34.11 41.18L28.59 44.25L15.81 44.25L10.66 41.18L8.92 21.39L1.82 14.31L9.64 6.49L18.27 15.11L26.5 15.11L35.13 6.47L42.96 14.3Z" fill="#CBCBCB" fill-opacity="1.000000" fill-rule="nonzero"/>
	<path id="Vector" d="M1.06 12.94L8.28 5.71C8.87 5.12 9.82 5.12 10.4 5.71C10.99 6.3 10.99 7.25 10.4 7.83L3.18 15.06C2.59 15.64 1.64 15.64 1.06 15.06C0.47 14.47 0.47 13.52 1.06 12.94Z" fill="#2D4972" fill-opacity="1.000000" fill-rule="evenodd"/>
	<path id="Vector" d="M34.37 5.71C34.95 5.13 35.9 5.13 36.49 5.71L43.71 12.94C44.3 13.53 44.3 14.48 43.71 15.06C43.13 15.65 42.18 15.65 41.59 15.06L34.37 7.84C33.78 7.25 33.78 6.3 34.37 5.71Z" fill="#2D4972" fill-opacity="1.000000" fill-rule="evenodd"/>
	<path id="Vector" d="M27.07 18.3L16.12 27.65L23.27 33.98L30.43 21.67L27.07 18.3ZM22.9 31.64L18.4 27.67L26.98 20.34L28.55 21.91L22.9 31.64Z" fill="#544F57" fill-opacity="1.000000" fill-rule="nonzero"/>
	<path id="Vector" d="M23.92 31.5C23.92 34.18 21.75 36.34 19.07 36.34C16.4 36.34 14.23 34.18 14.23 31.5C14.23 28.83 16.4 26.66 19.07 26.66C21.75 26.66 23.92 28.83 23.92 31.5Z" fill="#736E6E" fill-opacity="1.000000" fill-rule="evenodd"/>
	<path id="Vector" d="M19.07 33.34C18.65 33.34 18.23 33.2 17.9 32.93C17.57 32.66 17.35 32.28 17.26 31.86C17.18 31.44 17.25 31.01 17.45 30.63C17.65 30.25 17.97 29.96 18.37 29.8C18.76 29.63 19.2 29.61 19.61 29.74C20.02 29.86 20.37 30.12 20.61 30.48C20.84 30.83 20.95 31.26 20.91 31.68C20.87 32.11 20.68 32.5 20.38 32.8C20.21 32.98 20 33.11 19.78 33.21C19.56 33.3 19.31 33.35 19.07 33.34Z" fill="#FFFFFF" fill-opacity="1.000000" fill-rule="nonzero"/>
	<path id="Vector" d="M31.12 19.98C31.12 21.3 30.06 22.36 28.75 22.36C27.43 22.36 26.37 21.3 26.37 19.98C26.37 18.67 27.43 17.6 28.75 17.6C30.06 17.6 31.12 18.67 31.12 19.98Z" fill="#736E6E" fill-opacity="1.000000" fill-rule="evenodd"/>
	<path id="Vector" d="M11.86 27.76C11.86 29.07 10.8 30.14 9.48 30.14C8.17 30.14 7.11 29.07 7.11 27.76C7.11 26.44 8.17 25.38 9.48 25.38C10.8 25.38 11.86 26.44 11.86 27.76Z" fill="#736E6E" fill-opacity="1.000000" fill-rule="evenodd"/>
	<path id="Vector" d="M16.12 19.74C16.12 20.57 15.44 21.24 14.62 21.24C13.79 21.24 13.12 20.57 13.12 19.74C13.12 18.91 13.79 18.24 14.62 18.24C15.44 18.24 16.12 18.91 16.12 19.74Z" fill="#736E6E" fill-opacity="1.000000" fill-rule="evenodd"/>
	<path id="Vector" d="M31.33 35.38C31.33 36.2 30.65 36.88 29.83 36.88C29 36.88 28.33 36.2 28.33 35.38C28.33 34.55 29 33.88 29.83 33.88C30.65 33.88 31.33 34.55 31.33 35.38Z" fill="#736E6E" fill-opacity="1.000000" fill-rule="evenodd"/>
	<path id="Vector" d="M15.78 39.35C15.78 39.25 15.8 39.15 15.84 39.06C15.87 38.97 15.93 38.89 16 38.82C16.07 38.75 16.15 38.69 16.24 38.65C16.33 38.62 16.43 38.6 16.53 38.6C16.73 38.6 16.92 38.68 17.06 38.82C17.2 38.96 17.28 39.15 17.28 39.35C17.28 39.55 17.2 39.74 17.06 39.88C16.92 40.02 16.73 40.1 16.53 40.1C16.43 40.1 16.33 40.08 16.24 40.04C16.15 40 16.07 39.95 16 39.88C15.93 39.81 15.87 39.73 15.84 39.63C15.8 39.54 15.78 39.45 15.78 39.35ZM12.78 39.35C12.78 39.25 12.8 39.15 12.84 39.06C12.87 38.97 12.93 38.89 13 38.82C13.07 38.75 13.15 38.69 13.24 38.65C13.33 38.62 13.43 38.6 13.53 38.6C13.73 38.6 13.92 38.68 14.06 38.82C14.2 38.96 14.28 39.15 14.28 39.35C14.28 39.55 14.2 39.74 14.06 39.88C13.92 40.02 13.73 40.1 13.53 40.1C13.43 40.1 13.33 40.08 13.24 40.04C13.15 40 13.07 39.95 13 39.88C12.93 39.81 12.87 39.73 12.84 39.63C12.8 39.54 12.78 39.45 12.78 39.35Z" fill="#736E6E" fill-opacity="1.000000" fill-rule="nonzero"/>
</svg>
