<svg width="47.999969" height="40.875244" viewBox="0 0 48 40.8752" fill="none" xmlns="http://www.w3.org/2000/svg" xmlns:xlink="http://www.w3.org/1999/xlink">
	<desc>
			Created with Pixso.
	</desc>
	<defs/>
	<path id="Vector" d="M17.1 28.43L31.95 28.43L31.95 39.44L17.1 39.44L17.1 28.43Z" fill="#AAAAAA" fill-opacity="1.000000" fill-rule="nonzero"/>
	<path id="Vector" d="M16.34 40.87C15.55 40.87 14.91 40.23 14.91 39.44L14.91 29.91L17.78 29.91L17.78 39.44C17.78 40.23 17.13 40.87 16.34 40.87ZM21.44 40.87C20.65 40.87 20.01 40.23 20.01 39.44L20.01 29.91L22.88 29.91L22.88 39.44C22.88 40.23 22.24 40.87 21.44 40.87ZM26.55 40.87C25.75 40.87 25.11 40.23 25.11 39.44L25.11 29.91L27.98 29.91L27.98 39.44C27.98 40.23 27.34 40.87 26.55 40.87ZM31.65 40.87C30.86 40.87 30.21 40.23 30.21 39.44L30.21 29.91L33.08 29.91L33.08 39.44C33.08 40.23 32.44 40.87 31.65 40.87Z" fill="#CBCBCB" fill-opacity="1.000000" fill-rule="nonzero"/>
	<path id="Vector" d="M28.88 24.23C28.88 20.17 32.18 16.87 36.24 16.87C40.3 16.87 43.6 20.17 43.6 24.23C43.6 28.29 40.3 31.59 36.24 31.59C32.18 31.59 28.88 28.29 28.88 24.23ZM31.78 24.23C31.78 26.69 33.78 28.69 36.24 28.69C38.7 28.69 40.7 26.69 40.7 24.23C40.7 21.77 38.7 19.77 36.24 19.77C33.78 19.77 31.78 21.77 31.78 24.23Z" fill="#CBCBCB" fill-opacity="1.000000" fill-rule="nonzero"/>
	<path id="Vector" d="M36.75 28.66C36.92 28.68 37.09 28.69 37.27 28.69C39.73 28.69 41.73 26.69 41.73 24.23C41.73 21.77 39.73 19.77 37.27 19.77C37.09 19.77 36.92 19.78 36.75 19.8C38.97 20.06 40.7 21.95 40.7 24.23C40.7 26.52 38.97 28.41 36.75 28.66Z" fill="#AAAAAA" fill-opacity="1.000000" fill-rule="nonzero"/>
	<path id="Vector" d="M35.39 23.2L24.8 12.6L32.71 4.7L43.3 15.29L35.39 23.2Z" fill="#CBCBCB" fill-opacity="1.000000" fill-rule="nonzero"/>
	<path id="Vector" d="M26.46 15.2L24.33 13.07L32.24 5.16L34.36 7.29L26.46 15.2Z" fill="#AAAAAA" fill-opacity="1.000000" fill-rule="nonzero"/>
	<path id="Vector" d="M47.44 13.2L46.23 14.84L45.36 16.02L43.99 17.88L30.11 4L31.97 2.63L33.15 1.76L34.79 0.55C35.93 -0.29 37.5 -0.17 38.5 0.83L47.16 9.49C48.16 10.49 48.28 12.06 47.44 13.2Z" fill="#2D4972" fill-opacity="1.000000" fill-rule="nonzero"/>
	<path id="Vector" d="M33.68 7.57L30.11 4L34.79 0.55C35.93 -0.29 37.5 -0.17 38.5 0.83L42.07 4.4C41.07 3.4 39.49 3.28 38.36 4.12L33.68 7.57Z" fill="#17263D" fill-opacity="1.000000" fill-rule="nonzero"/>
	<path id="Vector" d="M11.75 31.59C7.69 31.59 4.39 28.29 4.39 24.23C4.39 20.17 7.69 16.87 11.75 16.87C15.81 16.87 19.11 20.17 19.11 24.23C19.11 28.29 15.81 31.59 11.75 31.59ZM11.75 19.77C9.29 19.77 7.29 21.77 7.29 24.23C7.29 26.69 9.29 28.69 11.75 28.69C14.21 28.69 16.21 26.69 16.21 24.23C16.21 21.77 14.21 19.77 11.75 19.77Z" fill="#CBCBCB" fill-opacity="1.000000" fill-rule="nonzero"/>
	<path id="Vector" d="M5.61 24.23C5.61 20.38 8.59 17.21 12.36 16.89C12.16 16.88 11.96 16.87 11.75 16.87C7.69 16.87 4.39 20.17 4.39 24.23C4.39 28.29 7.69 31.59 11.75 31.59C11.96 31.59 12.16 31.59 12.36 31.57C8.59 31.26 5.61 28.09 5.61 24.23Z" fill="#AAAAAA" fill-opacity="1.000000" fill-rule="nonzero"/>
	<path id="Vector" d="M4.69 15.29L15.28 4.69L23.19 12.6L12.59 23.19L4.69 15.29Z" fill="#CBCBCB" fill-opacity="1.000000" fill-rule="nonzero"/>
	<path id="Vector" d="M4.69 15.29L6.82 13.16L14.72 21.06L12.59 23.19L4.69 15.29Z" fill="#AAAAAA" fill-opacity="1.000000" fill-rule="nonzero"/>
	<path id="Vector" d="M26.08 11.32L21.92 11.32L11.32 21.92L14.91 33.07L33.08 33.07L36.67 21.92L26.08 11.32Z" fill="#E2DFE2" fill-opacity="1.000000" fill-rule="nonzero"/>
	<path id="Vector" d="M12.31 16.66C11.76 17.21 10.87 17.21 10.32 16.66L7.77 14.11L9.76 12.12L12.31 14.68C12.86 15.22 12.86 16.11 12.31 16.66ZM16.66 12.31C16.11 12.86 15.22 12.86 14.68 12.31L12.12 9.76L14.11 7.77L16.66 10.32C17.21 10.87 17.21 11.76 16.66 12.31Z" fill="#818181" fill-opacity="1.000000" fill-rule="nonzero"/>
	<path id="Vector" d="M17.88 4L4 17.88L2.63 16.02L1.76 14.84L0.55 13.2C-0.29 12.06 -0.17 10.49 0.83 9.49L9.49 0.83C10.49 -0.17 12.06 -0.29 13.2 0.55L14.84 1.76L16.02 2.63L17.88 4Z" fill="#2D4972" fill-opacity="1.000000" fill-rule="nonzero"/>
	<path id="Vector" d="M7.57 14.31L4 17.88L0.55 13.2C-0.29 12.06 -0.17 10.49 0.83 9.49L4.4 5.92C3.4 6.92 3.28 8.5 4.12 9.63L7.57 14.31Z" fill="#17263D" fill-opacity="1.000000" fill-rule="nonzero"/>
	<path id="Vector" d="M35.68 16.66C36.23 17.21 37.12 17.21 37.67 16.66L40.22 14.11L38.23 12.12L35.68 14.68C35.13 15.22 35.13 16.11 35.68 16.66ZM31.33 12.31C31.88 12.86 32.77 12.86 33.31 12.31L35.87 9.76L33.88 7.77L31.33 10.32C30.78 10.87 30.78 11.76 31.33 12.31Z" fill="#818181" fill-opacity="1.000000" fill-rule="nonzero"/>
	<path id="Vector" d="M16.02 2.63L2.63 16.02L1.76 14.84L14.84 1.76L16.02 2.63ZM46.23 14.84L45.36 16.02L31.97 2.63L33.15 1.76L46.23 14.84Z" fill="#17263D" fill-opacity="1.000000" fill-rule="nonzero"/>
	<path id="Vector" d="M27.37 20.61C27.37 22.48 25.86 23.99 24 23.99C22.13 23.99 20.62 22.48 20.62 20.61C20.62 18.75 22.13 17.24 24 17.24C25.86 17.24 27.37 18.75 27.37 20.61Z" fill="#818181" fill-opacity="1.000000" fill-rule="evenodd"/>
	<path id="Vector" d="M37.63 28.52C37.63 31.03 35.59 33.07 33.08 33.07C30.57 33.07 28.53 31.03 28.53 28.52C28.53 26.01 30.57 23.98 33.08 23.98C35.59 23.98 37.63 26.01 37.63 28.52Z" fill="#818181" fill-opacity="1.000000" fill-rule="evenodd"/>
	<path id="Vector" d="M21.72 31.02C21.72 34.03 19.28 36.47 16.27 36.47C13.25 36.47 10.81 34.03 10.81 31.02C10.81 28.01 13.25 25.57 16.27 25.57C19.28 25.57 21.72 28.01 21.72 31.02Z" fill="#818181" fill-opacity="1.000000" fill-rule="evenodd"/>
	<path id="Vector" d="M17.73 31.02C17.73 31.83 17.07 32.48 16.27 32.48C15.46 32.48 14.8 31.83 14.8 31.02C14.8 30.21 15.46 29.56 16.27 29.56C17.07 29.56 17.73 30.21 17.73 31.02Z" fill="#E2DFE2" fill-opacity="1.000000" fill-rule="evenodd"/>
	<path id="Vector" d="M34.54 28.52C34.54 29.33 33.89 29.98 33.08 29.98C32.27 29.98 31.62 29.33 31.62 28.52C31.62 27.72 32.27 27.06 33.08 27.06C33.89 27.06 34.54 27.72 34.54 28.52Z" fill="#E2DFE2" fill-opacity="1.000000" fill-rule="evenodd"/>
	<path id="Vector" d="M11.99 28.36C11.84 28.36 11.7 28.32 11.58 28.24C11.47 28.16 11.37 28.05 11.32 27.91C11.26 27.78 11.25 27.63 11.28 27.49C11.31 27.35 11.38 27.22 11.48 27.12L21.22 17.59C21.36 17.46 21.55 17.39 21.74 17.39C21.93 17.4 22.11 17.48 22.24 17.61C22.38 17.75 22.45 17.93 22.45 18.12C22.45 18.31 22.37 18.49 22.24 18.63L12.5 28.16C12.36 28.29 12.18 28.36 11.99 28.36ZM34.94 25.1C34.79 25.1 34.64 25.05 34.52 24.96L25.88 18.74C25.72 18.62 25.62 18.46 25.59 18.27C25.56 18.08 25.61 17.89 25.72 17.73C25.83 17.58 26 17.47 26.19 17.44C26.37 17.41 26.57 17.45 26.72 17.56L35.37 23.79C35.49 23.88 35.58 24 35.63 24.15C35.68 24.3 35.68 24.45 35.63 24.6C35.59 24.74 35.49 24.87 35.37 24.96C35.25 25.05 35.1 25.1 34.94 25.1ZM20.01 35.71C19.87 35.71 19.73 35.66 19.61 35.58C19.49 35.5 19.4 35.39 19.34 35.26C19.29 35.12 19.27 34.98 19.3 34.84C19.33 34.69 19.4 34.57 19.5 34.46L29.21 24.95C29.35 24.81 29.53 24.74 29.72 24.74C29.92 24.74 30.1 24.82 30.23 24.96C30.37 25.09 30.44 25.28 30.44 25.47C30.44 25.66 30.36 25.85 30.22 25.98L20.52 35.5C20.38 35.63 20.2 35.71 20.01 35.71Z" fill="#544F57" fill-opacity="1.000000" fill-rule="nonzero"/>
	<path id="Vector" d="M23.99 24.71C21.73 24.71 19.9 22.88 19.9 20.61C19.9 18.35 21.73 16.52 23.99 16.52C26.26 16.52 28.09 18.35 28.09 20.61C28.09 22.88 26.26 24.71 23.99 24.71ZM23.99 17.96C22.53 17.96 21.34 19.15 21.34 20.61C21.34 22.08 22.53 23.27 23.99 23.27C25.46 23.27 26.65 22.08 26.65 20.61C26.65 19.15 25.46 17.96 23.99 17.96ZM33.08 33.79C30.17 33.79 27.81 31.43 27.81 28.52C27.81 25.62 30.17 23.25 33.08 23.25C35.99 23.25 38.35 25.62 38.35 28.52C38.35 31.43 35.99 33.79 33.08 33.79ZM33.08 24.7C30.97 24.7 29.26 26.42 29.26 28.52C29.26 30.63 30.97 32.34 33.08 32.34C35.19 32.34 36.9 30.63 36.9 28.52C36.9 26.42 35.19 24.7 33.08 24.7ZM16.27 37.2C12.86 37.2 10.09 34.43 10.09 31.02C10.09 27.61 12.86 24.84 16.27 24.84C19.67 24.84 22.44 27.61 22.44 31.02C22.44 34.43 19.67 37.2 16.27 37.2ZM16.27 26.29C13.66 26.29 11.54 28.41 11.54 31.02C11.54 33.63 13.66 35.75 16.27 35.75C18.87 35.75 20.99 33.63 20.99 31.02C20.99 28.41 18.87 26.29 16.27 26.29Z" fill="#736E6E" fill-opacity="1.000000" fill-rule="nonzero"/>
</svg>
