<svg width="17.000000" height="17.000000" viewBox="0 0 17 17" fill="none" xmlns="http://www.w3.org/2000/svg" xmlns:xlink="http://www.w3.org/1999/xlink">
	<desc>
			Created with Pixso.
	</desc>
	<defs/>
	<path id="Combined-Shape" d="M0 8.5C0 3.8 3.8 0 8.5 0C13.19 0 17 3.8 17 8.5C17 13.19 13.19 17 8.5 17C3.8 17 0 13.19 0 8.5ZM9.38 13.49L9.38 8.87L10.66 8.87L10.83 7.27L9.38 7.27L9.38 6.48C9.38 6.06 9.42 5.84 10.02 5.84L10.82 5.84L10.82 4.25L9.54 4.25C8.01 4.25 7.47 5.02 7.47 6.32L7.47 7.27L6.51 7.27L6.51 8.87L7.47 8.87L7.47 13.49L9.38 13.49Z" fill="#FFFFFF" fill-opacity="1.000000" fill-rule="evenodd"/>
</svg>
