<svg width="48.000366" height="48.000000" viewBox="0 0 48.0004 48" fill="none" xmlns="http://www.w3.org/2000/svg" xmlns:xlink="http://www.w3.org/1999/xlink">
	<desc>
			Created with Pixso.
	</desc>
	<defs/>
	<path id="Vector" d="M36.52 17.13L36.52 19.39C36.52 19.77 36.38 20.14 36.14 20.44C35.9 20.73 35.56 20.94 35.18 21.01L31.04 21.84C30.76 22.86 30.35 23.84 29.83 24.76L32.17 28.28C32.39 28.59 32.48 28.98 32.44 29.36C32.41 29.74 32.24 30.1 31.97 30.37L30.37 31.97C30.1 32.24 29.74 32.41 29.36 32.45C28.98 32.48 28.59 32.39 28.27 32.17L24.76 29.83C23.84 30.35 22.86 30.76 21.84 31.04L21.01 35.18C20.94 35.56 20.73 35.9 20.44 36.14C20.14 36.38 19.77 36.52 19.38 36.52L17.13 36.52C16.74 36.52 16.37 36.38 16.07 36.14C15.78 35.9 15.57 35.56 15.5 35.18L14.67 31.04C13.65 30.76 12.67 30.35 11.75 29.83L8.24 32.17C7.92 32.39 7.53 32.48 7.15 32.45C6.77 32.41 6.41 32.24 6.14 31.97L4.54 30.37C4.27 30.1 4.1 29.74 4.07 29.36C4.03 28.98 4.12 28.59 4.34 28.28L6.68 24.76C6.16 23.84 5.75 22.86 5.47 21.84L1.33 21.01C0.95 20.94 0.61 20.73 0.37 20.44C0.13 20.14 0 19.77 0 19.39L0 17.13C0 16.74 0.13 16.37 0.37 16.07C0.61 15.78 0.95 15.57 1.33 15.5L5.47 14.67C5.75 13.65 6.16 12.67 6.68 11.75L4.34 8.24C4.12 7.92 4.03 7.53 4.07 7.15C4.1 6.77 4.27 6.41 4.55 6.14L6.14 4.55C6.41 4.27 6.77 4.1 7.15 4.07C7.53 4.03 7.92 4.12 8.24 4.34L11.75 6.68C12.67 6.16 13.65 5.75 14.67 5.47L15.5 1.33C15.57 0.95 15.78 0.61 16.07 0.37C16.37 0.13 16.74 0 17.13 0L19.39 0C19.77 0 20.14 0.13 20.44 0.37C20.73 0.61 20.94 0.95 21.01 1.33L21.84 5.47C22.86 5.75 23.84 6.16 24.76 6.68L28.28 4.34C28.59 4.12 28.98 4.03 29.36 4.07C29.74 4.1 30.1 4.27 30.37 4.55L31.97 6.14C32.24 6.41 32.41 6.77 32.44 7.15C32.48 7.53 32.39 7.92 32.17 8.24L29.83 11.75C30.35 12.67 30.76 13.65 31.04 14.67L35.18 15.5C35.56 15.57 35.9 15.78 36.14 16.07C36.38 16.37 36.52 16.74 36.52 17.13Z" fill="#BFBFBF" fill-opacity="1.000000" fill-rule="nonzero"/>
	<path id="Vector" d="M26.27 18.26C26.27 22.68 22.68 26.27 18.26 26.27C13.83 26.27 10.24 22.68 10.24 18.26C10.24 13.83 13.83 10.24 18.26 10.24C22.68 10.24 26.27 13.83 26.27 18.26Z" fill="#E2E2E2" fill-opacity="1.000000" fill-rule="nonzero"/>
	<path id="Vector" d="M22.24 18.26C22.24 20.46 20.46 22.24 18.26 22.24C16.05 22.24 14.27 20.46 14.27 18.26C14.27 16.05 16.05 14.27 18.26 14.27C20.46 14.27 22.24 16.05 22.24 18.26Z" fill="#6D6D6D" fill-opacity="1.000000" fill-rule="nonzero"/>
	<path id="Vector" d="M19.82 18.26C19.82 20.04 18.66 21.54 17.05 22.05C15.44 21.54 14.27 20.04 14.27 18.26C14.27 16.48 15.44 14.97 17.05 14.46C18.66 14.97 19.82 16.48 19.82 18.26Z" fill="#999999" fill-opacity="1.000000" fill-rule="nonzero"/>
	<path id="Vector" d="M48 35.25L48 36.74C48 36.99 47.91 37.23 47.75 37.43C47.59 37.62 47.37 37.76 47.12 37.81L44.4 38.35C44.21 39.02 43.94 39.66 43.6 40.27L45.14 42.58C45.28 42.79 45.34 43.04 45.32 43.29C45.29 43.54 45.18 43.78 45.01 43.96L43.96 45.01C43.78 45.18 43.54 45.29 43.29 45.32C43.04 45.34 42.79 45.28 42.58 45.14L40.27 43.6C39.67 43.94 39.02 44.21 38.35 44.4L37.81 47.12C37.76 47.37 37.62 47.59 37.43 47.75C37.23 47.91 36.99 48 36.74 48L35.25 48C35 48 34.76 47.91 34.56 47.75C34.37 47.59 34.23 47.37 34.18 47.12L33.64 44.4C32.97 44.21 32.33 43.94 31.72 43.6L29.41 45.14C29.2 45.28 28.95 45.34 28.7 45.32C28.45 45.29 28.21 45.18 28.03 45.01L26.99 43.96C26.81 43.78 26.7 43.54 26.67 43.29C26.65 43.04 26.71 42.79 26.85 42.58L28.39 40.27C28.05 39.66 27.78 39.02 27.59 38.35L24.87 37.81C24.62 37.76 24.4 37.62 24.24 37.43C24.08 37.23 24 36.99 24 36.74L24 35.25C24 35 24.08 34.76 24.24 34.56C24.4 34.37 24.62 34.23 24.87 34.18L27.59 33.64C27.78 32.97 28.05 32.32 28.39 31.72L26.85 29.41C26.71 29.2 26.65 28.95 26.67 28.7C26.7 28.45 26.81 28.21 26.99 28.03L28.03 26.98C28.21 26.81 28.45 26.7 28.7 26.67C28.95 26.65 29.2 26.71 29.41 26.85L31.72 28.39C32.33 28.05 32.97 27.78 33.64 27.59L34.18 24.87C34.23 24.62 34.37 24.4 34.56 24.24C34.76 24.08 35 23.99 35.25 23.99L36.74 23.99C36.99 23.99 37.23 24.08 37.43 24.24C37.62 24.4 37.76 24.62 37.81 24.87L38.35 27.59C39.02 27.78 39.67 28.05 40.27 28.39L42.58 26.85C42.79 26.71 43.04 26.65 43.29 26.67C43.54 26.7 43.78 26.81 43.96 26.98L45.01 28.03C45.18 28.21 45.29 28.45 45.32 28.7C45.34 28.95 45.28 29.2 45.14 29.41L43.6 31.72C43.94 32.33 44.21 32.97 44.4 33.64L47.12 34.18C47.37 34.23 47.59 34.37 47.75 34.56C47.91 34.76 48 35 48 35.25Z" fill="#2D4972" fill-opacity="1.000000" fill-rule="nonzero"/>
	<path id="Vector" d="M42 36C42 39.31 39.31 42 36 42C32.68 42 30 39.31 30 36C30 32.68 32.68 30 36 30C39.31 30 42 32.68 42 36Z" fill="#ABC5FF" fill-opacity="1.000000" fill-rule="nonzero"/>
	<path id="Vector" d="M39.6 36C39.6 37.98 37.98 39.59 36 39.59C34.01 39.59 32.4 37.98 32.4 36C32.4 34.01 34.01 32.39 36 32.39C37.98 32.39 39.6 34.01 39.6 36Z" fill="#5D7EAC" fill-opacity="1.000000" fill-rule="nonzero"/>
	<path id="Vector" d="M37.2 36C37.2 37.56 36.19 38.9 34.8 39.39C33.4 38.9 32.4 37.56 32.4 36C32.4 34.43 33.4 33.09 34.8 32.6C36.19 33.09 37.2 34.43 37.2 36Z" fill="#809DED" fill-opacity="1.000000" fill-rule="nonzero"/>
</svg>
