<svg width="30.824219" height="32.000000" viewBox="0 0 30.8242 32" fill="none" xmlns="http://www.w3.org/2000/svg" xmlns:xlink="http://www.w3.org/1999/xlink">
	<desc>
			Created with Pixso.
	</desc>
	<defs/>
	<path id="Vector" d="M30.3 8.32L0.52 8.32C0.38 8.32 0.25 8.27 0.15 8.17C0.05 8.07 0 7.94 0 7.8L0 6.76C0 6.62 0.05 6.49 0.15 6.4C0.25 6.3 0.38 6.24 0.52 6.24L30.3 6.24C30.44 6.24 30.57 6.3 30.67 6.4C30.76 6.49 30.82 6.62 30.82 6.76L30.82 7.8C30.82 7.94 30.76 8.07 30.67 8.17C30.57 8.27 30.44 8.32 30.3 8.32Z" fill="#C7D1DB" fill-opacity="1.000000" fill-rule="nonzero"/>
	<path id="Vector" d="M3.31 16.78L27.5 16.78L27.5 18.86L3.31 18.86L3.31 16.78Z" fill="#A0A9B7" fill-opacity="1.000000" fill-rule="nonzero"/>
	<path id="Vector" d="M27.5 31.47L27.5 8.32L29.58 8.32L29.58 31.47C29.58 31.61 29.53 31.75 29.43 31.84C29.33 31.94 29.2 32 29.06 32L28.02 32C27.89 32 27.75 31.94 27.66 31.84C27.56 31.75 27.5 31.61 27.5 31.47Z" fill="#C7D1DB" fill-opacity="1.000000" fill-rule="nonzero"/>
	<path id="Vector" d="M29.58 8.32L29.58 10.01L27.5 10.01L27.5 8.32L29.58 8.32Z" fill="#B8C2CC" fill-opacity="1.000000" fill-rule="nonzero"/>
	<path id="Vector" d="M3.31 31.47L3.31 8.32L1.23 8.32L1.23 31.47C1.23 31.61 1.29 31.75 1.38 31.84C1.48 31.94 1.61 32 1.75 32L2.79 32C2.93 32 3.06 31.94 3.16 31.84C3.26 31.75 3.31 31.61 3.31 31.47Z" fill="#C7D1DB" fill-opacity="1.000000" fill-rule="nonzero"/>
	<path id="Vector" d="M3.31 8.32L3.31 10.01L1.23 10.01L1.23 8.32L3.31 8.32Z" fill="#B8C2CC" fill-opacity="1.000000" fill-rule="nonzero"/>
	<path id="Vector" d="M26.85 6.24L21.91 6.24C21.55 6.24 21.26 5.95 21.26 5.59L21.26 1.95C21.26 1.59 21.55 1.3 21.91 1.3L26.85 1.3C27.21 1.3 27.5 1.59 27.5 1.95L27.5 5.59C27.5 5.95 27.21 6.24 26.85 6.24Z" fill="#B6E446" fill-opacity="1.000000" fill-rule="nonzero"/>
	<path id="Vector" d="M26.85 1.3L25.29 1.3C25.65 1.3 25.94 1.59 25.94 1.95L25.94 5.59C25.94 5.95 25.65 6.24 25.29 6.24L26.85 6.24C27.21 6.24 27.5 5.95 27.5 5.59L27.5 1.95C27.5 1.59 27.21 1.3 26.85 1.3Z" fill="#AAD541" fill-opacity="1.000000" fill-rule="nonzero"/>
	<path id="Vector" d="M9.55 0.65L9.55 5.59C9.55 5.95 9.26 6.24 8.9 6.24L3.96 6.24C3.6 6.24 3.31 5.95 3.31 5.59L3.31 0.65C3.31 0.29 3.6 0 3.96 0L5.39 0L5.39 0.26L7.47 0.26L7.47 0L8.9 0C9.26 0 9.55 0.29 9.55 0.65Z" fill="#F1D0A4" fill-opacity="1.000000" fill-rule="nonzero"/>
	<path id="Vector" d="M8.9 0L7.34 0C7.7 0 7.99 0.29 7.99 0.65L7.99 5.59C7.99 5.95 7.7 6.24 7.34 6.24L8.9 6.24C9.26 6.24 9.55 5.95 9.55 5.59L9.55 0.65C9.55 0.29 9.26 0 8.9 0Z" fill="#EDBB87" fill-opacity="1.000000" fill-rule="nonzero"/>
	<path id="Vector" d="M7.13 2.34L6.52 2.11C6.47 2.09 6.4 2.09 6.34 2.11L5.74 2.34C5.57 2.4 5.39 2.27 5.39 2.09L5.39 0L7.47 0L7.47 2.09C7.47 2.27 7.29 2.4 7.13 2.34Z" fill="#C6855B" fill-opacity="1.000000" fill-rule="nonzero"/>
	<path id="Vector" d="M18.53 6.24L12.29 6.24C11.93 6.24 11.64 5.95 11.64 5.59L11.64 2.21C11.64 1.85 11.93 1.56 12.29 1.56L18.53 1.56C18.89 1.56 19.18 1.85 19.18 2.21L19.18 5.59C19.18 5.95 18.89 6.24 18.53 6.24Z" fill="#E075A4" fill-opacity="1.000000" fill-rule="nonzero"/>
	<path id="Vector" d="M18.53 1.56L16.97 1.56C17.33 1.56 17.62 1.85 17.62 2.21L17.62 5.59C17.62 5.95 17.33 6.24 16.97 6.24L18.53 6.24C18.89 6.24 19.18 5.95 19.18 5.59L19.18 2.21C19.18 1.85 18.89 1.56 18.53 1.56Z" fill="#DD5790" fill-opacity="1.000000" fill-rule="nonzero"/>
	<path id="Vector" d="M26.85 16.78L21.91 16.78C21.55 16.78 21.26 16.49 21.26 16.13L21.26 11.19C21.26 10.83 21.55 10.54 21.91 10.54L26.85 10.54C27.21 10.54 27.5 10.83 27.5 11.19L27.5 16.13C27.5 16.49 27.21 16.78 26.85 16.78Z" fill="#F6DF7D" fill-opacity="1.000000" fill-rule="nonzero"/>
	<path id="Vector" d="M26.85 10.54L25.29 10.54C25.65 10.54 25.94 10.83 25.94 11.19L25.94 16.13C25.94 16.49 25.65 16.78 25.29 16.78L26.85 16.78C27.21 16.78 27.5 16.49 27.5 16.13L27.5 11.19C27.5 10.83 27.21 10.54 26.85 10.54Z" fill="#F2CF64" fill-opacity="1.000000" fill-rule="nonzero"/>
	<path id="Vector" d="M9.55 11.19L9.55 16.13C9.55 16.49 9.26 16.78 8.9 16.78L3.96 16.78C3.6 16.78 3.31 16.49 3.31 16.13L3.31 11.19C3.31 10.83 3.6 10.54 3.96 10.54L5.39 10.54L5.39 10.78L7.47 10.78L7.47 10.54L8.9 10.54C9.26 10.54 9.55 10.83 9.55 11.19Z" fill="#F1D0A4" fill-opacity="1.000000" fill-rule="nonzero"/>
	<path id="Vector" d="M8.9 10.54L7.34 10.54C7.7 10.54 7.99 10.83 7.99 11.19L7.99 16.13C7.99 16.49 7.7 16.78 7.34 16.78L8.9 16.78C9.26 16.78 9.55 16.49 9.55 16.13L9.55 11.19C9.55 10.83 9.26 10.54 8.9 10.54Z" fill="#EDBB87" fill-opacity="1.000000" fill-rule="nonzero"/>
	<path id="Vector" d="M7.13 12.88L6.52 12.65C6.47 12.63 6.4 12.63 6.34 12.65L5.74 12.88C5.57 12.94 5.39 12.81 5.39 12.63L5.39 10.54L7.47 10.54L7.47 12.63C7.47 12.81 7.29 12.94 7.13 12.88Z" fill="#C6855B" fill-opacity="1.000000" fill-rule="nonzero"/>
	<path id="Vector" d="M18.53 16.78L12.29 16.78C11.93 16.78 11.64 16.49 11.64 16.13L11.64 12.75C11.64 12.39 11.93 12.1 12.29 12.1L18.53 12.1C18.89 12.1 19.18 12.39 19.18 12.75L19.18 16.13C19.18 16.49 18.89 16.78 18.53 16.78Z" fill="#E59542" fill-opacity="1.000000" fill-rule="nonzero"/>
	<path id="Vector" d="M18.53 12.1L16.97 12.1C17.33 12.1 17.62 12.39 17.62 12.75L17.62 16.13C17.62 16.49 17.33 16.78 16.97 16.78L18.53 16.78C18.89 16.78 19.18 16.49 19.18 16.13L19.18 12.75C19.18 12.39 18.89 12.1 18.53 12.1Z" fill="#E28423" fill-opacity="1.000000" fill-rule="nonzero"/>
	<path id="Vector" d="M3.31 27.18L27.5 27.18L27.5 29.26L3.31 29.26L3.31 27.18Z" fill="#A0A9B7" fill-opacity="1.000000" fill-rule="nonzero"/>
	<path id="Vector" d="M27.5 21.6L27.5 26.54C27.5 26.62 27.49 26.71 27.45 26.79C27.42 26.87 27.37 26.94 27.31 27C27.25 27.06 27.18 27.11 27.1 27.14C27.02 27.17 26.94 27.19 26.85 27.19L21.91 27.19C21.55 27.19 21.26 26.9 21.26 26.54L21.26 21.6C21.26 21.24 21.55 20.95 21.91 20.95L23.34 20.95L23.34 21.21L25.42 21.21L25.42 20.95L26.85 20.95C27.21 20.95 27.5 21.24 27.5 21.6Z" fill="#F1D0A4" fill-opacity="1.000000" fill-rule="nonzero"/>
	<path id="Vector" d="M26.85 20.94L25.29 20.94C25.65 20.94 25.94 21.24 25.94 21.59L25.94 26.54C25.94 26.9 25.65 27.19 25.29 27.19L26.85 27.19C27.21 27.19 27.5 26.9 27.5 26.54L27.5 21.59C27.5 21.24 27.21 20.94 26.85 20.94Z" fill="#EDBB87" fill-opacity="1.000000" fill-rule="nonzero"/>
	<path id="Vector" d="M25.07 23.28L24.47 23.05C24.41 23.03 24.35 23.03 24.29 23.05L23.69 23.28C23.52 23.34 23.34 23.22 23.34 23.04L23.34 20.94L25.42 20.94L25.42 23.04C25.42 23.22 25.24 23.34 25.07 23.28Z" fill="#C6855B" fill-opacity="1.000000" fill-rule="nonzero"/>
	<path id="Vector" d="M7.6 27.19L3.96 27.19C3.6 27.19 3.31 26.9 3.31 26.54L3.31 21.59C3.31 21.24 3.6 20.94 3.96 20.94L7.6 20.94C7.96 20.94 8.25 21.24 8.25 21.59L8.25 26.54C8.25 26.9 7.96 27.19 7.6 27.19Z" fill="#4172CA" fill-opacity="1.000000" fill-rule="nonzero"/>
	<path id="Vector" d="M7.6 20.94L6.04 20.94C6.4 20.94 6.69 21.24 6.69 21.59L6.69 26.54C6.69 26.9 6.4 27.19 6.04 27.19L7.6 27.19C7.96 27.19 8.25 26.9 8.25 26.54L8.25 21.59C8.25 21.24 7.96 20.94 7.6 20.94Z" fill="#3A67C1" fill-opacity="1.000000" fill-rule="nonzero"/>
	<path id="Vector" d="M18.53 27.19L12.29 27.19C11.93 27.19 11.64 26.9 11.64 26.54L11.64 21.59C11.64 21.23 11.93 20.94 12.29 20.94L18.53 20.94C18.89 20.94 19.18 21.23 19.18 21.59L19.18 26.54C19.18 26.9 18.89 27.19 18.53 27.19Z" fill="#75CFF9" fill-opacity="1.000000" fill-rule="nonzero"/>
	<path id="Vector" d="M18.53 20.94L16.97 20.94C17.33 20.94 17.62 21.23 17.62 21.59L17.62 26.54C17.62 26.9 17.33 27.19 16.97 27.19L18.53 27.19C18.89 27.19 19.18 26.9 19.18 26.54L19.18 21.59C19.18 21.23 18.89 20.94 18.53 20.94Z" fill="#6CBFF8" fill-opacity="1.000000" fill-rule="nonzero"/>
</svg>
