<svg width="30.609375" height="29.171875" viewBox="0 0 30.6094 29.1719" fill="none" xmlns="http://www.w3.org/2000/svg" xmlns:xlink="http://www.w3.org/1999/xlink">
	<desc>
			Created with Pixso.
	</desc>
	<defs/>
	<path id="Vector" d="M7.98 9.87C7.92 9.03 7.99 8.23 7.99 8.23C7.83 8.09 7.56 7.83 7.26 7.61C6.76 7.25 6.19 6.99 5.91 7.44C5.65 7.85 6.03 8.79 6.1 9.23C6.31 10.52 6.49 11.68 7.98 9.87L7.98 9.87Z" fill="#F9C795" fill-opacity="1.000000" fill-rule="evenodd"/>
	<path id="Vector" d="M7.31 8.2C7.3 8.15 7.28 8.1 7.24 8.05C7.21 8.01 7.17 7.97 7.12 7.94C7.07 7.91 7.02 7.89 6.96 7.89C6.91 7.88 6.85 7.88 6.8 7.9C6.74 7.91 6.69 7.93 6.65 7.97C6.6 8 6.57 8.04 6.54 8.09C6.51 8.14 6.5 8.19 6.49 8.25C6.48 8.3 6.49 8.36 6.5 8.41C6.56 8.65 6.61 8.84 6.64 9.04C6.68 9.24 6.7 9.43 6.73 9.67C6.74 9.78 6.8 9.88 6.89 9.95C6.98 10.01 7.09 10.04 7.2 10.03C7.31 10.02 7.41 9.96 7.47 9.88C7.54 9.79 7.58 9.68 7.56 9.57C7.54 9.32 7.51 9.11 7.47 8.9C7.43 8.68 7.38 8.47 7.31 8.2Z" fill="#EDB47C" fill-opacity="1.000000" fill-rule="evenodd"/>
	<path id="Vector" d="M17.39 9.87C17.45 9.03 17.38 8.23 17.38 8.23C17.54 8.09 17.81 7.83 18.11 7.61C18.61 7.25 19.18 6.99 19.46 7.44C19.72 7.85 19.34 8.79 19.27 9.23C19.06 10.52 18.88 11.68 17.39 9.87Z" fill="#F9C795" fill-opacity="1.000000" fill-rule="evenodd"/>
	<path id="Vector" d="M18.06 8.2C18.07 8.15 18.1 8.1 18.13 8.05C18.16 8.01 18.2 7.97 18.25 7.94C18.3 7.91 18.35 7.89 18.41 7.89C18.46 7.88 18.52 7.88 18.57 7.9C18.63 7.91 18.68 7.93 18.72 7.97C18.77 8 18.8 8.04 18.83 8.09C18.86 8.14 18.88 8.19 18.88 8.25C18.89 8.3 18.89 8.36 18.87 8.41C18.81 8.65 18.77 8.84 18.73 9.04C18.69 9.24 18.67 9.43 18.64 9.67C18.63 9.78 18.57 9.88 18.48 9.95C18.39 10.01 18.28 10.04 18.17 10.03C18.06 10.02 17.96 9.96 17.9 9.88C17.83 9.79 17.79 9.68 17.81 9.57C17.84 9.32 17.86 9.11 17.9 8.9C17.94 8.68 17.99 8.47 18.06 8.2Z" fill="#EDB47C" fill-opacity="1.000000" fill-rule="evenodd"/>
	<path id="Vector" d="M12.68 20.08L9.35 17.11C9.69 16.31 9.86 14.66 9.87 12.17L15.5 12.17C15.51 14.66 15.68 16.31 16.02 17.11L12.68 20.08Z" fill="#EDBB8A" fill-opacity="1.000000" fill-rule="evenodd"/>
	<path id="Vector" d="M12.68 20.08L10.48 18.11C10.73 17.22 10.86 15.7 10.86 13.56L15.53 13.56C15.58 15.29 15.75 16.47 16.02 17.11L12.68 20.08Z" fill="#F9C795" fill-opacity="1.000000" fill-rule="evenodd"/>
	<path id="Vector" d="M7.26 7.61C7.41 9.39 7.91 12.3 9.1 13.61C9.57 14.12 10.92 15.58 11.62 15.85C12.06 16.03 12.22 15.87 12.68 15.87C13.15 15.87 13.31 16.03 13.75 15.85C14.45 15.58 15.8 14.12 16.27 13.61C17.46 12.3 17.95 9.39 18.11 7.61C18.11 3.71 15.4 1.98 12.68 1.96C9.97 1.98 7.26 3.71 7.26 7.61Z" fill="#F2CB9F" fill-opacity="1.000000" fill-rule="evenodd"/>
	<path id="Vector" d="M10.09 14.64C10.62 15.17 11.22 15.7 11.62 15.86C12.06 16.03 12.22 15.87 12.68 15.87C13.15 15.87 13.31 16.03 13.75 15.86C14.45 15.58 15.8 14.12 16.27 13.61C17.46 12.3 17.95 9.39 18.11 7.61C18.11 5.02 16.92 3.39 15.32 2.58C14.81 2.43 14.28 2.36 13.75 2.35C11.03 2.38 8.32 4.21 8.32 8.36C8.47 10.21 8.95 13.2 10.09 14.64L10.09 14.64Z" fill="#FDD7AD" fill-opacity="1.000000" fill-rule="evenodd"/>
	<path id="Vector" d="M25.38 26.06L25.38 23.8C25.38 20.3 22.37 19.69 18.01 17.89L16.25 16.49L12.69 19.68L9.12 16.49L7.36 17.89C3 19.69 0 20.3 0 23.8L0 26.06L25.38 26.06Z" fill="#4F5D99" fill-opacity="1.000000" fill-rule="evenodd"/>
	<path id="Vector" d="M20.42 18.84C20.22 18.77 20.02 18.69 19.82 18.61L16.72 26.06L17.41 26.06L20.42 18.84L20.42 18.84Z" fill="#45518A" fill-opacity="1.000000" fill-rule="evenodd"/>
	<path id="Vector" d="M8.65 26.06L5.55 18.61L7.36 17.89L9.12 16.49L12.68 19.68L16.25 16.49L18.01 17.89L19.82 18.61L16.72 26.06L12.68 26.06L8.65 26.06Z" fill="#E7EBF5" fill-opacity="1.000000" fill-rule="evenodd"/>
	<path id="Vector" d="M12.69 19.68L14.38 21.42L13.62 22.57L14.04 26.06L11.33 26.06L11.75 22.57L10.99 21.42L12.69 19.68Z" fill="#6A75AD" fill-opacity="1.000000" fill-rule="evenodd"/>
	<path id="Vector" d="M12.69 19.68L14.38 21.42L13.62 22.57L14.04 26.06L12.03 26.06L12.36 22.57L11.6 21.42L12.69 19.68Z" fill="#7986BF" fill-opacity="1.000000" fill-rule="evenodd"/>
	<path id="Vector" d="M12.68 19.68L14.38 21.42L13.62 22.57L11.75 22.57L10.99 21.42L12.68 19.68Z" fill="#45518A" fill-opacity="1.000000" fill-rule="evenodd"/>
	<path id="Vector" d="M12.99 19.99L14.38 21.42L13.62 22.57L12.36 22.57L11.6 21.42L12.99 19.99Z" fill="#4F5D99" fill-opacity="1.000000" fill-rule="evenodd"/>
	<path id="Vector" d="M12.87 19.86L10.12 22.68L7.36 17.89L10.16 22.27L12.68 19.68L12.87 19.86Z" fill="#D6DBE8" fill-opacity="1.000000" fill-rule="evenodd"/>
	<path id="Vector" d="M12.68 19.68L10.16 22.26L7.36 17.89L9.12 16.49L12.68 19.68ZM12.68 19.68L15.21 22.26L18.01 17.89L16.25 16.49L12.68 19.68Z" fill="#FFFFFF" fill-opacity="1.000000" fill-rule="evenodd"/>
	<path id="Vector" d="M4.95 18.84C5.15 18.77 5.35 18.69 5.55 18.61L8.65 26.06L7.96 26.06L4.95 18.84L4.95 18.84Z" fill="#45518A" fill-opacity="1.000000" fill-rule="evenodd"/>
	<path id="Vector" d="M12.68 20.05L15.25 22.68L18.01 17.89L15.21 22.27L12.68 19.68L12.68 20.05Z" fill="#C7CEE0" fill-opacity="1.000000" fill-rule="evenodd"/>
	<path id="Vector" d="M7.25 7.62C4.09 -0.28 14.51 -1.49 15.91 1.48C16.89 1.32 21.24 0.28 18.12 7.62C18.1 7.1 17.87 6.16 17.36 5.52C17.35 5.64 17.26 6.03 16.76 6.5C16.61 5.6 16.14 4.7 15.52 4.57C14.63 6.82 9.53 3.3 7.25 7.62Z" fill="#2C3033" fill-opacity="1.000000" fill-rule="evenodd"/>
	<path id="Vector" d="M27.32 21.03L27.72 29.17L25.53 27.34L23.35 29.17L23.75 21.03L27.32 21.03Z" fill="#E68207" fill-opacity="1.000000" fill-rule="evenodd"/>
	<path id="Vector" d="M27.32 21.03L27.68 28.36L26 26.96L25.53 27.34L24.01 28.62L24.38 21.03L27.32 21.03Z" fill="#FDA02F" fill-opacity="1.000000" fill-rule="evenodd"/>
	<path id="Vector" d="M26.64 14.33C26.93 14.75 27.41 14.95 27.91 14.86C28.38 14.78 28.77 14.87 29.12 15.21C29.46 15.56 29.55 15.95 29.47 16.42C29.39 16.92 29.58 17.4 30 17.7C30.39 17.97 30.6 18.31 30.6 18.8C30.6 19.29 30.39 19.62 30 19.9C29.58 20.2 29.39 20.67 29.47 21.18C29.55 21.65 29.46 22.04 29.12 22.38C28.77 22.73 28.38 22.81 27.91 22.73C27.41 22.65 26.93 22.85 26.64 23.26C26.36 23.65 26.02 23.87 25.53 23.87C25.05 23.87 24.71 23.65 24.43 23.26C24.14 22.85 23.66 22.65 23.16 22.73C22.69 22.81 22.29 22.73 21.95 22.38C21.6 22.04 21.52 21.65 21.6 21.18C21.68 20.67 21.49 20.2 21.07 19.9C20.68 19.62 20.46 19.29 20.46 18.8C20.46 18.31 20.68 17.97 21.07 17.7C21.49 17.4 21.68 16.92 21.6 16.42C21.52 15.95 21.6 15.56 21.95 15.21C22.29 14.87 22.69 14.78 23.16 14.86C23.66 14.95 24.14 14.75 24.43 14.33C24.71 13.95 25.05 13.73 25.53 13.73C26.02 13.73 26.36 13.95 26.64 14.33L26.64 14.33Z" fill="#F9AC00" fill-opacity="1.000000" fill-rule="evenodd"/>
	<path id="Vector" d="M26.64 14.33C26.93 14.75 27.41 14.95 27.91 14.86C28.38 14.78 28.77 14.87 29.12 15.21C29.46 15.56 29.55 15.95 29.47 16.42C29.39 16.92 29.58 17.4 30 17.7C30.39 17.97 30.6 18.31 30.6 18.8C30.6 19.29 30.39 19.62 30 19.9C29.58 20.2 29.39 20.67 29.47 21.18C29.55 21.65 29.46 22.04 29.12 22.38C28.77 22.73 28.38 22.81 27.91 22.74C27.41 22.65 26.93 22.85 26.64 23.26C26.42 23.57 26.16 23.77 25.82 23.84C25.48 23.77 25.22 23.57 25 23.26C24.71 22.85 24.23 22.65 23.73 22.74C23.7 22.74 23.68 22.74 23.66 22.75C23.5 22.71 23.33 22.71 23.16 22.74L23.15 22.74C22.92 22.69 22.71 22.58 22.52 22.38C22.17 22.04 22.09 21.65 22.17 21.18C22.25 20.67 22.06 20.2 21.64 19.9C21.25 19.62 21.03 19.29 21.03 18.8C21.03 18.31 21.25 17.97 21.64 17.7C22.06 17.4 22.25 16.92 22.17 16.42C22.09 15.95 22.17 15.56 22.52 15.21C22.71 15.02 22.92 14.91 23.15 14.86L23.16 14.86C23.33 14.89 23.5 14.89 23.66 14.85C23.68 14.86 23.7 14.86 23.73 14.86C24.23 14.95 24.71 14.75 25 14.33C25.22 14.03 25.48 13.83 25.82 13.76C26.16 13.83 26.42 14.03 26.64 14.33Z" fill="#FDC72E" fill-opacity="1.000000" fill-rule="evenodd"/>
	<path id="Vector" d="M27.64 18.8C27.64 19.71 26.9 20.45 25.99 20.45C25.08 20.45 24.34 19.71 24.34 18.8C24.34 17.89 25.08 17.15 25.99 17.15C26.9 17.15 27.64 17.89 27.64 18.8Z" fill="#F9AC00" fill-opacity="1.000000" fill-rule="evenodd"/>
	<path id="Vector" d="M27.18 18.8C27.18 19.71 26.45 20.45 25.53 20.45C24.62 20.45 23.89 19.71 23.89 18.8C23.89 17.89 24.62 17.15 25.53 17.15C26.45 17.15 27.18 17.89 27.18 18.8Z" fill="#FFFFFF" fill-opacity="1.000000" fill-rule="evenodd"/>
</svg>
