<svg width="32.798828" height="48.000000" viewBox="0 0 32.7988 48" fill="none" xmlns="http://www.w3.org/2000/svg" xmlns:xlink="http://www.w3.org/1999/xlink">
	<desc>
			Created with Pixso.
	</desc>
	<defs/>
	<path id="Vector" d="M10.15 8.35L22.45 8.35L22.45 20.65L10.15 20.65L10.15 8.35Z" fill="#C8EFFE" fill-opacity="1.000000" fill-rule="nonzero"/>
	<path id="Vector" d="M20.62 9.21L22.45 9.21L22.45 19.35L20.62 19.35L20.62 9.21Z" fill="#99E6FC" fill-opacity="1.000000" fill-rule="nonzero"/>
	<path id="Vector" d="M28.6 3.34L28.6 8.33C28.6 8.81 28.21 9.21 27.72 9.21L24.05 9.21L22.85 8.78L21.23 9.21L16.62 9.21L15.41 8.78L13.8 9.21L9.19 9.21L7.94 8.78L6.36 9.21L4.88 9.21C4.4 9.21 4 8.81 4 8.33L4 2.57L28.6 3.34Z" fill="#FFD15B" fill-opacity="1.000000" fill-rule="nonzero"/>
	<path id="Vector" d="M26.77 3.34L26.77 8.33C26.77 8.81 26.37 9.21 25.89 9.21L27.72 9.21C28.21 9.21 28.6 8.81 28.6 8.33L28.6 3.34L26.77 3.34Z" fill="#FFC344" fill-opacity="1.000000" fill-rule="nonzero"/>
	<path id="Vector" d="M32.04 0L0.56 0C0.18 0 -0.1 0.37 0.02 0.74L0.75 2.95C0.79 3.06 0.86 3.16 0.96 3.23C1.06 3.3 1.17 3.34 1.29 3.34L31.31 3.34C31.43 3.34 31.55 3.3 31.65 3.23C31.74 3.16 31.81 3.06 31.85 2.95L32.58 0.74C32.7 0.37 32.43 0 32.04 0Z" fill="#2D4972" fill-opacity="1.000000" fill-rule="nonzero"/>
	<path id="Vector" d="M32.04 0L30.21 0C30.6 0 30.87 0.37 30.75 0.74L30.02 2.95C29.98 3.06 29.91 3.16 29.81 3.23C29.72 3.3 29.6 3.34 29.48 3.34L31.31 3.34C31.43 3.34 31.55 3.3 31.65 3.23C31.74 3.16 31.81 3.06 31.85 2.95L32.58 0.74C32.7 0.37 32.43 0 32.04 0Z" fill="#17263D" fill-opacity="1.000000" fill-rule="nonzero"/>
	<path id="Vector" d="M23.3 24.25L9.31 24.25C8.79 24.25 8.37 23.83 8.37 23.31L8.37 20.29C8.37 19.77 8.79 19.35 9.31 19.35L23.3 19.35C23.82 19.35 24.23 19.77 24.23 20.29L24.23 23.31C24.23 23.44 24.21 23.56 24.16 23.67C24.12 23.79 24.05 23.89 23.96 23.98C23.87 24.06 23.77 24.13 23.66 24.18C23.54 24.22 23.42 24.25 23.3 24.25Z" fill="#2D4972" fill-opacity="1.000000" fill-rule="nonzero"/>
	<path id="Vector" d="M23.3 19.35L21.47 19.35C21.98 19.35 22.4 19.77 22.4 20.29L22.4 23.31C22.4 23.83 21.98 24.25 21.47 24.25L23.3 24.25C23.82 24.25 24.23 23.83 24.23 23.31L24.23 20.29C24.23 19.77 23.82 19.35 23.3 19.35Z" fill="#17263D" fill-opacity="1.000000" fill-rule="nonzero"/>
	<path id="Vector" d="M11.36 3.34L9.18 9.21L6.36 9.21L8.53 3.34L11.36 3.34ZM18.79 3.34L16.62 9.21L13.8 9.21L15.97 3.34L18.79 3.34ZM26.22 3.34L24.05 9.21L21.23 9.21L23.4 3.34L26.22 3.34Z" fill="#60B7FF" fill-opacity="1.000000" fill-rule="nonzero"/>
	<path id="Vector" d="M27.66 44.48L16.81 45.52L5.96 44.48L5.96 36.79L27.66 36.79L27.66 44.48Z" fill="#2D4972" fill-opacity="1.000000" fill-rule="nonzero"/>
	<path id="Vector" d="M25.82 36.79L27.66 36.79L27.66 44.48L25.82 44.48L25.82 36.79Z" fill="#17263D" fill-opacity="1.000000" fill-rule="nonzero"/>
	<path id="Vector" d="M30.66 44.48L1.95 44.48C1.77 44.48 1.61 44.53 1.46 44.63C1.32 44.72 1.21 44.85 1.14 45.01L0.36 46.75C0.09 47.33 0.52 48 1.16 48L31.44 48C32.08 48 32.51 47.33 32.25 46.75L31.47 45.01C31.4 44.85 31.29 44.72 31.14 44.63C31 44.53 30.83 44.48 30.66 44.48Z" fill="#FFD15B" fill-opacity="1.000000" fill-rule="nonzero"/>
	<path id="Vector" d="M32.25 46.75L31.47 45.01C31.4 44.85 31.29 44.72 31.14 44.63C31 44.53 30.83 44.48 30.66 44.48L28.83 44.48C29 44.48 29.16 44.53 29.31 44.63C29.45 44.72 29.57 44.85 29.64 45.01L30.42 46.75C30.68 47.33 30.25 48 29.61 48L31.44 48C32.08 48 32.51 47.33 32.25 46.75Z" fill="#FFC344" fill-opacity="1.000000" fill-rule="nonzero"/>
	<path id="Vector" d="M18.08 30.55L14.52 30.55C13.78 30.55 13.19 31.15 13.19 31.89L13.19 36.79L19.42 36.79L19.42 31.89C19.42 31.15 18.82 30.55 18.08 30.55Z" fill="#FED2A4" fill-opacity="1.000000" fill-rule="nonzero"/>
	<path id="Vector" d="M18.08 30.55L16.15 30.55C16.89 30.55 17.49 31.15 17.49 31.89L17.49 36.79L19.42 36.79L19.42 31.89C19.42 31.15 18.82 30.55 18.08 30.55Z" fill="#FFBD86" fill-opacity="1.000000" fill-rule="nonzero"/>
	<path id="Vector" d="M20.59 16.66C20.59 17.07 20.25 17.41 19.84 17.41C19.42 17.41 19.08 17.07 19.08 16.66C19.08 16.24 19.42 15.9 19.84 15.9C20.25 15.9 20.59 16.24 20.59 16.66Z" fill="#678D98" fill-opacity="1.000000" fill-rule="evenodd"/>
	<path id="Vector" d="M13.73 16.66C13.73 17.07 13.39 17.41 12.97 17.41C12.56 17.41 12.22 17.07 12.22 16.66C12.22 16.24 12.56 15.9 12.97 15.9C13.39 15.9 13.73 16.24 13.73 16.66Z" fill="#678D98" fill-opacity="1.000000" fill-rule="evenodd"/>
	<path id="Vector" d="M20.59 12.05C20.59 12.47 20.25 12.81 19.84 12.81C19.42 12.81 19.08 12.47 19.08 12.05C19.08 11.63 19.42 11.3 19.84 11.3C20.25 11.3 20.59 11.63 20.59 12.05Z" fill="#678D98" fill-opacity="1.000000" fill-rule="evenodd"/>
	<path id="Vector" d="M13.73 12.05C13.73 12.47 13.39 12.81 12.97 12.81C12.56 12.81 12.22 12.47 12.22 12.05C12.22 11.63 12.56 11.3 12.97 11.3C13.39 11.3 13.73 11.63 13.73 12.05Z" fill="#678D98" fill-opacity="1.000000" fill-rule="evenodd"/>
	<path id="Vector" d="M32.07 37.52L2.06 37.52C1.66 37.52 1.34 37.19 1.34 36.79C1.34 36.39 1.66 36.07 2.06 36.07L32.07 36.07C32.47 36.07 32.79 36.39 32.79 36.79C32.79 37.19 32.47 37.52 32.07 37.52Z" fill="#17263D" fill-opacity="1.000000" fill-rule="nonzero"/>
	<path id="Vector" d="M9.46 40.64C9.46 41.05 9.12 41.39 8.7 41.39C8.29 41.39 7.95 41.05 7.95 40.64C7.95 40.22 8.29 39.88 8.7 39.88C9.12 39.88 9.46 40.22 9.46 40.64Z" fill="#C8EFFE" fill-opacity="1.000000" fill-rule="evenodd"/>
	<path id="Vector" d="M25.74 40.64C25.74 41.05 25.41 41.39 24.99 41.39C24.57 41.39 24.23 41.05 24.23 40.64C24.23 40.22 24.57 39.88 24.99 39.88C25.41 39.88 25.74 40.22 25.74 40.64Z" fill="#C8EFFE" fill-opacity="1.000000" fill-rule="evenodd"/>
</svg>
