<svg width="67.402344" height="28.437500" viewBox="0 0 67.4023 28.4375" fill="none" xmlns="http://www.w3.org/2000/svg" xmlns:xlink="http://www.w3.org/1999/xlink">
	<desc>
			Created with Pixso.
	</desc>
	<defs/>
	<path id="RTP" d="M3.76 16.93L10.44 16.93L16.62 28.43L20.64 28.43L20.64 28.2L13.96 16.13Q16.12 15.3 17.48 13.77Q17.73 13.49 17.95 13.18Q18.36 12.62 18.65 12.01Q19.39 10.46 19.39 8.55Q19.39 5.29 17.81 3.24Q17.37 2.66 16.8 2.18Q14.21 0 9.41 0L0 0L0 28.43L3.76 28.43L3.76 16.93ZM33.59 3.08L42.73 3.08L42.73 0L20.74 0L20.74 3.08L29.86 3.08L29.86 28.43L33.59 28.43L33.59 3.08ZM50.7 28.43L50.7 17.3L57.4 17.3Q62.22 17.3 64.81 15.06Q65.42 14.54 65.89 13.9Q67.4 11.85 67.4 8.69Q67.4 6.15 66.29 4.26Q65.69 3.22 64.75 2.38Q64.66 2.3 64.57 2.22Q61.95 0 57.44 0L46.95 0L46.95 28.43L50.7 28.43ZM9.53 13.86L3.76 13.86L3.76 3.08L9.51 3.08Q12.48 3.1 14.05 4.51Q14.34 4.77 14.58 5.07Q15.62 6.4 15.62 8.55Q15.62 10.11 14.94 11.26Q14.56 11.9 13.97 12.42Q13.87 12.5 13.77 12.58Q12.15 13.86 9.53 13.86ZM57.44 14.23L50.7 14.23L50.7 3.08L57.65 3.08Q60.19 3.13 61.75 4.4Q61.9 4.52 62.05 4.66Q62.5 5.09 62.82 5.61Q63.65 6.9 63.65 8.73Q63.65 10.9 62.59 12.24Q62.35 12.55 62.05 12.82Q60.44 14.23 57.44 14.23Z" fill="#6473D4" fill-opacity="1.000000" fill-rule="evenodd"/>
</svg>
