<svg width="24.533203" height="30.933594" viewBox="0 0 24.5332 30.9336" fill="none" xmlns="http://www.w3.org/2000/svg" xmlns:xlink="http://www.w3.org/1999/xlink">
	<desc>
			Created with Pixso.
	</desc>
	<defs/>
	<path id="Vector" d="M24.12 5.11C24.24 5.15 24.34 5.22 24.41 5.32C24.49 5.42 24.53 5.54 24.53 5.67L24.53 11.66C24.53 27.8 13.64 30.64 12.38 30.92C12.3 30.93 12.22 30.93 12.14 30.92C10.88 30.64 0 27.8 0 11.66L0 5.67C0 5.54 0.04 5.42 0.11 5.32C0.18 5.22 0.28 5.15 0.4 5.11C7.17 2.91 10.91 0.74 11.96 0.08C12.05 0.03 12.15 0 12.26 0C12.37 0 12.47 0.03 12.57 0.08C13.61 0.73 17.36 2.91 24.12 5.11Z" fill="#E8EDF4" fill-opacity="1.000000" fill-rule="nonzero"/>
	<path id="Vector" d="M12.52 28.11C12.35 28.17 12.17 28.17 12 28.11C9.61 27.33 2.66 24 2.66 11.67L2.66 7.75C2.66 7.58 2.72 7.41 2.82 7.27C2.92 7.13 3.06 7.03 3.22 6.97C6.2 5.95 9.09 4.69 11.87 3.21C11.99 3.15 12.12 3.11 12.26 3.11C12.4 3.11 12.53 3.15 12.65 3.21C15.43 4.69 18.33 5.95 21.3 6.97C21.46 7.03 21.61 7.13 21.71 7.27C21.81 7.41 21.86 7.58 21.86 7.75L21.86 11.67C21.86 23.99 14.92 27.33 12.52 28.11Z" fill="#39B54A" fill-opacity="1.000000" fill-rule="nonzero"/>
	<path id="Vector" d="M9.42 19.95L6.69 17.12C6.5 16.92 6.39 16.66 6.39 16.39C6.4 16.12 6.51 15.85 6.7 15.66L7.42 14.94C7.51 14.84 7.63 14.76 7.76 14.71C7.89 14.66 8.02 14.63 8.16 14.64C8.3 14.64 8.44 14.67 8.57 14.72C8.69 14.78 8.81 14.86 8.9 14.96L10 16.15L15.5 9.44C15.58 9.34 15.69 9.25 15.81 9.18C15.93 9.12 16.06 9.08 16.19 9.07C16.33 9.05 16.47 9.07 16.6 9.11C16.73 9.15 16.85 9.21 16.95 9.3L17.75 9.96C17.96 10.14 18.1 10.39 18.12 10.66C18.15 10.94 18.07 11.21 17.89 11.42L10.96 19.88C10.87 20 10.75 20.09 10.62 20.15C10.49 20.22 10.35 20.25 10.2 20.26C10.06 20.27 9.91 20.24 9.78 20.19C9.64 20.13 9.52 20.05 9.42 19.95Z" fill="#FFFFFF" fill-opacity="1.000000" fill-rule="nonzero"/>
</svg>
