<svg width="17.000000" height="17.000000" viewBox="0 0 17 17" fill="none" xmlns="http://www.w3.org/2000/svg" xmlns:xlink="http://www.w3.org/1999/xlink">
	<desc>
			Created with Pixso.
	</desc>
	<defs/>
	<path id="Shape" d="M17 8.5C17 13.19 13.19 17 8.5 17C3.8 17 0 13.19 0 8.5C0 3.8 3.8 0 8.5 0C13.19 0 17 3.8 17 8.5ZM5.69 7.72C4.84 8.09 3.96 8.47 3.16 8.91C2.74 9.22 3.3 9.43 3.82 9.64C3.9 9.67 3.98 9.7 4.06 9.73C4.12 9.75 4.19 9.77 4.26 9.79C4.84 9.98 5.48 10.18 6.04 9.87C6.97 9.34 7.84 8.73 8.71 8.12C9 7.92 9.28 7.72 9.57 7.52C9.58 7.51 9.6 7.5 9.61 7.49C9.86 7.33 10.41 6.97 10.2 7.46C9.72 7.99 9.21 8.46 8.69 8.92C8.34 9.24 7.99 9.56 7.65 9.89C7.35 10.14 7.04 10.62 7.37 10.96C8.14 11.5 8.92 12.03 9.7 12.55C9.96 12.72 10.21 12.89 10.46 13.06C10.89 13.41 11.57 13.13 11.66 12.59C11.7 12.35 11.74 12.1 11.79 11.85C12.02 10.49 12.25 9.13 12.46 7.76C12.49 7.55 12.52 7.33 12.55 7.12C12.63 6.6 12.7 6.08 12.73 5.56C12.66 5.04 12.03 5.15 11.68 5.27C9.87 5.96 8.08 6.7 6.3 7.45C6.1 7.54 5.89 7.63 5.69 7.72Z" fill="#FFFFFF" fill-opacity="1.000000" fill-rule="evenodd"/>
</svg>
