<svg width="45.518799" height="48.000000" viewBox="0 0 45.5188 48" fill="none" xmlns="http://www.w3.org/2000/svg" xmlns:xlink="http://www.w3.org/1999/xlink">
	<desc>
			Created with Pixso.
	</desc>
	<defs/>
	<path id="Vector" d="M28.18 33.1L30.89 33.1C31.24 33.1 31.58 33.21 31.86 33.41C32.14 33.61 32.35 33.9 32.46 34.23L36.33 45.82C36.41 46.07 36.43 46.33 36.39 46.59C36.35 46.85 36.25 47.1 36.1 47.31C35.94 47.52 35.74 47.69 35.51 47.81C35.28 47.93 35.02 48 34.75 48L1.65 48C1.39 48 1.13 47.93 0.9 47.81C0.66 47.69 0.46 47.52 0.31 47.31C0.15 47.1 0.05 46.85 0.01 46.59C-0.03 46.33 0 46.07 0.08 45.82L3.94 34.23C4.05 33.9 4.26 33.62 4.55 33.41C4.83 33.21 5.17 33.1 5.51 33.1L28.18 33.1Z" fill="#56595E" fill-opacity="1.000000" fill-rule="nonzero"/>
	<path id="Vector" d="M21.51 10.54L21.51 15.72C21.51 16.16 21.34 16.58 21.03 16.89C20.72 17.2 20.3 17.37 19.86 17.37L16.55 17.37C16.11 17.37 15.69 17.2 15.38 16.89C15.07 16.58 14.89 16.16 14.89 15.72L14.89 10.54L21.51 10.54Z" fill="#17263D" fill-opacity="1.000000" fill-rule="nonzero"/>
	<path id="Vector" d="M25.43 31.51C26.23 31.73 26.99 32.12 27.65 32.63C28.31 33.15 28.86 33.8 29.26 34.53C29.73 35.46 29.56 36.58 28.83 37.32C27.51 38.67 24.54 40.55 18.2 40.55C11.86 40.55 8.89 38.67 7.58 37.32C7.22 36.96 6.99 36.5 6.91 35.99C6.83 35.49 6.91 34.98 7.14 34.53C7.55 33.8 8.1 33.15 8.76 32.63C9.42 32.12 10.17 31.73 10.98 31.51L25.43 31.51Z" fill="#2C2F38" fill-opacity="1.000000" fill-rule="nonzero"/>
	<path id="Vector" d="M18.2 44.68C6.56 44.68 5.15 41.4 4.99 40.75C4.94 40.54 4.97 40.31 5.08 40.12C5.2 39.94 5.38 39.8 5.59 39.75C5.8 39.7 6.03 39.73 6.21 39.84C6.4 39.95 6.54 40.13 6.59 40.35C6.6 40.35 7.8 43.03 18.2 43.03C28.5 43.03 29.81 40.37 29.81 40.35C29.84 40.24 29.89 40.14 29.95 40.05C30.02 39.96 30.1 39.89 30.19 39.83C30.28 39.78 30.39 39.74 30.5 39.72C30.6 39.71 30.71 39.71 30.82 39.74C30.93 39.76 31.03 39.81 31.11 39.88C31.2 39.94 31.27 40.02 31.33 40.12C31.39 40.21 31.42 40.32 31.44 40.42C31.45 40.53 31.45 40.64 31.42 40.75C31.25 41.4 29.84 44.68 18.2 44.68Z" fill="#2C2F38" fill-opacity="1.000000" fill-rule="nonzero"/>
	<path id="Vector" d="M42.2 2.48C41.98 2.48 41.77 2.57 41.62 2.72C41.46 2.88 41.38 3.09 41.38 3.31L41.38 6.62L36.41 6.62L36.41 3.31C36.41 3.09 36.32 2.88 36.17 2.72C36.01 2.57 35.8 2.48 35.58 2.48C35.36 2.48 35.15 2.57 35 2.72C34.84 2.88 34.75 3.09 34.75 3.31L34.75 6.62L29.79 6.62L29.79 3.31C29.79 3.09 29.7 2.88 29.55 2.72C29.39 2.57 29.18 2.48 28.96 2.48C28.74 2.48 28.53 2.57 28.38 2.72C28.22 2.88 28.13 3.09 28.13 3.31L28.13 11.58C28.13 11.8 28.22 12.01 28.38 12.17C28.53 12.32 28.74 12.41 28.96 12.41C29.18 12.41 29.39 12.32 29.55 12.17C29.7 12.01 29.79 11.8 29.79 11.58L29.79 8.27L34.75 8.27L34.75 11.58C34.75 11.8 34.84 12.01 35 12.17C35.15 12.32 35.36 12.41 35.58 12.41C35.8 12.41 36.01 12.32 36.17 12.17C36.32 12.01 36.41 11.8 36.41 11.58L36.41 8.27L42.2 8.27C42.42 8.27 42.63 8.18 42.79 8.03C42.94 7.87 43.03 7.66 43.03 7.44L43.03 3.31C43.03 3.09 42.94 2.88 42.79 2.72C42.63 2.57 42.42 2.48 42.2 2.48Z" fill="#17263D" fill-opacity="1.000000" fill-rule="nonzero"/>
	<path id="Vector" d="M45.51 12.41C45.51 11.75 45.25 11.12 44.79 10.65C44.32 10.19 43.69 9.93 43.03 9.93L40.55 9.93C40.33 9.93 40.12 10.01 39.96 10.17C39.81 10.32 39.72 10.53 39.72 10.75L39.72 16.55C39.72 16.77 39.81 16.98 39.96 17.13C40.12 17.29 40.33 17.37 40.55 17.37C40.77 17.37 40.98 17.29 41.13 17.13C41.29 16.98 41.38 16.77 41.38 16.55L41.38 14.89L42.8 14.89C43.1 15.06 43.35 15.3 43.53 15.59C43.72 15.88 43.83 16.21 43.86 16.55C43.86 16.77 43.95 16.98 44.1 17.13C44.26 17.29 44.47 17.37 44.69 17.37C44.91 17.37 45.12 17.29 45.27 17.13C45.43 16.98 45.51 16.77 45.51 16.55C45.51 15.71 45.19 14.91 44.62 14.3C44.9 14.07 45.13 13.78 45.28 13.45C45.43 13.13 45.51 12.77 45.51 12.41ZM41.38 11.58L43.03 11.58C43.25 11.58 43.46 11.67 43.62 11.82C43.77 11.98 43.86 12.19 43.86 12.41C43.86 12.63 43.77 12.84 43.62 12.99C43.46 13.15 43.25 13.24 43.03 13.24L41.38 13.24L41.38 11.58Z" fill="#2D4972" fill-opacity="1.000000" fill-rule="nonzero"/>
	<path id="Vector" d="M15.38 27.59C13.83 28.08 11.23 29.33 10.81 32.26C10.73 32.82 10.96 33.39 11.41 33.75C12.33 34.49 14.35 35.58 18.2 35.58C22.05 35.58 24.07 34.49 25 33.75C25.44 33.39 25.67 32.83 25.59 32.26C25.17 29.33 22.58 28.09 21.03 27.59C20.69 27.49 20.39 27.28 20.18 27C19.97 26.71 19.86 26.37 19.86 26.01L19.86 17.37L16.55 17.37L16.55 26.01C16.55 26.37 16.43 26.71 16.22 26.99C16.01 27.28 15.72 27.49 15.38 27.59Z" fill="#464F5D" fill-opacity="1.000000" fill-rule="nonzero"/>
	<path id="Vector" d="M23.99 5.79C23.99 8.99 21.4 11.58 18.2 11.58C15 11.58 12.41 8.99 12.41 5.79C12.41 2.59 15 0 18.2 0C21.4 0 23.99 2.59 23.99 5.79Z" fill="#2D4972" fill-opacity="1.000000" fill-rule="evenodd"/>
	<path id="Vector" d="M30.62 1.65C30.62 2.56 29.88 3.31 28.96 3.31C28.05 3.31 27.31 2.56 27.31 1.65C27.31 0.74 28.05 0 28.96 0C29.88 0 30.62 0.74 30.62 1.65Z" fill="#2D4972" fill-opacity="1.000000" fill-rule="evenodd"/>
	<path id="Vector" d="M30.62 13.24C30.62 14.15 29.88 14.89 28.96 14.89C28.05 14.89 27.31 14.15 27.31 13.24C27.31 12.32 28.05 11.58 28.96 11.58C29.88 11.58 30.62 12.32 30.62 13.24Z" fill="#2D4972" fill-opacity="1.000000" fill-rule="evenodd"/>
	<path id="Vector" d="M37.24 1.65C37.24 2.56 36.5 3.31 35.58 3.31C34.67 3.31 33.93 2.56 33.93 1.65C33.93 0.74 34.67 0 35.58 0C36.5 0 37.24 0.74 37.24 1.65Z" fill="#2D4972" fill-opacity="1.000000" fill-rule="evenodd"/>
	<path id="Vector" d="M37.24 13.24C37.24 14.15 36.5 14.89 35.58 14.89C34.67 14.89 33.93 14.15 33.93 13.24C33.93 12.32 34.67 11.58 35.58 11.58C36.5 11.58 37.24 12.32 37.24 13.24Z" fill="#2D4972" fill-opacity="1.000000" fill-rule="evenodd"/>
	<path id="Vector" d="M43.86 1.65C43.86 2.56 43.12 3.31 42.2 3.31C41.29 3.31 40.55 2.56 40.55 1.65C40.55 0.74 41.29 0 42.2 0C43.12 0 43.86 0.74 43.86 1.65Z" fill="#2D4972" fill-opacity="1.000000" fill-rule="evenodd"/>
</svg>
