<svg width="36.571411" height="48.000244" viewBox="0 0 36.5714 48.0002" fill="none" xmlns="http://www.w3.org/2000/svg" xmlns:xlink="http://www.w3.org/1999/xlink">
	<desc>
			Created with Pixso.
	</desc>
	<defs/>
	<path id="Vector" d="M18.28 0C18.18 0 18.08 0.01 17.99 0.05C17.9 0.09 17.81 0.15 17.74 0.22C17.67 0.29 17.61 0.37 17.58 0.47C17.54 0.56 17.52 0.66 17.52 0.76L17.52 3.8L19.04 3.8L19.04 0.76C19.04 0.66 19.02 0.56 18.98 0.47C18.95 0.37 18.89 0.29 18.82 0.22C18.75 0.15 18.66 0.09 18.57 0.05C18.48 0.01 18.38 0 18.28 0Z" fill="#EBC9A0" fill-opacity="1.000000" fill-rule="nonzero"/>
	<path id="Vector" d="M17.52 1.52L19.04 1.52L19.04 3.8L17.52 3.8L17.52 1.52Z" fill="#D7B48C" fill-opacity="1.000000" fill-rule="nonzero"/>
	<path id="Vector" d="M16.76 11.42L19.81 11.42L19.81 16L16.76 16L16.76 11.42Z" fill="#DBD9DC" fill-opacity="1.000000" fill-rule="nonzero"/>
	<path id="Vector" d="M16.76 11.42L19.81 11.42L19.81 13.71L16.76 13.71L16.76 11.42Z" fill="#C9C6CA" fill-opacity="1.000000" fill-rule="nonzero"/>
	<path id="Vector" d="M19.8 9.14L16.76 9.14L15.51 11.63C15.38 11.89 15.57 12.19 15.85 12.19L20.71 12.19C20.99 12.19 21.18 11.89 21.05 11.63L19.8 9.14Z" fill="#EDEBED" fill-opacity="1.000000" fill-rule="nonzero"/>
	<path id="Vector" d="M20.57 10.66L19.8 9.14L16.76 9.14L16 10.66L20.57 10.66Z" fill="#DBD9DC" fill-opacity="1.000000" fill-rule="nonzero"/>
	<path id="Vector" d="M19.8 6.09L16.76 6.09L15.51 8.59C15.38 8.84 15.57 9.14 15.85 9.14L20.71 9.14C20.99 9.14 21.18 8.84 21.05 8.59L19.8 6.09Z" fill="#EDEBED" fill-opacity="1.000000" fill-rule="nonzero"/>
	<path id="Vector" d="M20.57 7.61L19.8 6.09L16.76 6.09L16 7.61L20.57 7.61Z" fill="#DBD9DC" fill-opacity="1.000000" fill-rule="nonzero"/>
	<path id="Vector" d="M19.33 3.04L17.23 3.04C17.09 3.04 16.95 3.08 16.83 3.16C16.71 3.23 16.61 3.34 16.55 3.46L15.51 5.54C15.38 5.79 15.57 6.09 15.85 6.09L20.71 6.09C21 6.09 21.18 5.79 21.05 5.54L20.02 3.46C19.95 3.34 19.86 3.23 19.73 3.16C19.61 3.08 19.48 3.04 19.33 3.04Z" fill="#EDEBED" fill-opacity="1.000000" fill-rule="nonzero"/>
	<path id="Vector" d="M20.57 4.57L20.02 3.46C19.95 3.34 19.85 3.23 19.73 3.16C19.61 3.08 19.48 3.04 19.33 3.04L17.23 3.04C17.09 3.04 16.95 3.08 16.83 3.16C16.71 3.23 16.61 3.34 16.55 3.46L16 4.57L20.57 4.57Z" fill="#DBD9DC" fill-opacity="1.000000" fill-rule="nonzero"/>
	<path id="Vector" d="M27.42 0C27.32 0 27.22 0.01 27.13 0.05C27.04 0.09 26.96 0.15 26.89 0.22C26.81 0.29 26.76 0.37 26.72 0.47C26.68 0.56 26.66 0.66 26.66 0.76L26.66 3.8L28.19 3.8L28.19 0.76C28.19 0.66 28.17 0.56 28.13 0.47C28.09 0.37 28.03 0.29 27.96 0.22C27.89 0.15 27.81 0.09 27.72 0.05C27.62 0.01 27.52 0 27.42 0Z" fill="#EBC9A0" fill-opacity="1.000000" fill-rule="nonzero"/>
	<path id="Vector" d="M26.66 1.52L28.19 1.52L28.19 3.8L26.66 3.8L26.66 1.52Z" fill="#D7B48C" fill-opacity="1.000000" fill-rule="nonzero"/>
	<path id="Vector" d="M25.9 11.42L28.95 11.42L28.95 16L25.9 16L25.9 11.42Z" fill="#DBD9DC" fill-opacity="1.000000" fill-rule="nonzero"/>
	<path id="Vector" d="M25.9 11.42L28.95 11.42L28.95 13.71L25.9 13.71L25.9 11.42Z" fill="#C9C6CA" fill-opacity="1.000000" fill-rule="nonzero"/>
	<path id="Vector" d="M28.95 9.14L25.9 9.14L24.65 11.63C24.53 11.89 24.71 12.19 24.99 12.19L29.86 12.19C30.14 12.19 30.32 11.89 30.2 11.63L28.95 9.14Z" fill="#EDEBED" fill-opacity="1.000000" fill-rule="nonzero"/>
	<path id="Vector" d="M29.71 10.66L28.95 9.14L25.9 9.14L25.14 10.66L29.71 10.66Z" fill="#DBD9DC" fill-opacity="1.000000" fill-rule="nonzero"/>
	<path id="Vector" d="M28.95 6.09L25.9 6.09L24.65 8.59C24.53 8.84 24.71 9.14 24.99 9.14L29.86 9.14C30.14 9.14 30.32 8.84 30.2 8.59L28.95 6.09Z" fill="#EDEBED" fill-opacity="1.000000" fill-rule="nonzero"/>
	<path id="Vector" d="M29.71 7.61L28.95 6.09L25.9 6.09L25.14 7.61L29.71 7.61Z" fill="#DBD9DC" fill-opacity="1.000000" fill-rule="nonzero"/>
	<path id="Vector" d="M28.48 3.04L26.37 3.04C26.23 3.04 26.09 3.08 25.97 3.16C25.85 3.23 25.75 3.34 25.69 3.46L24.65 5.54C24.53 5.79 24.71 6.09 24.99 6.09L29.86 6.09C30.14 6.09 30.32 5.79 30.2 5.54L29.16 3.46C29.09 3.34 29 3.23 28.88 3.16C28.76 3.08 28.62 3.04 28.48 3.04Z" fill="#EDEBED" fill-opacity="1.000000" fill-rule="nonzero"/>
	<path id="Vector" d="M29.71 4.57L29.16 3.46C29.09 3.34 29 3.23 28.88 3.16C28.76 3.08 28.62 3.04 28.48 3.04L26.37 3.04C26.23 3.04 26.09 3.08 25.97 3.16C25.85 3.23 25.75 3.34 25.69 3.46L25.14 4.57L29.71 4.57Z" fill="#DBD9DC" fill-opacity="1.000000" fill-rule="nonzero"/>
	<path id="Vector" d="M9.14 0C9.04 0 8.94 0.01 8.85 0.05C8.75 0.09 8.67 0.15 8.6 0.22C8.53 0.29 8.47 0.37 8.43 0.47C8.4 0.56 8.38 0.66 8.38 0.76L8.38 3.8L9.9 3.8L9.9 0.76C9.9 0.66 9.88 0.56 9.84 0.47C9.8 0.37 9.75 0.29 9.68 0.22C9.61 0.15 9.52 0.09 9.43 0.05C9.34 0.01 9.24 0 9.14 0Z" fill="#EBC9A0" fill-opacity="1.000000" fill-rule="nonzero"/>
	<path id="Vector" d="M8.38 1.52L9.9 1.52L9.9 3.8L8.38 3.8L8.38 1.52Z" fill="#D7B48C" fill-opacity="1.000000" fill-rule="nonzero"/>
	<path id="Vector" d="M7.61 11.42L10.66 11.42L10.66 16L7.61 16L7.61 11.42Z" fill="#DBD9DC" fill-opacity="1.000000" fill-rule="nonzero"/>
	<path id="Vector" d="M7.61 11.42L10.66 11.42L10.66 13.71L7.61 13.71L7.61 11.42Z" fill="#C9C6CA" fill-opacity="1.000000" fill-rule="nonzero"/>
	<path id="Vector" d="M2.28 18.28L34.28 18.28L34.28 43.42L2.28 43.42L2.28 18.28Z" fill="#2D4972" fill-opacity="1.000000" fill-rule="nonzero"/>
	<path id="Vector" d="M14.47 19.8L34.28 19.8L34.28 18.28L2.28 18.28L2.28 43.42L5.33 43.42L5.33 28.95C5.33 23.9 9.42 19.8 14.47 19.8Z" fill="#17263D" fill-opacity="1.000000" fill-rule="nonzero"/>
	<path id="Vector" d="M35.04 18.28L1.52 18.28C1.32 18.28 1.12 18.2 0.98 18.06C0.84 17.91 0.76 17.72 0.76 17.52L0.76 16C0.76 15.79 0.84 15.6 0.98 15.46C1.12 15.31 1.32 15.23 1.52 15.23L35.04 15.23C35.24 15.23 35.44 15.31 35.58 15.46C35.72 15.6 35.8 15.79 35.8 16L35.8 17.52C35.8 17.62 35.78 17.72 35.75 17.81C35.71 17.9 35.65 17.99 35.58 18.06C35.51 18.13 35.43 18.18 35.33 18.22C35.24 18.26 35.14 18.28 35.04 18.28Z" fill="#C9C6CA" fill-opacity="1.000000" fill-rule="nonzero"/>
	<path id="Vector" d="M25.5 38.85L11.06 38.85C10.55 38.85 10.09 38.59 9.83 38.14C9.58 37.7 9.58 37.17 9.83 36.73L17.06 24.22C17.31 23.78 17.77 23.51 18.28 23.51C18.79 23.51 19.25 23.78 19.51 24.22L26.73 36.73C26.99 37.17 26.99 37.7 26.73 38.14C26.47 38.59 26.02 38.85 25.5 38.85Z" fill="#5D5360" fill-opacity="1.000000" fill-rule="nonzero"/>
	<path id="Vector" d="M11.25 37.33L25.32 37.33L18.28 25.15L11.25 37.33Z" fill="#FFDC64" fill-opacity="1.000000" fill-rule="nonzero"/>
	<path id="Vector" d="M10.66 9.14L7.61 9.14L6.37 11.63C6.24 11.89 6.42 12.19 6.71 12.19L11.57 12.19C11.85 12.19 12.04 11.89 11.91 11.63L10.66 9.14Z" fill="#EDEBED" fill-opacity="1.000000" fill-rule="nonzero"/>
	<path id="Vector" d="M9.14 20.57C9.04 20.57 8.94 20.55 8.85 20.51C8.75 20.47 8.67 20.41 8.6 20.34C8.53 20.27 8.47 20.19 8.43 20.1C8.4 20 8.38 19.9 8.38 19.8L8.38 18.28C8.38 17.86 8.72 17.52 9.14 17.52C9.56 17.52 9.9 17.86 9.9 18.28L9.9 19.8C9.9 19.9 9.88 20 9.84 20.1C9.8 20.19 9.75 20.27 9.68 20.34C9.61 20.41 9.52 20.47 9.43 20.51C9.34 20.55 9.24 20.57 9.14 20.57ZM18.28 20.57C18.18 20.57 18.08 20.55 17.99 20.51C17.9 20.47 17.81 20.41 17.74 20.34C17.67 20.27 17.61 20.19 17.58 20.1C17.54 20 17.52 19.9 17.52 19.8L17.52 18.28C17.52 17.86 17.86 17.52 18.28 17.52C18.7 17.52 19.04 17.86 19.04 18.28L19.04 19.8C19.04 19.9 19.02 20 18.98 20.1C18.95 20.19 18.89 20.27 18.82 20.34C18.75 20.41 18.66 20.47 18.57 20.51C18.48 20.55 18.38 20.57 18.28 20.57ZM27.42 20.57C27.32 20.57 27.22 20.55 27.13 20.51C27.04 20.47 26.96 20.41 26.88 20.34C26.81 20.27 26.76 20.19 26.72 20.1C26.68 20 26.66 19.9 26.66 19.8L26.66 18.28C26.66 17.86 27 17.52 27.42 17.52C27.84 17.52 28.19 17.86 28.19 18.28L28.19 19.8C28.19 19.9 28.17 20 28.13 20.1C28.09 20.19 28.03 20.27 27.96 20.34C27.89 20.41 27.81 20.47 27.72 20.51C27.62 20.55 27.52 20.57 27.42 20.57Z" fill="#AEA8AF" fill-opacity="1.000000" fill-rule="nonzero"/>
	<path id="Vector" d="M18.28 36.24C18.2 36.24 18.13 36.23 18.05 36.21C17.65 36.08 17.43 35.65 17.55 35.25L18.2 33.19L17.33 33.19C17.21 33.19 17.09 33.16 16.99 33.11C16.88 33.06 16.79 32.98 16.72 32.88C16.65 32.78 16.6 32.67 16.58 32.56C16.56 32.44 16.57 32.32 16.6 32.2L17.55 29.15C17.68 28.75 18.1 28.53 18.51 28.65C18.7 28.71 18.86 28.85 18.96 29.03C19.05 29.21 19.07 29.42 19.01 29.61L18.37 31.67L19.23 31.67C19.35 31.67 19.47 31.7 19.57 31.75C19.68 31.8 19.77 31.88 19.84 31.98C19.91 32.07 19.96 32.19 19.98 32.3C20 32.42 19.99 32.54 19.96 32.66L19.01 35.71C18.96 35.86 18.86 36 18.73 36.09C18.6 36.19 18.44 36.24 18.28 36.24Z" fill="#5D5360" fill-opacity="1.000000" fill-rule="nonzero"/>
	<path id="Vector" d="M4.57 16.76C4.36 16.76 4.17 16.68 4.03 16.53C3.88 16.39 3.8 16.2 3.8 16L3.8 15.23L1.52 15.23C1.42 15.23 1.32 15.25 1.23 15.29C1.13 15.33 1.05 15.39 0.98 15.46C0.91 15.53 0.85 15.61 0.81 15.7C0.78 15.8 0.76 15.9 0.76 16L0.76 17.52C0.76 17.62 0.78 17.72 0.81 17.81C0.85 17.9 0.91 17.99 0.98 18.06C1.05 18.13 1.13 18.18 1.23 18.22C1.32 18.26 1.42 18.28 1.52 18.28L35.04 18.28C35.14 18.28 35.24 18.26 35.33 18.22C35.43 18.18 35.51 18.13 35.58 18.06C35.65 17.99 35.71 17.9 35.75 17.81C35.78 17.72 35.8 17.62 35.8 17.52L35.8 16.76L4.57 16.76Z" fill="#B7B2B8" fill-opacity="1.000000" fill-rule="nonzero"/>
	<path id="Vector" d="M35.8 48L0.76 48C0.55 48 0.36 47.91 0.22 47.77C0.08 47.63 3.05e-5 47.44 0 47.23L0 44.19C3.05e-5 43.98 0.08 43.79 0.22 43.65C0.36 43.5 0.55 43.42 0.76 43.42L35.8 43.42C36.01 43.42 36.2 43.5 36.34 43.65C36.49 43.79 36.57 43.98 36.57 44.19L36.57 47.23C36.57 47.33 36.55 47.43 36.51 47.52C36.47 47.62 36.41 47.7 36.34 47.77C36.27 47.84 36.19 47.9 36.1 47.94C36 47.98 35.9 48 35.8 48Z" fill="#C9C6CA" fill-opacity="1.000000" fill-rule="nonzero"/>
	<path id="Vector" d="M3.8 45.71C2.96 45.71 2.28 45.03 2.28 44.19L2.28 43.42L0.76 43.42C0.55 43.42 0.36 43.5 0.22 43.65C0.08 43.79 3.05e-5 43.98 0 44.19L0 47.23C3.05e-5 47.44 0.08 47.63 0.22 47.77C0.36 47.91 0.55 48 0.76 48L35.8 48C36.01 48 36.2 47.91 36.34 47.77C36.49 47.63 36.57 47.44 36.57 47.23L36.57 45.71L3.8 45.71Z" fill="#B7B2B8" fill-opacity="1.000000" fill-rule="nonzero"/>
	<path id="Vector" d="M11.42 10.66L10.66 9.14L7.61 9.14L6.85 10.66L11.42 10.66Z" fill="#DBD9DC" fill-opacity="1.000000" fill-rule="nonzero"/>
	<path id="Vector" d="M10.66 6.09L7.61 6.09L6.37 8.59C6.24 8.84 6.42 9.14 6.71 9.14L11.57 9.14C11.85 9.14 12.04 8.84 11.91 8.59L10.66 6.09Z" fill="#EDEBED" fill-opacity="1.000000" fill-rule="nonzero"/>
	<path id="Vector" d="M11.42 7.61L10.66 6.09L7.61 6.09L6.85 7.61L11.42 7.61Z" fill="#DBD9DC" fill-opacity="1.000000" fill-rule="nonzero"/>
	<path id="Vector" d="M10.19 3.04L8.08 3.04C7.94 3.04 7.8 3.08 7.68 3.16C7.56 3.23 7.47 3.34 7.4 3.46L6.37 5.54C6.24 5.79 6.42 6.09 6.71 6.09L11.57 6.09C11.85 6.09 12.04 5.79 11.91 5.54L10.87 3.46C10.81 3.34 10.71 3.23 10.59 3.16C10.47 3.08 10.33 3.04 10.19 3.04Z" fill="#EDEBED" fill-opacity="1.000000" fill-rule="nonzero"/>
	<path id="Vector" d="M11.42 4.57L10.87 3.46C10.81 3.34 10.71 3.23 10.59 3.16C10.47 3.08 10.33 3.04 10.19 3.04L8.09 3.04C7.94 3.04 7.81 3.08 7.68 3.16C7.56 3.23 7.47 3.34 7.4 3.46L6.85 4.57L11.42 4.57Z" fill="#DBD9DC" fill-opacity="1.000000" fill-rule="nonzero"/>
</svg>
