<svg width="48.000149" height="40.422363" viewBox="0 0 48.0001 40.4224" fill="none" xmlns="http://www.w3.org/2000/svg" xmlns:xlink="http://www.w3.org/1999/xlink">
	<desc>
			Created with Pixso.
	</desc>
	<defs/>
	<path id="Vector" d="M48 2.52C48 2.32 47.91 2.12 47.77 1.98C47.63 1.84 47.44 1.76 47.24 1.76L19.7 1.76L19.7 1.76C19.57 1.76 19.45 1.76 19.32 1.76C8.65 1.76 -9.35e-5 10.41 0 21.09C9.34e-5 31.79 8.62 40.42 19.32 40.42C30 40.42 38.65 31.76 38.65 21.09C38.65 20.46 38.62 19.83 38.56 19.22L47.24 19.22C47.33 19.22 47.43 19.2 47.53 19.16C47.62 19.12 47.7 19.07 47.77 19C47.84 18.93 47.9 18.84 47.94 18.75C47.98 18.66 48 18.56 48 18.46L48 2.52Z" fill="#2D4972" fill-opacity="1.000000" fill-rule="nonzero"/>
	<path id="Vector" d="M36.97 19.22C35.95 19.22 35.13 20.05 35.13 21.07L35.13 21.09C35.13 31.17 27.41 39.45 17.56 40.34C18.14 40.39 18.73 40.42 19.33 40.42C30 40.42 38.65 31.76 38.65 21.09C38.65 20.46 38.62 19.83 38.56 19.22L36.97 19.22ZM47.24 1.76L43.71 1.76C43.92 1.76 44.11 1.84 44.25 1.98C44.39 2.12 44.47 2.32 44.47 2.52L44.47 18.46C44.47 18.66 44.39 18.85 44.25 19C44.11 19.14 43.92 19.22 43.71 19.22L47.24 19.22C47.34 19.22 47.43 19.2 47.53 19.16C47.62 19.12 47.7 19.07 47.77 19C47.84 18.93 47.9 18.84 47.94 18.75C47.98 18.66 48 18.56 48 18.46L48 2.52C48 2.32 47.92 2.12 47.77 1.98C47.63 1.84 47.44 1.76 47.24 1.76Z" fill="#17263D" fill-opacity="1.000000" fill-rule="nonzero"/>
	<path id="Vector" d="M31.87 21.29C31.87 28.46 26.06 34.28 18.89 34.28C11.72 34.28 5.91 28.46 5.91 21.29C5.91 14.13 11.72 8.31 18.89 8.31C26.06 8.31 31.87 14.13 31.87 21.29Z" fill="#B0B0CD" fill-opacity="1.000000" fill-rule="evenodd"/>
	<path id="Vector" d="M18.89 21.29L22.44 14.58C22.92 13.68 22.45 12.55 21.47 12.27C20.63 12.03 19.76 11.91 18.89 11.91C18 11.91 17.14 12.03 16.32 12.26C15.33 12.54 14.86 13.67 15.34 14.58L18.89 21.29ZM18.9 21.29L15.34 28.01C14.86 28.91 15.33 30.04 16.32 30.32C17.16 30.56 18.02 30.68 18.9 30.68C19.79 30.68 20.65 30.56 21.47 30.33C22.45 30.05 22.92 28.92 22.44 28.01L18.9 21.29Z" fill="#707487" fill-opacity="1.000000" fill-rule="nonzero"/>
	<path id="Vector" d="M18.89 21.29L25.6 24.84C26.51 25.32 27.64 24.86 27.92 23.87C28.16 23.03 28.28 22.16 28.28 21.29C28.28 20.42 28.16 19.56 27.92 18.72C27.64 17.73 26.51 17.27 25.6 17.74L18.89 21.29ZM18.89 21.3L12.18 17.75C11.27 17.27 10.14 17.73 9.86 18.72C9.62 19.56 9.5 20.43 9.5 21.3C9.5 22.19 9.63 23.05 9.86 23.87C10.14 24.85 11.27 25.32 12.17 24.84L18.89 21.3Z" fill="#707487" fill-opacity="1.000000" fill-rule="nonzero"/>
	<path id="Vector" d="M21.35 21.29C21.35 22.65 20.25 23.75 18.89 23.75C17.53 23.75 16.43 22.65 16.43 21.29C16.43 19.94 17.53 18.84 18.89 18.84C20.25 18.84 21.35 19.94 21.35 21.29Z" fill="#959CB3" fill-opacity="1.000000" fill-rule="evenodd"/>
	<path id="Vector" d="M43.5 21.09C42.7 21.09 42.05 20.44 42.05 19.64L42.05 1.44C42.05 0.64 42.7 0 43.5 0C44.3 0 44.94 0.64 44.94 1.44L44.94 19.64C44.94 20.44 44.3 21.09 43.5 21.09Z" fill="#707487" fill-opacity="1.000000" fill-rule="nonzero"/>
</svg>
