<svg width="17.000000" height="17.000000" viewBox="0 0 17 17" fill="none" xmlns="http://www.w3.org/2000/svg" xmlns:xlink="http://www.w3.org/1999/xlink">
	<desc>
			Created with Pixso.
	</desc>
	<defs/>
	<path id="Combined-Shape" d="M0 8.5C0 3.8 3.8 0 8.5 0C13.19 0 17 3.8 17 8.5C17 13.19 13.19 17 8.5 17C3.8 17 0 13.19 0 8.5ZM8.24 6.9L8.26 7.2L7.96 7.16C6.88 7.02 5.93 6.56 5.13 5.77L4.74 5.38L4.64 5.67C4.42 6.31 4.56 6.99 5.01 7.44C5.24 7.7 5.19 7.73 4.78 7.58C4.64 7.53 4.51 7.5 4.5 7.52C4.46 7.56 4.6 8.1 4.71 8.32C4.87 8.62 5.18 8.91 5.53 9.09L5.82 9.23L5.48 9.23C5.14 9.23 5.13 9.24 5.17 9.37C5.29 9.76 5.76 10.17 6.28 10.35L6.65 10.48L6.33 10.67C5.85 10.94 5.29 11.1 4.73 11.11C4.46 11.12 4.25 11.14 4.25 11.16C4.25 11.22 4.97 11.56 5.39 11.69C6.66 12.08 8.16 11.91 9.29 11.24C10.1 10.77 10.9 9.83 11.27 8.91C11.47 8.43 11.68 7.54 11.68 7.11C11.68 6.84 11.69 6.8 12.03 6.47C12.22 6.28 12.41 6.07 12.44 6.01C12.5 5.9 12.5 5.9 12.19 6C11.69 6.18 11.62 6.15 11.87 5.88C12.05 5.69 12.27 5.34 12.27 5.24C12.27 5.22 12.18 5.25 12.08 5.31C11.97 5.37 11.74 5.46 11.56 5.51L11.24 5.61L10.95 5.42C10.79 5.31 10.56 5.19 10.44 5.15C10.14 5.07 9.67 5.08 9.4 5.18C8.66 5.45 8.19 6.14 8.24 6.9Z" fill="#FFFFFF" fill-opacity="1.000000" fill-rule="evenodd"/>
</svg>
